<?xml version="1.0" encoding="UTF-8" standalone="no"?>
<!-- Created with Inkscape (http://www.inkscape.org/) -->

<svg
   width="60.959999mm"
   height="128.5mm"
   viewBox="0 0 60.959999 128.5"
   version="1.1"
   id="svg1"
   inkscape:version="1.4.2 (f4327f4, 2025-05-13)"
   sodipodi:docname="ARC.svg"
   xml:space="preserve"
   xmlns:inkscape="http://www.inkscape.org/namespaces/inkscape"
   xmlns:sodipodi="http://sodipodi.sourceforge.net/DTD/sodipodi-0.dtd"
   xmlns:xlink="http://www.w3.org/1999/xlink"
   xmlns="http://www.w3.org/2000/svg"
   xmlns:svg="http://www.w3.org/2000/svg"><sodipodi:namedview
     id="namedview1"
     pagecolor="#ffffff"
     bordercolor="#cccccc"
     borderopacity="1"
     inkscape:showpageshadow="0"
     inkscape:pageopacity="1"
     inkscape:pagecheckerboard="0"
     inkscape:deskcolor="#d1d1d1"
     inkscape:document-units="mm"
     inkscape:zoom="0.89532579"
     inkscape:cx="244.6037"
     inkscape:cy="345.68422"
     inkscape:window-width="1920"
     inkscape:window-height="1009"
     inkscape:window-x="-8"
     inkscape:window-y="-8"
     inkscape:window-maximized="1"
     inkscape:current-layer="layer1"
     showguides="true"
     showgrid="false"><sodipodi:guide
       position="-23.085903,279.99894"
       orientation="0,-1"
       id="guide40"
       inkscape:locked="false" /><sodipodi:guide
       position="62.250987,287.4048"
       orientation="0,-1"
       id="guide41"
       inkscape:locked="false" /><sodipodi:guide
       position="69.885627,176.23242"
       orientation="0,-1"
       id="guide42"
       inkscape:locked="false" /><sodipodi:guide
       position="-13.284353,178.906"
       orientation="0,-1"
       id="guide43"
       inkscape:locked="false" /><sodipodi:guide
       position="-19.648763,277.01173"
       orientation="0,-1"
       id="guide1"
       inkscape:locked="false" /><sodipodi:guide
       position="-15.122783,266.47367"
       orientation="0,-1"
       id="guide3"
       inkscape:locked="false" /><sodipodi:guide
       position="4.0096471,191.0717"
       orientation="1,0"
       id="guide4"
       inkscape:locked="false" /><sodipodi:guide
       position="56.950367,189.10684"
       orientation="1,0"
       id="guide5"
       inkscape:locked="false" /><sodipodi:guide
       position="-12.768053,193.1279"
       orientation="0,-1"
       id="guide6"
       inkscape:locked="false" /><sodipodi:guide
       position="13.740707,186.01686"
       orientation="1,0"
       id="guide11"
       inkscape:locked="false" /><sodipodi:guide
       position="-14.921853,189.19818"
       orientation="0,-1"
       id="guide12"
       inkscape:locked="false" /><sodipodi:guide
       position="-17.287323,187.30569"
       orientation="0,-1"
       id="guide13"
       inkscape:locked="false" /><sodipodi:guide
       position="-6.1105329,188.56735"
       orientation="0,-1"
       id="guide16"
       inkscape:locked="false" /><sodipodi:guide
       position="-6.5418329,187.93652"
       orientation="0,-1"
       id="guide17"
       inkscape:locked="false" /><sodipodi:guide
       position="41.252507,184.20058"
       orientation="1,0"
       id="guide188"
       inkscape:locked="false" /><sodipodi:guide
       position="30.460067,184.18195"
       orientation="1,0"
       id="guide189"
       inkscape:locked="false" /><sodipodi:guide
       position="8.8751771,190.84764"
       orientation="1,0"
       id="guide190"
       inkscape:locked="false" /><sodipodi:guide
       position="-39.779193,246.33405"
       orientation="0,-1"
       id="guide85"
       inkscape:locked="false" /><sodipodi:guide
       position="-38.536903,245.04632"
       orientation="0,-1"
       id="guide86"
       inkscape:locked="false" /><sodipodi:guide
       position="34.671857,290.42195"
       orientation="1,0"
       id="guide87"
       inkscape:locked="false" /><sodipodi:guide
       position="19.628547,191.76307"
       orientation="0,-1"
       id="guide92"
       inkscape:locked="false" /><sodipodi:guide
       position="-50.909983,220.31134"
       orientation="0,-1"
       id="guide111"
       inkscape:locked="false" /><inkscape:grid
       id="grid111"
       units="mm"
       originx="217.92757"
       originy="-70.083231"
       spacingx="0.99999998"
       spacingy="1"
       empcolor="#0099e5"
       empopacity="0.30196078"
       color="#0099e5"
       opacity="0.14901961"
       empspacing="5"
       enabled="true"
       visible="false" /><sodipodi:guide
       position="67.035377,191.76307"
       orientation="1,0"
       id="guide2"
       inkscape:locked="false" /><sodipodi:guide
       position="13.740717,192.53938"
       orientation="0,-1"
       id="guide7"
       inkscape:locked="false" /><sodipodi:guide
       position="8.0327571,191.99533"
       orientation="0,-1"
       id="guide27"
       inkscape:locked="false" /></sodipodi:namedview><defs
     id="defs1"><inkscape:path-effect
       effect="fillet_chamfer"
       id="path-effect94"
       is_visible="true"
       lpeversion="1"
       nodesatellites_param="F,0,0,1,0,0,0,1 @ F,0,0,1,0,1.7565951,0,1 @ F,0,0,1,0,0,0,1"
       radius="0"
       unit="px"
       method="auto"
       mode="F"
       chamfer_steps="1"
       flexible="false"
       use_knot_distance="true"
       apply_no_radius="true"
       apply_with_radius="true"
       only_selected="false"
       hide_knots="false" /><linearGradient
       id="linearGradient3"
       inkscape:collect="always"><stop
         style="stop-color:#a1b4ab;stop-opacity:1"
         offset="0"
         id="stop3" /><stop
         style="stop-color:#8da795;stop-opacity:1"
         offset="1"
         id="stop4" /></linearGradient><linearGradient
       inkscape:collect="always"
       xlink:href="#linearGradient3"
       id="linearGradient70"
       gradientUnits="userSpaceOnUse"
       gradientTransform="matrix(1.0181399,0,0,1.0831764,-183.10865,-111.89963)"
       x1="-6.3220334"
       y1="184.6555"
       x2="-27.490543"
       y2="194.01523" /></defs><g
     inkscape:label="Layer 1"
     inkscape:groupmode="layer"
     id="layer1"
     transform="translate(217.92757,-70.083229)"><rect
       style="fill:#e4e6e6;fill-opacity:1;stroke:none;stroke-width:6.38121"
       id="rect2"
       width="60.959999"
       height="128.5"
       x="-217.92757"
       y="70.083229" /><path
       id="path84"
       style="fill:#f2f2f2;fill-opacity:1;stroke-width:0.290287"
       d="m -206.98737,71.157931 c 0.0212,0.618044 0.0816,1.628144 0.17777,3.278869 l 0.185,3.175 -3.33881,3.302124 c -1.83641,1.816438 -3.37535,3.302641 -3.41995,3.302641 -0.0445,0 -1.00684,-0.391482 -2.13785,-0.870231 -0.35408,-0.149883 -0.69231,-0.290975 -0.99167,-0.414445 v 0.585494 c 0.24704,0.10659 0.54404,0.232178 0.90123,0.382405 l 2.09962,0.883151 0.4284,2.353861 c 0.23561,1.294675 0.62294,3.487162 0.86092,4.872054 l 0.43254,2.517676 -1.00563,1.408699 c -0.55323,0.774722 -1.10206,1.445449 -1.21956,1.490349 -0.1175,0.04491 -1.00797,0.305573 -1.97869,0.579293 -0.19333,0.05451 -0.36552,0.103088 -0.51883,0.146761 v 0.556038 c 1.93796,-0.567917 2.71183,-0.741471 2.80706,-0.640788 0.10934,0.11556 2.17588,3.439498 3.26337,5.248778 0.23698,0.39427 1.16055,1.91522 2.05207,3.37964 1.96745,3.23168 2.40502,3.97023 2.40502,4.05763 0,0.0369 -1.59588,1.60196 -3.54655,3.47782 l -3.54656,3.41065 -2.21382,-0.44235 c -0.44134,-0.0881 -0.86132,-0.17307 -1.22059,-0.24702 v 0.55759 l 1.02474,0.20619 2.27376,0.45837 0.19379,0.91674 c 0.32548,1.53904 2.32998,10.63453 2.38228,10.80968 0.0395,0.13225 -0.64771,0.42931 -3.53725,1.5291 -1.06279,0.40451 -1.81099,0.68953 -2.33732,0.89814 v 0.57619 c 1.42655,-0.53324 5.63511,-2.14296 5.97069,-2.28565 0.14417,-0.0613 0.34478,-0.0168 0.67748,0.15038 0.38678,0.19432 0.49108,0.30827 0.57568,0.62684 0.12723,0.4791 2.09162,7.18988 2.84168,9.70793 0.30199,1.01382 0.5641,1.92443 0.5824,2.02313 0.0259,0.13974 -0.93721,0.74182 -4.35943,2.72542 l -4.39301,2.5461 -1.34204,-0.60927 c -0.20724,-0.0941 -0.39091,-0.17776 -0.55345,-0.25166 v 0.60203 c 0.0643,0.0291 0.13203,0.0599 0.20309,0.092 l 1.4521,0.65526 0.13126,0.61443 c 0.17531,0.82262 1.16324,5.98312 1.16324,6.07612 0,0.0404 -0.94431,1.38569 -2.09858,2.98948 -0.33361,0.46353 -0.6148,0.85479 -0.85111,1.18649 v 0.92707 c 1.04016,-1.44296 2.43432,-3.3844 2.82825,-3.94342 0.53908,-0.76504 0.40375,-0.76064 2.28513,-0.0796 0.69662,0.25218 2.32656,0.83427 3.622,1.29347 1.29545,0.45922 2.39293,0.8714 2.43913,0.9157 0.11693,0.11242 1.21118,8.94246 1.11828,9.02426 -0.0616,0.0542 -5.30991,1.73337 -7.4998,2.39933 l -0.56328,0.17105 -2.6882,-1.54461 c -0.56821,-0.32659 -1.10033,-0.63083 -1.54151,-0.88108 v 0.61288 c 2.78249,1.57252 3.87108,2.2545 3.87108,2.42001 0,0.1022 -0.18305,1.37453 -0.40669,2.82722 -0.47125,3.061 -1.08891,7.14143 -1.18391,7.82019 l -0.0656,0.46871 -1.39888,0.17622 c -0.31841,0.0401 -0.58814,0.074 -0.81597,0.10335 v 0.53898 c 0.31081,-0.0396 0.66945,-0.0845 1.01647,-0.12764 l 1.39527,-0.17363 2.75228,1.71566 c 1.51379,0.94379 2.75824,1.72264 2.76624,1.73064 0.0868,0.0927 0.92243,5.16755 0.86713,5.26635 -0.0415,0.0741 -1.36241,1.43457 -2.93573,3.02307 -1.00844,1.01818 -2.01241,2.03568 -2.69183,2.728 h 0.73225 c 0.47929,-0.47911 1.10603,-1.11559 1.93632,-1.96061 l 3.3507,-3.40961 0.55397,0.30696 c 0.30466,0.16897 2.5858,1.48242 5.06946,2.91868 l 3.70778,2.14458 h 1.72651 l 1.65727,-1.53014 c 1.12832,-1.04199 2.12915,-1.92711 2.22415,-1.96681 0.20382,-0.0851 7.50146,-1.2258 7.96799,-1.2454 0.29301,-0.0123 0.4314,0.12099 1.66243,1.6061 0.7385,0.89092 1.87907,2.28512 2.53473,3.09801 0.0104,0.0129 0.0208,0.0256 0.031,0.0382 h 0.70383 c -0.61103,-0.75754 -1.74294,-2.13953 -2.60398,-3.17862 l -1.66294,-2.0066 0.99942,-2.49907 c 0.54957,-1.37448 1.05688,-2.60584 1.12758,-2.73627 0.0707,-0.13043 0.32114,-0.3207 0.55655,-0.42271 0.23541,-0.10207 1.8548,-0.86433 3.59875,-1.69395 2.72641,-1.29693 3.19833,-1.49143 3.36724,-1.38596 0.21822,0.13629 5.12519,4.10081 6.98768,5.64565 l 0.82734,0.68626 -0.13177,1.21284 c -0.0725,0.66703 -0.18813,1.75324 -0.25683,2.41381 -0.0686,0.66056 -0.15116,1.23846 -0.18346,1.28416 -0.0323,0.0457 -0.65738,0.51867 -1.38958,1.05058 -0.58312,0.4236 -1.48865,1.08565 -2.22932,1.62988 h 0.91261 c 1.68667,-1.24593 2.49705,-1.83574 2.7249,-1.98438 l 0.28215,-0.18397 1.25419,1.05627 c 0.39601,0.33366 0.88343,0.74437 1.31981,1.11208 h 0.82631 l -0.72192,-0.60824 c -1.9234,-1.62114 -2.3693,-2.04525 -2.36988,-2.25309 -4.8e-4,-0.17777 0.45095,-4.34297 0.50695,-4.67723 0.002,-0.01 0.52131,-0.37487 1.15496,-0.8108 0.63364,-0.43592 2.03444,-1.40751 3.11299,-2.15956 l 1.96112,-1.36736 1.09141,0.24598 v -0.56999 c -0.50218,-0.12064 -0.81292,-0.20056 -0.82631,-0.21394 -0.0989,-0.0989 -1.0651,-8.20285 -0.9865,-8.27495 0.0394,-0.0362 0.77551,-0.42923 1.81281,-0.9741 v -0.60772 c -1.25747,0.64694 -2.0983,1.07522 -2.11047,1.07332 -0.0191,-0.003 -0.33079,-0.33746 -0.69246,-0.74259 -0.36167,-0.40514 -1.4504,-1.59695 -2.41949,-2.64841 -1.42631,-1.54753 -1.75354,-1.95746 -1.71824,-2.15078 0.024,-0.13134 0.21986,-1.22193 0.43511,-2.42362 0.22342,-1.24717 0.45209,-2.24287 0.53279,-2.32027 0.0777,-0.0746 1.24704,-0.7663 2.5988,-1.53686 l 2.45774,-1.40095 0.56327,0.11989 c 0.0725,0.0154 0.19304,0.0418 0.35295,0.0775 v -0.53382 c -0.0935,-0.0228 -0.18053,-0.0437 -0.25993,-0.0636 l -0.36691,-0.0925 -0.0687,-5.13716 c -0.0373,-2.82551 -0.0511,-5.15483 -0.0294,-5.17643 0.0101,-0.0101 0.28633,-0.12342 0.72502,-0.2992 v -0.60358 c -0.60091,0.22088 -0.9912,0.35476 -1.0387,0.35243 -0.10164,-0.004 -1.68296,-0.67036 -3.51348,-1.48053 -1.83052,-0.81016 -3.45471,-1.51837 -3.6096,-1.57407 -0.15489,-0.0557 -0.28163,-0.14395 -0.28163,-0.19585 0,-0.0519 0.27896,-1.40238 0.6196,-3.00085 0.34063,-1.59847 0.78234,-3.71275 0.98185,-4.69842 0.19953,-0.98565 0.39476,-1.82545 0.43356,-1.86655 0.0728,-0.0771 0.42656,-0.15869 6.33398,-1.4578 l 0.0744,-0.0165 v -0.54415 c -0.77514,0.16943 -1.67164,0.36625 -2.5678,0.5643 -2.14725,0.47454 -3.93037,0.863 -3.96307,0.863 -0.0326,0 -1.3414,-1.23272 -2.90835,-2.73937 -1.56695,-1.50666 -3.4638,-3.32806 -4.21473,-4.0473 -1.22148,-1.17062 -1.35058,-1.32579 -1.22628,-1.48363 0.0764,-0.097 1.40596,-1.60131 2.95486,-3.34295 1.5489,-1.74162 2.9599,-3.33053 3.13521,-3.53105 0.27981,-0.32003 0.46099,-0.40347 1.48466,-0.68058 l 1.16634,-0.31574 1.48466,0.38137 c 0.81669,0.20958 2.13016,0.5505 2.91869,0.7581 0.50947,0.13412 1.16826,0.30768 1.73581,0.45682 v -0.54261 c -0.0828,-0.022 -0.16628,-0.0441 -0.25063,-0.0667 -1.21095,-0.32404 -2.93576,-0.78038 -3.83284,-1.01389 -0.89709,-0.2335 -1.64632,-0.43967 -1.66502,-0.45837 -0.0313,-0.0313 1.21099,-3.71493 3.52795,-10.46034 l 0.91416,-2.66237 1.30638,-0.28319 v -0.54622 c -0.70443,0.14948 -1.34362,0.26317 -1.47433,0.26045 -0.28595,-0.006 -6.04383,-1.99869 -6.1867,-2.14147 -0.0927,-0.0926 -0.332,-0.85051 -1.80713,-5.7211 l -0.91002,-3.003434 0.65526,-0.939478 c 1.96462,-2.817459 2.90074,-4.112259 3.02979,-4.190959 0.0991,-0.06041 1.73575,0.671979 5.21312,2.332675 0.51377,0.245361 1.01083,0.48289 1.48001,0.70745 v -0.592729 c -2.1389,-1.025287 -4.47005,-2.135619 -5.18211,-2.468583 -1.26139,-0.589805 -1.29686,-0.615547 -1.34876,-0.970483 -0.0294,-0.200531 -0.1808,-1.705141 -0.33641,-3.343465 l -0.28319,-2.97863 0.51832,-0.859896 0.51831,-0.859896 1.97301,-1.038696 1.97352,-1.03818 0.77876,0.234095 c 0.23908,0.07185 0.76237,0.224749 1.38855,0.406693 v -0.554488 c -1.06032,-0.306126 -1.8332,-0.534677 -1.84382,-0.54622 -0.0134,-0.01458 0.52258,-2.192284 1.19115,-4.839498 0.23948,-0.948223 0.46362,-1.84241 0.65267,-2.602425 v -1.496032 h -0.18552 c -0.21691,0.859157 -0.63828,2.534766 -1.09606,4.360457 l -1.14411,4.563546 -0.78135,0.415478 c -0.42989,0.228764 -1.2746,0.677709 -1.87689,0.997355 l -1.09502,0.58136 -0.90176,-1.150834 c -2.84006,-3.622744 -5.78208,-7.328916 -7.0807,-8.920386 -0.27868,-0.341524 -0.50744,-0.620129 -0.69763,-0.846976 h -0.67335 c 0.29174,0.366267 0.65582,0.818649 1.04697,1.300179 0.92935,1.144078 2.32563,2.886632 3.10317,3.872631 1.5705,1.99159 4.45712,5.683433 4.65088,5.948474 0.1043,0.142661 0.0468,0.294314 -0.3514,0.926042 -0.26192,0.415488 -0.48626,0.769622 -0.49816,0.787032 -0.0119,0.01742 -0.65973,0.09904 -1.44023,0.181385 -0.78051,0.08236 -2.6865,0.28631 -4.2354,0.453202 -4.42157,0.476415 -8.86089,0.921391 -9.19582,0.921391 -0.26387,0 -0.41509,-0.13716 -1.10432,-0.998906 -0.43922,-0.549157 -1.77246,-2.196342 -2.96261,-3.660758 l -2.1637,-2.66237 0.38758,-3.635437 c 0.18582,-1.743195 0.29828,-2.796589 0.34726,-3.432865 h -0.53898 c -0.0586,0.571163 -0.17512,1.694694 -0.28681,2.766756 -0.13496,1.295445 -0.27629,2.724411 -0.31419,3.175 -0.0378,0.450592 -0.10656,0.893152 -0.15296,0.983402 -0.0464,0.09026 -0.67416,0.502362 -1.39475,0.916223 -0.72059,0.413865 -2.67436,1.544472 -4.34185,2.512508 -1.6675,0.968037 -3.12313,1.809277 -3.23495,1.869137 -0.16272,0.08708 -0.27931,0.05711 -0.58239,-0.148828 -0.20832,-0.141558 -2.25458,-1.433547 -4.54753,-2.871143 -2.29295,-1.437596 -4.20633,-2.649319 -4.25193,-2.692859 -0.0513,-0.04899 -0.3427,-4.419813 -0.44442,-6.510196 z m 0.69919,6.996472 2.02054,1.270206 c 1.11123,0.698738 3.18375,1.998993 4.60593,2.889746 l 2.58588,1.620057 v 4.842598 4.842599 l -0.84491,0.0615 c -0.46467,0.03372 -3.31033,0.175413 -6.32364,0.314709 -3.01333,0.139298 -5.81317,0.278975 -6.22236,0.310575 -0.55778,0.04305 -0.75542,0.02435 -0.78962,-0.07493 -0.025,-0.07283 -0.422,-2.245866 -0.88211,-4.829163 l -0.83664,-4.696871 2.95744,-2.965194 c 1.62654,-1.630605 3.13108,-3.104329 3.34346,-3.275252 z m 18.92132,0.592728 c 0.007,3.17e-4 0.0118,0.0021 0.0145,0.0052 0.59392,0.661541 5.74022,7.151315 5.74022,7.238835 -1e-5,0.06595 -0.54508,1.93556 -1.2113,4.154268 l -1.21129,4.033862 -4.27933,1.828829 h -10e-4 c -2.35354,1.005822 -4.31079,1.828829 -4.34909,1.828829 -0.0383,0 -0.92963,-0.910213 -1.98127,-2.022615 l -1.91203,-2.022616 -0.003,-4.938717 -0.003,-4.939233 0.40101,-0.204639 c 0.38371,-0.195761 4.64655,-2.652938 7.4166,-4.275191 0.6779,-0.397004 1.27176,-0.691523 1.37924,-0.68678 z m 20.97908,5.876127 c 0.18813,-0.004 0.28384,0.01278 0.29559,0.04961 0.0188,0.05895 0.16963,1.534739 0.33538,3.279386 l 0.30179,3.1719 -0.99322,1.384928 c -0.54611,0.761759 -1.37666,1.937908 -1.84588,2.613794 -0.46922,0.67588 -0.88282,1.262813 -0.91932,1.304313 -0.0364,0.04151 -1.26309,0.352307 -2.72542,0.690397 -1.46233,0.33809 -2.82199,0.660019 -3.02152,0.715719 -0.19955,0.05568 -0.91154,0.217628 -1.58233,0.359668 -0.67079,0.14204 -1.22874,0.258382 -1.24024,0.258382 -0.0113,0 -0.88869,-0.629511 -1.95027,-1.398881 -1.06158,-0.76936 -2.31483,-1.675601 -2.78484,-2.013831 -0.47,-0.33823 -0.87757,-0.674174 -0.90537,-0.746724 -0.0278,-0.07255 0.28072,-1.228498 0.68575,-2.568836 0.63376,-2.09723 1.43928,-4.7908 1.60972,-5.382617 0.0647,-0.224713 0.116,-0.234648 2.17816,-0.430981 2.38655,-0.227217 10.38178,-1.054917 11.71143,-1.212329 0.38209,-0.04524 0.66247,-0.06988 0.85059,-0.0739 z m -30.93764,9.596831 c 0.39539,0.0036 0.49196,0.04302 0.5674,0.120406 0.0902,0.09252 0.95391,1.006658 1.91978,2.0314 1.72872,1.83408 1.75649,1.869945 1.75649,2.316655 0,0.98542 0.0878,0.87672 -3.62201,4.46588 -1.92258,1.86008 -4.43986,4.30345 -5.59449,5.42964 l -2.09961,2.04794 -0.48421,0.003 c -0.39261,0.002 -0.51138,-0.0405 -0.6289,-0.22738 -0.0797,-0.12672 -1.26229,-2.07391 -2.62826,-4.32686 -1.36597,-2.25295 -3.07618,-5.05311 -3.80029,-6.222879 -0.72412,-1.16977 -1.31671,-2.16892 -1.31671,-2.22002 0,-0.05114 0.42468,-0.695105 0.94361,-1.431437 0.73355,-1.04084 0.99488,-1.338936 1.17409,-1.338936 0.25174,0 7.04736,-0.328389 11.45149,-0.553455 1.27197,-0.06501 1.96622,-0.09717 2.36162,-0.09353 z m 13.46946,0.577225 c 0.0897,0.02307 1.41441,0.951215 2.94401,2.062407 2.1626,1.57103 2.78067,2.069507 2.77967,2.241207 -7.5e-4,0.12144 -0.0925,2.571082 -0.2036,5.443592 -0.11115,2.87249 -0.20221,5.39222 -0.20309,5.59966 l -0.001,0.37724 -2.67115,0.87747 h -5.2e-4 c -1.4692,0.48253 -2.7079,0.87746 -2.7528,0.87746 -0.0449,0 -0.99466,-1.34821 -2.11047,-2.99568 -1.11581,-1.64747 -3.0414,-4.44439 -4.27881,-6.21564 l -2.24999,-3.220478 0.0207,-0.568441 c 0.0113,-0.31272 0.0429,-0.643005 0.0703,-0.733805 0.0282,-0.09342 0.57137,-0.392394 1.25057,-0.687814 4.24786,-1.847602 7.26582,-3.093278 7.40627,-3.057178 z m 14.41772,2.322856 c 0.14386,0 0.2881,0.36105 0.72606,1.81746 0.30063,0.99974 0.8868,2.92394 1.30224,4.27571 l 0.75551,2.45773 -2.99878,2.93884 c -1.6492,1.61657 -3.02174,2.93825 -3.04994,2.93625 -0.19199,-0.0128 -5.25799,-1.01214 -5.28909,-1.04334 -0.0415,-0.0415 0.38433,-11.465248 0.42943,-11.520748 0.0145,-0.01789 1.21782,-0.302676 2.67374,-0.633036 1.45592,-0.33036 3.23722,-0.74244 3.95893,-0.91519 0.72173,-0.17275 1.3931,-0.313676 1.4919,-0.313676 z m -23.53189,3.15846 0.18086,0.23823 c 0.62845,0.82683 4.92772,7.06535 6.951,10.08621 l 1.38286,2.06447 -0.33641,0.73071 c -0.39486,0.85666 0.29696,0.42526 -5.8999,3.67781 -2.37467,1.24638 -4.33319,2.26336 -4.35219,2.26136 -0.0191,-0.003 -0.63411,-0.58007 -1.36632,-1.28364 -0.73221,-0.70356 -2.70187,-2.5759 -4.37751,-4.16047 -1.67562,-1.58456 -3.04685,-2.91426 -3.04685,-2.95486 0,-0.0656 4.80796,-4.79337 9.24698,-9.09299 z m 26.6702,5.87096 c 0.15764,-0.0345 5.771,1.88713 5.91747,2.02572 0.0457,0.0432 -0.47606,1.70941 -1.15962,3.70262 -0.68358,1.99321 -1.68851,4.93584 -2.23345,6.53913 l -0.99064,2.91507 -0.76843,0.21807 c -1.4406,0.40885 -1.18704,0.54904 -2.09961,-1.16065 -0.44267,-0.82934 -1.64926,-3.06121 -2.68098,-4.95939 -1.03173,-1.89819 -1.87585,-3.46829 -1.87585,-3.48919 0,-0.10079 5.75921,-5.76248 5.89111,-5.79138 z m -12.0866,4.87878 0.71675,0.12298 c 1.88568,0.32442 4.91844,0.93414 4.97334,0.99994 0.0648,0.0776 3.20856,5.89824 4.53875,8.40311 0.42883,0.80751 0.77979,1.50994 0.77979,1.56114 0,0.0512 -1.488,1.76402 -3.30677,3.80597 l -3.30678,3.71244 -0.71261,0.0682 c -0.39193,0.0376 -0.95327,0.0955 -1.24747,0.12867 -0.47873,0.054 -0.54989,0.0362 -0.678,-0.17053 -0.0787,-0.12705 -1.01943,-1.91294 -2.09031,-3.96875 -1.87546,-3.60044 -5.03798,-9.58335 -5.68544,-10.75593 l -0.31264,-0.56637 0.40049,-0.76275 0.40101,-0.76223 2.76469,-0.90795 z m -26.62886,0.10645 c 0.15648,0.004 0.32174,0.0436 0.51159,0.11575 0.23684,0.09 1.86859,1.60561 7.37681,6.85127 0.90117,0.85824 1.65257,1.6443 1.66967,1.74666 0.0415,0.24848 -1.08681,6.99409 -1.18391,7.07709 -0.0417,0.0357 -2.84086,0.85561 -6.22029,1.82211 -3.37942,0.96649 -6.19086,1.75486 -6.24716,1.75286 -0.0773,-0.004 -0.82442,-0.35753 -0.93948,-0.44493 -0.01,-0.008 -0.55206,-2.43285 -1.20458,-5.38934 -0.65252,-2.9565 -1.23156,-5.56866 -1.28726,-5.80481 -0.0557,-0.23616 -0.1018,-0.51915 -0.1018,-0.6289 0,-0.21535 3.56764,-3.77646 6.56394,-6.55206 0.41766,-0.38688 0.71821,-0.55402 1.06247,-0.5457 z m 19.88509,3.68608 c 0.0624,0.001 0.0933,0.0346 0.12299,0.091 0.0524,0.0993 1.31432,2.48479 2.80448,5.30097 4.39293,8.30191 5.14202,9.78713 5.02708,9.96941 -0.0554,0.0878 -0.26648,0.29365 -0.4687,0.45734 -0.40721,0.32956 -0.57511,0.37431 -7.552,2.0128 -2.16847,0.50926 -4.1964,0.98585 -4.50618,1.05885 -0.96248,0.22699 -1.17072,0.10846 -2.22467,-1.26142 -2.26056,-2.93817 -3.91676,-5.1193 -4.01785,-5.29115 -0.0838,-0.14243 0.0336,-1.03395 0.48938,-3.72019 l 0.59945,-3.53312 0.57671,-0.32453 c 0.31719,-0.17864 2.08717,-1.11744 3.93361,-2.08617 1.84643,-0.96873 3.78186,-1.98689 4.30051,-2.2624 0.56173,-0.29839 0.79598,-0.41363 0.91519,-0.41134 z m -11.2758,12.64212 c 0.006,0.0112 0.90561,1.19561 1.99988,2.63188 1.09427,1.43625 2.18892,2.87586 2.43241,3.19877 l 0.44287,0.58705 -0.69195,1.0511 c -1.79297,2.7257 -4.63085,7.08802 -5.83014,8.96121 -0.72973,1.13979 -1.37307,2.06954 -1.42937,2.06654 -0.0563,-0.003 -1.36562,-0.61314 -2.90938,-1.35548 -1.9114,-0.91912 -2.8327,-1.41496 -2.8882,-1.55442 -0.0448,-0.11266 -0.49621,-1.61061 -1.00304,-3.32848 -0.50684,-1.71787 -1.29092,-4.36691 -1.74253,-5.88647 -0.45161,-1.51955 -0.78784,-2.79151 -0.74724,-2.82721 0.0406,-0.0356 0.25839,-0.11178 0.48369,-0.16898 0.51286,-0.13037 5.34337,-1.50743 9.0594,-2.58228 1.54707,-0.44749 2.8176,-0.80473 2.8236,-0.79323 z m 22.52524,2.71663 1.84382,1.77199 c 1.01383,0.97457 2.92487,2.82138 4.24728,4.10414 l 2.40451,2.33216 -0.4899,2.38176 c -0.26947,1.31006 -0.72907,3.50889 -1.02164,4.88601 l -0.53227,2.50372 -2.50889,1.50999 c -1.37994,0.83036 -2.57838,1.51057 -2.66288,1.51257 -0.10908,0.002 -4.95787,-4.19823 -5.68028,-4.92063 -0.0303,-0.0304 -0.009,-0.97299 0.0475,-2.09445 0.0566,-1.12146 0.21854,-4.45858 0.35967,-7.41557 l 0.25632,-5.37641 0.51625,-0.47284 c 0.5578,-0.5113 0.58339,-0.51806 2.4014,-0.65888 z m -4.33875,1.43971 c 0.0355,0.0346 0.0255,0.82352 -0.0222,1.75286 -0.0476,0.92934 -0.20506,4.15448 -0.35037,7.16752 -0.14532,3.01305 -0.29671,5.5059 -0.33641,5.5392 -0.0397,0.0334 -1.33981,0.16294 -2.88872,0.28784 -1.54891,0.12489 -2.96166,0.25185 -3.13986,0.28215 -0.2489,0.0425 -0.34796,0.0104 -0.42736,-0.13798 -0.22332,-0.41729 -4.52069,-11.89539 -4.52169,-12.07833 -4.8e-4,-0.0643 0.10273,-0.1406 0.22945,-0.1695 0.9018,-0.20548 8.15095,-1.92159 9.60044,-2.27273 0.98566,-0.23876 1.82114,-0.40563 1.85674,-0.37103 z m -12.67416,2.63446 c 0.0213,2.9e-4 0.0428,0.004 0.0651,0.009 0.14081,0.0328 0.26223,0.0653 0.26923,0.0713 0.007,0.006 0.80878,2.13078 1.78129,4.72167 0.97253,2.59088 2.01513,5.36705 2.31665,6.16914 0.30153,0.8021 0.54829,1.49646 0.54829,1.54306 0,0.0467 -1.50181,1.37188 -3.33726,2.94504 -1.83543,1.57315 -3.36766,2.86886 -3.40496,2.87786 -0.0373,0.01 -0.87093,-0.3129 -1.85209,-0.71676 l -1.78387,-0.73432 -1.35909,-2.38487 -1.3596,-2.38486 1.49551,-2.32596 c 1.87928,-2.92321 3.24754,-5.02427 5.02967,-7.72201 1.17753,-1.78253 1.38558,-2.0709 1.59112,-2.06809 z m -14.57586,9.47642 1.50895,0.72296 c 0.82981,0.39761 2.17094,1.03608 2.9807,1.41903 l 1.47226,0.69608 1.1219,1.9787 c 0.61694,1.08806 1.20842,2.14548 1.31413,2.34972 l 0.19223,0.37104 -0.84077,0.70125 c -0.92388,0.77075 -3.994,3.43335 -6.03891,5.2374 -0.71876,0.63409 -1.31778,1.15022 -1.33118,1.14722 -0.0135,-0.003 -0.83077,-0.29462 -1.81643,-0.64854 -0.98567,-0.35392 -2.7366,-0.98126 -3.89124,-1.39423 -1.15464,-0.41299 -2.12946,-0.778 -2.16576,-0.8108 -0.0804,-0.0724 -1.36356,-6.65533 -1.30586,-6.69933 0.0382,-0.0291 1.2643,-0.73592 6.62234,-3.81786 z m 26.76684,2.89078 0.36277,0.31833 c 1.63737,1.43602 4.91432,4.37875 5.1015,4.58112 l 0.23254,0.25114 -0.46715,2.60243 c -0.25705,1.43138 -0.50022,2.68011 -0.54002,2.77451 -0.0398,0.0944 -1.76762,1.44209 -3.83956,2.99516 -2.07195,1.55307 -3.79988,2.82147 -3.84008,2.81947 -0.0402,-0.003 -1.70931,-0.73532 -3.70881,-1.62832 l -3.63544,-1.62368 -0.2837,-0.54777 c -0.15625,-0.30132 -0.87684,-1.80007 -1.60094,-3.33003 l -1.3162,-2.78174 0.37156,-0.35398 c 0.43056,-0.41004 5.39532,-4.67957 6.00428,-5.16351 l 0.40928,-0.32556 2.45773,-0.21394 c 1.35177,-0.11767 2.87063,-0.24953 3.37499,-0.29353 z m 11.52281,2.01694 1.87276,0.82062 c 1.02982,0.45115 2.33322,1.02309 2.89646,1.27124 0.56323,0.24814 1.39272,0.60772 1.8433,0.79892 l 0.81907,0.34726 0.0868,5.14801 c 0.0724,4.27556 0.0638,5.16918 -0.0512,5.27616 -0.0764,0.071 -1.22572,0.75088 -2.55488,1.51102 l -2.41743,1.38234 -1.93528,-1.74097 c -1.06439,-0.95757 -3.01826,-2.71199 -4.34185,-3.89847 -1.32361,-1.18649 -2.41995,-2.23186 -2.43655,-2.32286 -0.0166,-0.0911 0.18155,-1.33781 0.44028,-2.77037 0.34829,-1.92828 0.51542,-2.63955 0.64441,-2.74041 0.0958,-0.0749 1.29017,-0.79906 2.6541,-1.6092 z m -29.35893,3.03082 0.52555,0.1819 c 0.28884,0.0999 1.14294,0.44134 1.89859,0.75913 l 1.37408,0.57774 1.56373,3.31763 1.56424,3.31762 -1.13429,1.23972 c -0.62387,0.68172 -2.52189,2.78234 -4.21783,4.66793 -1.69594,1.8856 -3.31403,3.66943 -3.59565,3.9641 l -0.51211,0.53537 -2.25155,-1.1684 c -1.23823,-0.64272 -2.26213,-1.20557 -2.27583,-1.25057 -0.0137,-0.0449 -0.25592,-1.94808 -0.53795,-4.2292 -0.28201,-2.28111 -0.5329,-4.29503 -0.5581,-4.4757 -0.0443,-0.31836 0.0478,-0.41039 2.99361,-2.97811 1.6717,-1.45718 3.51738,-3.05659 4.10156,-3.55431 z m 22.69009,6.17843 c 0.1378,-0.01 0.35611,0.16016 0.95188,0.69918 0.47775,0.43227 1.69386,1.52298 2.70268,2.42415 4.8449,4.32796 5.18815,4.65946 5.12475,4.95163 -0.0324,0.14916 -0.23849,1.25383 -0.45785,2.45515 -0.21938,1.20132 -0.41457,2.1961 -0.43357,2.2102 -0.019,0.0142 -0.44909,0.24768 -0.95601,0.51883 -0.50691,0.27116 -2.18886,1.17066 -3.73776,1.99885 -1.5489,0.82819 -2.95434,1.57666 -3.12332,1.66346 -0.28864,0.14818 -0.32579,0.14391 -0.61444,-0.0718 -0.16897,-0.1263 -1.50543,-1.09564 -2.96984,-2.15387 -1.46442,-1.05824 -2.76102,-2.0212 -2.88096,-2.13992 -0.191,-0.18901 -0.26543,-0.58507 -0.601,-3.18586 -0.21074,-1.63339 -0.40533,-3.15505 -0.43253,-3.3817 l -0.0496,-0.41186 3.61063,-2.71147 c 1.98596,-1.49122 3.68745,-2.76576 3.78065,-2.83186 0.0268,-0.019 0.0545,-0.0308 0.0863,-0.0331 z m -15.29467,2.45773 c 0.001,-1.5e-4 0.002,0 0.004,0 0.10599,0 7.22746,3.13604 7.28276,3.20704 0.008,0.0103 0.21061,1.55103 0.45011,3.42408 l 0.43563,3.406 -0.26459,0.20774 c -0.34483,0.27125 -3.74596,3.15431 -5.95777,5.05033 l -1.74046,1.49242 -2.04846,-0.0165 c -3.21176,-0.0258 -4.88042,-0.11353 -5.19193,-0.27285 -0.15209,-0.0778 -0.31924,-0.26164 -0.37104,-0.40876 -0.0519,-0.14714 -0.54304,-1.50308 -1.09192,-3.01325 -0.99723,-2.74376 -0.99786,-2.74595 -0.79892,-2.96985 2.7032,-3.04235 7.66881,-8.54023 8.50336,-9.41493 0.35708,-0.37425 0.70861,-0.68192 0.78962,-0.69143 z m -14.74226,8.05533 2.36937,1.20664 2.36936,1.20665 0.97979,2.72799 c 0.53871,1.50032 1.00578,2.843 1.03818,2.9838 0.0532,0.23075 -0.0794,0.36204 -1.34462,1.33119 -1.66805,1.27774 -5.04111,3.93466 -7.83518,6.1712 -1.10749,0.88651 -2.05252,1.60903 -2.09962,1.60403 -0.0471,-0.004 -1.27343,-0.75287 -2.72541,-1.66398 l -2.64015,-1.65675 0.0537,-0.35811 c 0.0296,-0.19712 0.21603,-1.44159 0.41393,-2.76521 1.33806,-8.94932 1.1939,-8.22805 1.6676,-8.34057 0.15259,-0.0362 1.95944,-0.60155 4.01526,-1.25626 z m 23.24096,2.51457 c 0.0616,0.0162 1.47949,1.01992 3.15123,2.23087 l 3.03961,2.20194 0.005,3.6406 0.005,3.64112 -3.58479,1.70997 h -0.002 c -1.97155,0.94045 -3.61876,1.70836 -3.66076,1.70636 -0.042,-0.002 -0.69845,-0.79219 -1.45882,-1.75648 -0.76037,-0.96429 -2.26926,-2.86369 -3.35277,-4.22093 -1.0835,-1.35723 -1.97037,-2.4987 -1.97094,-2.5368 -7.3e-4,-0.0381 1.25415,-1.14601 2.78898,-2.46186 4.10646,-3.52061 4.9158,-4.18749 5.04,-4.15479 z m 14.9009,0.20929 1.52136,1.65055 c 3.07019,3.33212 3.39572,3.70233 3.39772,3.85299 9.3e-4,0.0845 0.0921,0.84497 0.20206,1.68982 0.11001,0.84486 0.31698,2.5498 0.46043,3.78892 0.14344,1.23911 0.28123,2.37242 0.30593,2.51819 0.0405,0.23864 -0.0718,0.34543 -1.1281,1.07487 -0.6453,0.44562 -2.01406,1.39601 -3.04116,2.11201 h -5.1e-4 c -1.02711,0.716 -1.89045,1.30387 -1.91875,1.30587 -0.0283,0.002 -0.76572,-0.57425 -1.63866,-1.28106 -0.87292,-0.7068 -2.65776,-2.14701 -3.96617,-3.20032 l -2.37866,-1.91513 -10e-4,-1.74098 c -9e-4,-0.9575 0.0284,-2.60077 0.0651,-3.65146 l 0.0667,-1.90996 0.93121,-0.48989 c 0.51227,-0.26946 2.32464,-1.23566 4.02714,-2.14716 z m -30.9733,6.03064 0.30386,0.17518 c 0.18604,0.10737 0.32952,0.29318 0.37052,0.47904 0.30432,1.37897 1.24975,5.90574 1.7849,8.54729 0.35944,1.7742 0.81866,4.03033 1.02061,5.01364 0.20194,0.98332 0.35386,1.83738 0.33796,1.89808 -0.016,0.0607 -0.91925,0.93852 -2.00763,1.95027 -1.08838,1.01176 -2.03341,1.85112 -2.09961,1.86552 -0.11204,0.0244 -9.7975,-5.56573 -10.00817,-5.77639 -0.0525,-0.0525 -0.30774,-1.24333 -0.56689,-2.64584 -0.39671,-2.14731 -0.44838,-2.56723 -0.32815,-2.65823 0.0785,-0.0595 1.47672,-1.17567 3.1073,-2.48047 1.6306,-1.3048 4.11716,-3.27143 5.52525,-4.37028 z m 1.21956,0.42065 c 0.0691,-0.0691 6.45153,0.17994 6.51743,0.25424 0.15505,0.17481 3.94145,4.92025 5.3542,6.71019 l 1.51619,1.92081 -0.78497,1.97042 c -0.43192,1.0836 -0.90195,2.26992 -1.04438,2.63602 -0.14243,0.36611 -0.28993,0.70007 -0.32763,0.74207 -0.0378,0.042 -1.72558,0.32918 -3.75067,0.63872 -2.02509,0.30954 -3.82463,0.58732 -3.99924,0.61702 l -0.31781,0.0537 -0.31626,-1.56372 c -0.39173,-1.93505 -2.52006,-12.25908 -2.728,-13.23331 -0.0817,-0.38284 -0.1345,-0.71239 -0.11989,-0.74465 l 5.2e-4,-5.2e-4 5.1e-4,-5.2e-4 z" /><path
       id="path87"
       style="fill:#dbdbdb;fill-opacity:1;stroke-width:0.290287"
       d="m -207.37029,71.157931 c 0.026,0.628896 0.0837,1.597567 0.17053,3.0887 l 0.18449,3.174483 -3.33882,3.302641 c -1.83641,1.816438 -3.37534,3.302641 -3.41994,3.302641 -0.0445,0 -1.00633,-0.391999 -2.13734,-0.870748 -0.20743,-0.08781 -0.40957,-0.172629 -0.60151,-0.252698 v 0.590662 c 0.15491,0.06572 0.32491,0.137711 0.51108,0.216007 l 2.09909,0.882634 0.4284,2.353861 c 0.23561,1.294675 0.62347,3.487162 0.86145,4.872054 l 0.43253,2.518193 -1.00562,1.408182 c -0.55323,0.774722 -1.10207,1.445449 -1.21957,1.490349 -0.1175,0.04491 -1.00797,0.305573 -1.97869,0.579293 -0.0439,0.01238 -0.0869,0.02439 -0.12867,0.03617 v 0.553455 c 1.65269,-0.477287 2.32834,-0.620729 2.4169,-0.5271 0.10934,0.11556 2.17588,3.43898 3.26337,5.24826 0.23698,0.39427 1.16004,1.91522 2.05156,3.37964 1.96745,3.23168 2.40553,3.97023 2.40553,4.05763 0,0.0369 -1.59588,1.60197 -3.54655,3.47783 l -3.54707,3.41064 -2.2133,-0.44183 c -0.28965,-0.0579 -0.57037,-0.11449 -0.83044,-0.16743 v 0.55655 l 0.63407,0.12764 2.27428,0.45786 0.19378,0.91725 c 0.32548,1.53904 2.32999,10.63453 2.38229,10.80968 0.0395,0.13225 -0.64823,0.42931 -3.53777,1.5291 -0.82346,0.31342 -1.45785,0.55516 -1.94665,0.74518 v 0.58239 c 1.68185,-0.63375 5.27116,-2.00808 5.58002,-2.1394 0.14417,-0.0613 0.34478,-0.0168 0.67748,0.15038 0.38678,0.19432 0.49159,0.30826 0.57619,0.62683 0.12723,0.4791 2.09163,7.1904 2.84169,9.70845 0.30199,1.01382 0.56409,1.92392 0.58239,2.02262 0.0259,0.13974 -0.93772,0.74181 -4.35994,2.72541 l -4.39301,2.54662 -1.34152,-0.60927 c -0.056,-0.0254 -0.11068,-0.0505 -0.1633,-0.0744 v 0.60048 l 1.26504,0.57154 0.13074,0.61443 c 0.17531,0.82262 1.16323,5.98312 1.16323,6.07612 0,0.0404 -0.94431,1.38569 -2.09858,2.98948 -0.16622,0.23096 -0.3194,0.4437 -0.46043,0.64027 v 0.93121 c 0.97225,-1.35039 2.09178,-2.91042 2.43809,-3.40186 0.53908,-0.76504 0.40375,-0.76011 2.28513,-0.0791 0.69662,0.25218 2.32656,0.83426 3.622,1.29346 1.29545,0.45922 2.39293,0.87089 2.43913,0.91519 0.11693,0.11242 1.21118,8.94297 1.11828,9.02477 -0.0615,0.0543 -5.31043,1.73286 -7.50032,2.39882 l -0.56327,0.17156 -2.68769,-1.54512 c -0.40926,-0.23524 -0.80009,-0.45879 -1.15135,-0.65888 v 0.61237 c 2.49448,1.41592 3.48092,2.04078 3.48092,2.19832 0,0.1022 -0.18305,1.37452 -0.40669,2.82721 -0.47125,3.061 -1.08891,7.14195 -1.18391,7.82071 l -0.0656,0.46819 -1.3994,0.17622 c -0.15276,0.0192 -0.29428,0.0372 -0.42529,0.0537 v 0.5395 c 0.20425,-0.0258 0.4175,-0.0526 0.62632,-0.0785 l 1.39526,-0.17364 2.75229,1.71618 c 1.51379,0.94379 2.75772,1.72264 2.76572,1.73064 0.0868,0.0927 0.92295,5.16703 0.86765,5.26583 -0.0415,0.0741 -1.36294,1.43457 -2.93626,3.02307 -1.10545,1.11613 -2.20528,2.23173 -2.87838,2.91869 h 0.72813 c 0.50033,-0.49696 1.18202,-1.18851 2.12751,-2.15078 l 3.35019,-3.41012 0.55397,0.30747 c 0.30466,0.16897 2.58631,1.48243 5.06997,2.91869 l 4.03748,2.33474 h 1.19063 l 1.86293,-1.72031 c 1.12832,-1.04199 2.12916,-1.92711 2.22416,-1.96681 0.20382,-0.0851 7.50197,-1.22632 7.9685,-1.24592 0.29301,-0.0123 0.43089,0.12151 1.66192,1.60662 0.7385,0.89092 1.87907,2.2846 2.53473,3.09749 0.065,0.0805 0.12668,0.15688 0.185,0.22893 h 0.70383 l -0.0455,-0.0563 c -0.5769,-0.71812 -1.79732,-2.20867 -2.71197,-3.31246 l -1.66295,-2.00711 0.9989,-2.49908 c 0.54957,-1.37448 1.0574,-2.60583 1.1281,-2.73626 0.0707,-0.13043 0.32115,-0.32071 0.55656,-0.42272 0.23541,-0.10207 1.85479,-0.86433 3.59874,-1.69395 2.72641,-1.29693 3.19833,-1.49091 3.36724,-1.38544 0.21822,0.13629 5.1252,4.10081 6.98769,5.64565 l 0.82734,0.68626 -0.13178,1.21284 c -0.0725,0.66703 -0.18813,1.75324 -0.25683,2.41381 -0.0686,0.66056 -0.15115,1.23846 -0.18345,1.28416 -0.0323,0.0457 -0.6579,0.51816 -1.3901,1.05007 -0.6532,0.47451 -1.71083,1.2485 -2.48822,1.82056 h 0.91416 c 1.8625,-1.37672 2.7436,-2.01904 2.98276,-2.17506 l 0.28215,-0.18397 1.25419,1.05678 c 0.46608,0.39269 1.05852,0.89178 1.54564,1.30225 h 0.82631 l -0.94775,-0.79892 c -1.9234,-1.62114 -2.36981,-2.04474 -2.37039,-2.25258 -4.8e-4,-0.17777 0.45146,-4.34349 0.50746,-4.67775 0.002,-0.01 0.52132,-0.37435 1.15497,-0.81028 0.63364,-0.43592 2.03443,-1.40803 3.11298,-2.16008 l 1.96113,-1.36736 1.48156,0.33383 v -0.56482 c -0.72759,-0.17187 -1.19989,-0.28987 -1.21646,-0.30644 -0.0989,-0.0989 -1.06511,-8.20285 -0.98651,-8.27495 0.0442,-0.0406 0.96429,-0.53031 2.20297,-1.17926 v -0.60358 c -1.4709,0.75774 -2.48724,1.27592 -2.50062,1.27383 -0.0191,-0.003 -0.3308,-0.33746 -0.69247,-0.74259 -0.36167,-0.40514 -1.4504,-1.59696 -2.41949,-2.64842 -1.42631,-1.54753 -1.75354,-1.95694 -1.71824,-2.15026 0.024,-0.13134 0.21987,-1.22193 0.43512,-2.42362 0.22342,-1.24717 0.45156,-2.24339 0.53226,-2.32079 0.0777,-0.0746 1.24705,-0.76578 2.59881,-1.53634 l 2.45825,-1.40095 0.56275,0.11937 c 0.12319,0.0262 0.38607,0.085 0.74363,0.16589 v -0.52814 c -0.24926,-0.0591 -0.46906,-0.11226 -0.65009,-0.15761 l -0.36742,-0.092 -0.0687,-5.13716 c -0.0373,-2.82551 -0.0505,-5.15534 -0.0289,-5.17694 0.0129,-0.0129 0.45535,-0.19212 1.11518,-0.45476 v -0.59221 c -0.81878,0.30565 -1.37225,0.49994 -1.42937,0.49713 -0.10164,-0.004 -1.68245,-0.67088 -3.51297,-1.48105 -1.83052,-0.81016 -3.4547,-1.51836 -3.60959,-1.57406 -0.15489,-0.0557 -0.28164,-0.14395 -0.28164,-0.19585 0,-0.0519 0.27844,-1.40187 0.61908,-3.00034 0.34063,-1.59847 0.78286,-3.71275 0.98237,-4.69842 0.19953,-0.98565 0.39425,-1.82597 0.43305,-1.86707 0.0728,-0.0771 0.42708,-0.15868 6.3345,-1.45779 l 0.46457,-0.10232 v -0.54312 c -0.85568,0.18661 -1.90693,0.41729 -2.95796,0.64957 -2.14725,0.47454 -3.93088,0.863 -3.96358,0.863 -0.0326,0 -1.3414,-1.23324 -2.90835,-2.73989 -1.56695,-1.50666 -3.46329,-3.32754 -4.21422,-4.04678 -1.22148,-1.17062 -1.35058,-1.3263 -1.22628,-1.48414 0.0764,-0.097 1.40596,-1.60131 2.95486,-3.34295 1.5489,-1.74162 2.9599,-3.33053 3.13521,-3.53105 0.27981,-0.32003 0.46099,-0.40295 1.48466,-0.68006 l 1.16634,-0.31575 1.48467,0.38086 c 0.81669,0.20958 2.13015,0.55101 2.91868,0.75861 0.63202,0.16638 1.49357,0.39304 2.12597,0.55914 v -0.54209 c -0.20592,-0.054 -0.42145,-0.11119 -0.64131,-0.17001 -1.21095,-0.32404 -2.93524,-0.78039 -3.83232,-1.0139 -0.89709,-0.2335 -1.64683,-0.43967 -1.66553,-0.45837 -0.0313,-0.0313 1.21099,-3.71493 3.52795,-10.46034 l 0.91467,-2.66237 1.61437,-0.34985 c 0.0279,-0.006 0.0552,-0.0117 0.0822,-0.0176 v -0.54674 c -0.0576,0.0129 -0.11611,0.0259 -0.17518,0.0388 -0.78526,0.17164 -1.54538,0.30944 -1.68931,0.30644 -0.28595,-0.006 -6.04383,-1.99817 -6.1867,-2.14095 -0.0927,-0.0927 -0.33251,-0.85103 -1.80764,-5.721619 l -0.90951,-3.003434 0.65474,-0.938961 c 1.96462,-2.817459 2.90074,-4.112776 3.02979,-4.191476 0.0991,-0.06041 1.73627,0.672495 5.21364,2.333191 0.65878,0.314613 1.28989,0.616085 1.87017,0.894003 v -0.592212 c -0.12684,-0.06076 -0.2551,-0.122222 -0.38499,-0.184485 -2.14029,-1.025966 -4.47465,-2.138455 -5.18728,-2.471684 -1.26139,-0.589805 -1.29737,-0.615547 -1.34927,-0.970483 -0.0294,-0.200531 -0.18081,-1.704625 -0.33642,-3.342949 l -0.28267,-2.979146 0.51832,-0.859896 0.51831,-0.859896 1.97301,-1.038179 1.97301,-1.038697 0.77928,0.234095 c 0.28733,0.08635 0.98501,0.290364 1.7787,0.520381 v -0.555521 c -1.25572,-0.361075 -2.22209,-0.645957 -2.23397,-0.658875 -0.0134,-0.01458 0.52257,-2.192284 1.19114,-4.839498 0.39734,-1.573271 0.7523,-2.99684 0.97513,-3.907771 h -0.55604 c -0.22749,0.902015 -0.62199,2.470801 -1.04799,4.169771 l -1.14412,4.563546 -0.78186,0.415995 c -0.42989,0.228764 -1.27409,0.677192 -1.87638,0.996838 l -1.09502,0.58136 -0.90227,-1.150317 c -2.84006,-3.622744 -5.78208,-7.329433 -7.0807,-8.920903 -0.20518,-0.251449 -0.38337,-0.468627 -0.53899,-0.65629 h -0.67955 c 0.26206,0.327703 0.56871,0.708398 0.89452,1.109493 0.92935,1.144078 2.32615,2.887149 3.10369,3.873148 1.5705,1.99159 4.4566,5.683433 4.65036,5.948474 0.1043,0.142661 0.0468,0.294314 -0.3514,0.926042 -0.26192,0.415488 -0.48574,0.769622 -0.49764,0.787032 -0.0118,0.01742 -0.66024,0.09903 -1.44074,0.181384 -0.78051,0.08236 -2.6865,0.286311 -4.2354,0.453203 -4.42157,0.476415 -8.86037,0.920874 -9.1953,0.920874 -0.26387,0 -0.4151,-0.136643 -1.10433,-0.998389 -0.43922,-0.549157 -1.77246,-2.196859 -2.96261,-3.661275 l -2.16421,-2.66237 0.38757,-3.635437 c 0.16838,-1.57952 0.27698,-2.592525 0.33228,-3.242179 h -0.54363 c -0.0626,0.608403 -0.16631,1.613399 -0.26665,2.576586 -0.13496,1.295445 -0.2763,2.723895 -0.3142,3.174484 -0.0378,0.450592 -0.10707,0.893152 -0.15347,0.983402 -0.0464,0.09026 -0.67364,0.502879 -1.39423,0.91674 -0.72059,0.413865 -2.67437,1.544472 -4.34186,2.512508 -1.6675,0.968037 -3.12364,1.80876 -3.23546,1.86862 -0.16272,0.08708 -0.2788,0.05763 -0.58188,-0.148311 -0.20832,-0.141558 -2.25509,-1.433547 -4.54804,-2.871143 -2.29295,-1.437596 -4.20634,-2.649319 -4.25194,-2.692859 -0.0498,-0.04755 -0.32542,-4.166388 -0.43459,-6.320027 z m 0.69195,6.805786 2.02055,1.270206 c 1.11123,0.698738 3.18374,1.99951 4.60592,2.890263 l 2.58589,1.61954 v 4.842598 4.843115 l -0.84491,0.06098 c -0.46467,0.03373 -3.31034,0.175414 -6.32365,0.31471 -3.01333,0.139298 -5.81368,0.278975 -6.22287,0.310575 -0.55778,0.04305 -0.75542,0.02435 -0.78962,-0.07493 -0.025,-0.07283 -0.42149,-2.245865 -0.8816,-4.829162 l -0.83664,-4.696871 2.95692,-2.964677 c 1.62654,-1.630605 3.13161,-3.104846 3.34399,-3.275769 z m 18.92081,0.592728 c 0.007,3.17e-4 0.0123,0.0021 0.015,0.0052 0.59392,0.661541 5.73971,7.151831 5.73971,7.239351 -10e-6,0.06595 -0.54508,1.935044 -1.2113,4.153752 l -1.2113,4.033862 -4.2788,1.828829 h -0.002 c -2.35354,1.005822 -4.31028,1.828829 -4.34858,1.828829 -0.0383,0 -0.93015,-0.910213 -1.98179,-2.022615 l -1.91203,-2.022099 -0.003,-4.939234 -0.003,-4.939233 0.40101,-0.204639 c 0.38371,-0.195761 4.64603,-2.652938 7.41608,-4.275191 0.67791,-0.397004 1.27176,-0.691524 1.37925,-0.68678 z m 20.9796,5.876644 c 0.18812,-0.004 0.28384,0.01227 0.29559,0.04909 0.0188,0.05895 0.16963,1.534739 0.33538,3.279386 l 0.30127,3.1719 -0.99271,1.385445 c -0.54611,0.761759 -1.37717,1.937908 -1.84639,2.613794 -0.46922,0.67588 -0.88283,1.262813 -0.91933,1.304313 -0.0364,0.04151 -1.26257,0.35179 -2.7249,0.68988 -1.46233,0.33809 -2.82199,0.660536 -3.02152,0.716236 -0.19955,0.05568 -0.91154,0.217111 -1.58233,0.359151 -0.67079,0.14204 -1.22873,0.258382 -1.24023,0.258382 -0.0113,0 -0.88921,-0.629511 -1.95079,-1.398881 -1.06158,-0.769362 -2.31432,-1.675601 -2.78433,-2.013831 -0.47,-0.33823 -0.87757,-0.674174 -0.90537,-0.746724 -0.0278,-0.07255 0.28072,-1.228498 0.68575,-2.568836 0.63376,-2.09723 1.43928,-4.790283 1.60972,-5.3821 0.0647,-0.224713 0.116,-0.235165 2.17816,-0.431498 2.38655,-0.227217 10.38127,-1.054401 11.71092,-1.211813 0.38209,-0.04524 0.66298,-0.06988 0.85111,-0.0739 z m -30.93765,9.59683 c 0.39539,0.0036 0.49145,0.0425 0.56689,0.11989 0.0902,0.09252 0.95443,1.00666 1.9203,2.0314 1.72872,1.834082 1.75596,1.870462 1.75596,2.317172 0,0.98542 0.0883,0.87672 -3.62148,4.465879 -1.92258,1.86008 -4.44038,4.30345 -5.59501,5.42964 l -2.0991,2.04742 -0.4842,0.003 c -0.39261,0.002 -0.51139,-0.041 -0.62891,-0.22789 -0.0797,-0.12672 -1.26229,-2.0734 -2.62826,-4.32635 -1.36597,-2.25295 -3.07618,-5.05363 -3.80029,-6.223395 -0.72412,-1.16977 -1.31671,-2.168403 -1.31671,-2.219503 0,-0.05114 0.42468,-0.695622 0.94361,-1.431954 0.73355,-1.04084 0.99488,-1.338936 1.17409,-1.338936 0.25174,0 7.04685,-0.328389 11.45098,-0.553455 1.27197,-0.065 1.96673,-0.09665 2.36213,-0.09302 z m 13.46895,0.577226 c 0.0897,0.02307 1.41492,0.951215 2.94452,2.062407 2.1626,1.57103 2.78067,2.06899 2.77967,2.24069 -7.5e-4,0.12144 -0.0925,2.571088 -0.2036,5.443598 -0.11115,2.87249 -0.20273,5.39273 -0.20361,5.60017 l -0.001,0.37724 -2.67116,0.87695 c -1.4692,0.48253 -2.70842,0.87746 -2.75332,0.87746 -0.0449,0 -0.99465,-1.34769 -2.11046,-2.99516 -1.11581,-1.64747 -3.04088,-4.44491 -4.27829,-6.21616 l -2.24999,-3.220474 0.0207,-0.568441 c 0.0113,-0.31272 0.0429,-0.643006 0.0703,-0.733806 0.0282,-0.09342 0.57137,-0.391876 1.25057,-0.687296 4.24786,-1.847602 7.2653,-3.093278 7.40575,-3.057178 z m 14.41824,2.322339 c 0.14386,0 0.28809,0.361567 0.72605,1.817977 0.30063,0.99974 0.88629,2.923419 1.30173,4.275189 l 0.75551,2.45773 -2.99827,2.93936 c -1.6492,1.61657 -3.02174,2.93774 -3.04994,2.93574 -0.19199,-0.0128 -5.25798,-1.01215 -5.28908,-1.04335 -0.0415,-0.0415 0.38433,-11.465244 0.42943,-11.520744 0.0145,-0.01789 1.2173,-0.302676 2.67322,-0.633036 1.45592,-0.33036 3.23774,-0.741923 3.95945,-0.914673 0.72173,-0.17275 1.3931,-0.314193 1.4919,-0.314193 z m -23.53242,3.158976 0.18139,0.23823 c 0.62845,0.82683 4.92771,7.06483 6.95099,10.08569 l 1.38287,2.06499 -0.33694,0.73019 c -0.39486,0.85666 0.29697,0.42526 -5.89989,3.67781 -2.37467,1.24638 -4.33319,2.26388 -4.35219,2.26188 -0.0191,-0.003 -0.6336,-0.58059 -1.36581,-1.28416 -0.73221,-0.70356 -2.70239,-2.57538 -4.37803,-4.15995 -1.67562,-1.58456 -3.04632,-2.91426 -3.04632,-2.95486 0,-0.0656 4.80744,-4.79388 9.24646,-9.0935 z m 26.67073,5.87096 c 0.15764,-0.0345 5.77099,1.88661 5.91746,2.0252 0.0457,0.0432 -0.47605,1.70941 -1.15961,3.70262 -0.68358,1.99321 -1.68904,4.93585 -2.23398,6.53914 l -0.99063,2.91506 -0.76792,0.21808 c -1.4406,0.40885 -1.18756,0.54903 -2.10013,-1.16066 -0.44267,-0.82934 -1.64873,-3.0612 -2.68045,-4.95938 -1.03173,-1.89819 -1.87586,-3.4683 -1.87586,-3.4892 0,-0.10079 5.75922,-5.76196 5.89112,-5.79086 z m -12.0866,4.87826 0.71675,0.12351 c 1.88568,0.32442 4.91792,0.93362 4.97282,0.99942 0.0648,0.0776 3.20907,5.89823 4.53926,8.4031 0.42883,0.80751 0.7798,1.51046 0.7798,1.56166 0,0.0512 -1.48801,1.76351 -3.30678,3.80546 l -3.30677,3.71295 -0.71262,0.0682 c -0.39193,0.0376 -0.95379,0.0955 -1.24799,0.12868 -0.47873,0.054 -0.54988,0.0357 -0.67799,-0.17105 -0.0787,-0.12705 -1.01892,-1.91294 -2.0898,-3.96875 -1.87546,-3.60044 -5.03798,-9.58336 -5.68544,-10.75594 l -0.31264,-0.56637 0.40049,-0.76223 0.40101,-0.76274 2.76469,-0.90796 z m -26.62939,0.10645 c 0.15648,0.004 0.32227,0.0441 0.51212,0.11627 0.23684,0.09 1.86859,1.60561 7.37681,6.85127 0.90117,0.85824 1.65256,1.64378 1.66966,1.74614 0.0415,0.24848 -1.08732,6.99409 -1.18442,7.07709 -0.0417,0.0357 -2.84086,0.85613 -6.22029,1.82263 -3.37942,0.96649 -6.19035,1.75435 -6.24665,1.75235 -0.0772,-0.004 -0.82442,-0.35754 -0.93948,-0.44494 -0.01,-0.008 -0.55206,-2.43233 -1.20458,-5.38882 -0.65252,-2.9565 -1.23207,-5.56866 -1.28777,-5.80481 -0.0557,-0.23616 -0.10129,-0.51915 -0.10129,-0.6289 0,-0.21535 3.56764,-3.77646 6.56394,-6.55206 0.41766,-0.38688 0.7177,-0.55453 1.06195,-0.54622 z m 19.88509,3.68608 c 0.0625,10e-4 0.0938,0.0346 0.12351,0.0909 0.0524,0.0993 1.31432,2.48479 2.80448,5.30097 4.39293,8.30191 5.14202,9.78714 5.02708,9.96942 -0.0554,0.0878 -0.26648,0.29365 -0.4687,0.45734 -0.40721,0.32956 -0.57562,0.3743 -7.55251,2.01279 -2.16847,0.50926 -4.19589,0.98585 -4.50567,1.05885 -0.96248,0.22699 -1.17072,0.10898 -2.22467,-1.2609 -2.26056,-2.93817 -3.91675,-5.1193 -4.01784,-5.29115 -0.0838,-0.14243 0.0336,-1.03447 0.48937,-3.72071 l 0.59945,-3.5326 0.57671,-0.32504 c 0.31719,-0.17864 2.08717,-1.11745 3.93361,-2.08618 1.84643,-0.96873 3.78134,-1.98637 4.29999,-2.26188 0.56173,-0.29839 0.79599,-0.41415 0.91519,-0.41186 z m -11.27528,12.64264 c 0.006,0.0112 0.90561,1.19561 1.99988,2.63188 1.09427,1.43625 2.18892,2.87535 2.43241,3.19826 l 0.44235,0.58704 -0.69143,1.05162 c -1.79297,2.7257 -4.63084,7.0875 -5.83013,8.96069 -0.72973,1.13979 -1.37307,2.06954 -1.42937,2.06654 -0.0563,-0.003 -1.36563,-0.61313 -2.90939,-1.35547 -1.9114,-0.91912 -2.83269,-1.41497 -2.88819,-1.55443 -0.0448,-0.11266 -0.49621,-1.61061 -1.00304,-3.32848 -0.50684,-1.71787 -1.29092,-4.36638 -1.74253,-5.88594 -0.45161,-1.51955 -0.78784,-2.79204 -0.74724,-2.82774 0.0406,-0.0356 0.25787,-0.11178 0.48317,-0.16898 0.51286,-0.13037 5.34388,-1.50691 9.05991,-2.58176 1.54707,-0.44749 2.8176,-0.80473 2.8236,-0.79323 z m 22.52524,2.71611 1.8433,1.77199 c 1.01383,0.97457 2.92539,2.82138 4.2478,4.10414 l 2.40451,2.33216 -0.48989,2.38228 c -0.26947,1.31006 -0.72959,3.50837 -1.02216,4.88549 l -0.53175,2.50424 -2.50889,1.50947 h -5.2e-4 c -1.37994,0.83036 -2.57787,1.51109 -2.66237,1.51309 -0.10908,0.002 -4.95838,-4.19875 -5.68079,-4.92115 -0.0303,-0.0304 -0.009,-0.97299 0.0481,-2.09445 0.0566,-1.12146 0.21802,-4.45806 0.35915,-7.41505 l 0.25683,-5.37641 0.51573,-0.47284 c 0.5578,-0.5113 0.58391,-0.51857 2.40192,-0.65939 z m -4.33875,1.43971 c 0.0355,0.0346 0.0255,0.82352 -0.0222,1.75286 -0.0476,0.92934 -0.20557,4.155 -0.35088,7.16804 -0.14532,3.01305 -0.29672,5.50538 -0.33642,5.53868 -0.0397,0.0334 -1.33928,0.16294 -2.88819,0.28784 -1.54891,0.12489 -2.96218,0.25237 -3.14038,0.28267 -0.2489,0.0424 -0.34796,0.0104 -0.42736,-0.13798 -0.22332,-0.41729 -4.52069,-11.89539 -4.52169,-12.07833 -4.8e-4,-0.0643 0.10272,-0.1406 0.22944,-0.1695 0.9018,-0.20548 8.15148,-1.92159 9.60097,-2.27273 0.98566,-0.23876 1.82113,-0.40615 1.85673,-0.37155 z m -12.67416,2.63498 c 0.0213,2.9e-4 0.0423,0.004 0.0646,0.009 0.14081,0.0328 0.26224,0.0648 0.26924,0.0708 0.007,0.006 0.80929,2.13079 1.7818,4.72168 0.97253,2.59088 2.01462,5.36704 2.31614,6.16913 0.30153,0.8021 0.54829,1.49698 0.54829,1.54358 0,0.0467 -1.50182,1.37188 -3.33727,2.94504 -1.83543,1.57315 -3.36766,2.86886 -3.40496,2.87786 -0.0373,0.01 -0.8704,-0.31341 -1.85156,-0.71727 l -1.78387,-0.73432 -1.35961,-2.38487 -1.35909,-2.38487 1.495,-2.32544 c 1.87928,-2.92321 3.24805,-5.02427 5.03018,-7.72201 1.17753,-1.78253 1.38558,-2.0709 1.59112,-2.06809 z m -14.57586,9.47591 1.50844,0.72295 c 0.82981,0.39761 2.17145,1.0366 2.98121,1.41955 l 1.47226,0.69609 1.1219,1.97817 c 0.61694,1.08806 1.2079,2.14549 1.31361,2.34973 l 0.19224,0.37155 -0.84026,0.70073 c -0.92388,0.77075 -3.994,3.43336 -6.03891,5.23741 -0.71876,0.63409 -1.31778,1.15073 -1.33118,1.14773 -0.0135,-0.003 -0.83077,-0.29513 -1.81643,-0.64905 -0.98567,-0.35392 -2.73711,-0.98126 -3.89175,-1.39423 -1.15464,-0.41299 -2.12894,-0.77749 -2.16524,-0.81029 -0.0804,-0.0724 -1.36408,-6.65585 -1.30638,-6.69985 0.0382,-0.0291 1.26429,-0.73591 6.62233,-3.81785 z m 26.76633,2.89078 0.36328,0.31833 c 1.63737,1.43602 4.91432,4.37874 5.1015,4.58111 l 0.23255,0.25167 -0.46768,2.60242 c -0.25705,1.43138 -0.4997,2.67959 -0.5395,2.77399 -0.0398,0.0944 -1.76762,1.44261 -3.83956,2.99568 -2.07195,1.55307 -3.79987,2.82095 -3.84007,2.81895 -0.0402,-0.003 -1.70932,-0.73532 -3.70882,-1.62832 l -3.63544,-1.62367 -0.28422,-0.54777 c -0.15625,-0.30132 -0.87632,-1.79956 -1.60042,-3.32952 l -1.31671,-2.78174 0.37207,-0.35398 c 0.43056,-0.41004 5.39481,-4.67957 6.00377,-5.16351 l 0.40979,-0.32556 2.45773,-0.21394 c 1.35177,-0.11767 2.87063,-0.25004 3.37499,-0.29404 z m 11.52333,2.01693 1.87223,0.82062 c 1.02982,0.45115 2.33323,1.02309 2.89647,1.27124 0.56323,0.24814 1.39272,0.60772 1.8433,0.79892 l 0.81958,0.34778 0.0868,5.14749 c 0.0724,4.27556 0.0638,5.1697 -0.0512,5.27668 -0.0761,0.0708 -1.22604,0.75077 -2.5554,1.51102 l -2.41691,1.38183 -1.93528,-1.74098 c -1.06439,-0.95757 -3.01826,-2.71147 -4.34185,-3.89795 -1.32361,-1.18649 -2.41995,-2.23186 -2.43655,-2.32286 -0.0166,-0.0911 0.18104,-1.33781 0.43977,-2.77037 0.34829,-1.92828 0.51593,-2.64006 0.64492,-2.74092 0.0958,-0.0749 1.29017,-0.79907 2.6541,-1.60921 z m -29.35893,3.03134 0.52503,0.18138 c 0.28884,0.0999 1.14346,0.44186 1.89911,0.75965 l 1.37407,0.57774 1.56373,3.31763 1.56373,3.31762 -1.1343,1.2392 c -0.62387,0.68172 -2.52189,2.78235 -4.21783,4.66794 -1.69594,1.8856 -3.31402,3.66943 -3.59564,3.9641 l -0.5116,0.53588 -2.25154,-1.16892 c -1.23823,-0.64272 -2.26265,-1.20505 -2.27635,-1.25005 -0.0137,-0.0449 -0.2554,-1.94808 -0.53743,-4.2292 -0.28201,-2.28111 -0.53343,-4.29555 -0.55863,-4.47622 -0.0443,-0.31836 0.0479,-0.40987 2.99362,-2.97759 1.6717,-1.45718 3.51789,-3.05659 4.10207,-3.55431 z m 22.7061,6.17792 c 0.1389,0.004 0.36301,0.18088 0.93586,0.69918 0.47775,0.43227 1.69386,1.52349 2.70268,2.42466 4.8449,4.32796 5.18815,4.65895 5.12475,4.95112 -0.0324,0.14916 -0.23849,1.25434 -0.45785,2.45566 -0.21938,1.20132 -0.41457,2.19558 -0.43357,2.20968 -0.019,0.0142 -0.44909,0.24769 -0.95601,0.51884 -0.50691,0.27116 -2.18937,1.17065 -3.73827,1.99884 -1.5489,0.82819 -2.95435,1.57666 -3.12333,1.66346 -0.28864,0.14818 -0.32578,0.14391 -0.61443,-0.0718 -0.16897,-0.1263 -1.50543,-1.09564 -2.96984,-2.15387 -1.46442,-1.05824 -2.76051,-2.0212 -2.88045,-2.13992 -0.191,-0.18901 -0.26594,-0.58455 -0.60151,-3.18534 -0.21074,-1.63339 -0.40533,-3.15505 -0.43253,-3.3817 l -0.0496,-0.41238 3.61115,-2.71146 c 1.98596,-1.49122 3.68693,-2.76525 3.78013,-2.83135 0.0313,-0.0222 0.0639,-0.0347 0.10283,-0.0336 z m -15.30707,2.45773 c 0.10599,0 7.22746,3.13604 7.28276,3.20704 0.008,0.0103 0.2106,1.55154 0.4501,3.42459 l 0.43511,3.40548 -0.26406,0.20774 c -0.34483,0.27125 -3.74597,3.15432 -5.95778,5.05034 l -1.74098,1.49241 -2.04793,-0.0165 c -3.21176,-0.0258 -4.88043,-0.11302 -5.19194,-0.27234 -0.15209,-0.0778 -0.31923,-0.26215 -0.37103,-0.40927 -0.0519,-0.14714 -0.54356,-1.50309 -1.09244,-3.01326 -0.99723,-2.74376 -0.99734,-2.74594 -0.7984,-2.96984 2.7032,-3.04235 7.6688,-8.54023 8.50335,-9.41493 0.36275,-0.38019 0.71974,-0.69143 0.79324,-0.69143 z m -14.74587,8.05584 2.36936,1.20664 2.36937,1.20613 0.97926,2.728 c 0.53871,1.50032 1.0063,2.843 1.0387,2.9838 0.0532,0.23075 -0.0794,0.36203 -1.34462,1.33118 -1.66805,1.27774 -5.04163,3.93466 -7.8357,6.1712 -1.10749,0.88651 -2.05199,1.60955 -2.09909,1.60455 -0.0471,-0.004 -1.27396,-0.75338 -2.72594,-1.66449 l -2.63963,-1.65623 0.0537,-0.35864 c 0.0296,-0.19712 0.21552,-1.44107 0.41342,-2.76469 1.33806,-8.94932 1.19389,-8.22857 1.66759,-8.34109 0.15259,-0.0362 1.95944,-0.60154 4.01526,-1.25625 z m 23.24044,2.51406 c 0.0616,0.0162 1.48,1.02043 3.15174,2.23138 l 3.03961,2.20142 0.005,3.64112 0.005,3.64061 -3.58428,1.70997 h -0.002 c -1.97155,0.94045 -3.61876,1.70835 -3.66076,1.70635 -0.042,-0.002 -0.69897,-0.79219 -1.45934,-1.75648 -0.76037,-0.96429 -2.26875,-2.86369 -3.35226,-4.22093 -1.0835,-1.35723 -1.97088,-2.49869 -1.97145,-2.53679 -7.3e-4,-0.0381 1.25466,-1.14602 2.78949,-2.46187 4.10646,-3.52061 4.91529,-4.18748 5.03949,-4.15478 z m 14.9009,0.20928 1.52135,1.65107 c 3.07019,3.33212 3.39624,3.70181 3.39824,3.85247 9.3e-4,0.0845 0.0916,0.84497 0.20154,1.68982 0.11001,0.84486 0.31751,2.5498 0.46096,3.78892 0.14344,1.23911 0.28122,2.37242 0.30592,2.51819 0.0405,0.23864 -0.0723,0.34595 -1.12861,1.07539 -0.6453,0.44562 -2.01354,1.39602 -3.04064,2.11202 h -0.001 c -1.02711,0.716 -1.89044,1.30334 -1.91874,1.30534 -0.0283,0.002 -0.76521,-0.57425 -1.63815,-1.28106 -0.87292,-0.7068 -2.65775,-2.14701 -3.96616,-3.20032 l -2.37919,-1.91513 -0.001,-1.74098 c -9e-4,-0.9575 0.0284,-2.60025 0.0651,-3.65094 l 0.0672,-1.91047 0.93121,-0.4899 c 0.51227,-0.26946 2.32413,-1.23565 4.02663,-2.14715 z m -30.97331,6.03116 0.30386,0.17518 c 0.18604,0.10737 0.33004,0.29267 0.37104,0.47853 0.30432,1.37897 1.24924,5.90573 1.78439,8.54728 0.35944,1.7742 0.81866,4.03034 1.02061,5.01365 0.20194,0.98332 0.35438,1.83789 0.33848,1.89859 -0.016,0.0607 -0.91977,0.938 -2.00815,1.94975 -1.08838,1.01176 -2.0329,1.85164 -2.0991,1.86604 -0.11204,0.0244 -9.7975,-5.56625 -10.00817,-5.77691 -0.0525,-0.0525 -0.30774,-1.24281 -0.56689,-2.64532 -0.39671,-2.14731 -0.44838,-2.56723 -0.32815,-2.65823 0.0785,-0.0595 1.47673,-1.17567 3.10731,-2.48047 1.6306,-1.3048 4.11663,-3.27143 5.52472,-4.37028 z m 1.22009,0.42013 c 0.0691,-0.0691 6.45153,0.18047 6.51743,0.25477 0.15505,0.17481 3.94144,4.91972 5.35419,6.70966 l 1.51619,1.92133 -0.78548,1.96991 c -0.43192,1.0836 -0.90144,2.26991 -1.04387,2.63601 -0.14243,0.36611 -0.28993,0.70008 -0.32763,0.74208 -0.0378,0.042 -1.72558,0.32969 -3.75067,0.63923 -2.02509,0.30954 -3.82515,0.5868 -3.99976,0.6165 l -0.31729,0.0538 -0.31626,-1.56321 c -0.39173,-1.93505 -2.52006,-12.25959 -2.728,-13.23382 -0.0811,-0.37978 -0.13383,-0.70693 -0.12041,-0.74363 1.2e-4,-2.5e-4 4e-4,-0.001 5.2e-4,-0.002 l 5.2e-4,-5.1e-4 z" /><path
       style="fill:none;fill-opacity:1;stroke:#b3b3b3;stroke-width:0.5;stroke-dasharray:none;stroke-opacity:1"
       d="m -193.00105,176.40769 h 3.80924 a 1.7565951,1.7565951 45 0 1 1.7566,1.7566 v 0.98242"
       id="path94"
       inkscape:path-effect="#path-effect94"
       inkscape:original-d="m -193.00105,176.40769 h 5.56584 v 2.73902"
       sodipodi:nodetypes="ccc" /><rect
       style="fill:#dbdbdb;fill-opacity:1;stroke:none;stroke-width:0.169664;stroke-dasharray:none"
       id="rect11"
       width="9.7509966"
       height="14.222077"
       x="-170.7282"
       y="173.95534"
       rx="0.51646137"
       ry="0.51646137" /><path
       id="path11"
       style="fill:#f2f2f2;fill-opacity:1;stroke:none;stroke-width:0.169664;stroke-dasharray:none"
       d="m -170.52479,188.07258 c 0.0867,0.0658 0.19508,0.10465 0.31283,0.10465 h 8.71847 c 0.11773,0 0.22613,-0.0389 0.31281,-0.10465 z" /><path
       id="path366-7"
       style="fill:#999999;fill-opacity:1;stroke:none;stroke-width:0.0374319"
       d="m -192.35881,76.661291 v 0.454145 1.003791 0.454144 1.099295 h 0.45414 v -1.099295 h 1.3107 v 1.099295 h 0.45416 v -1.099295 -0.454144 -0.699916 h -0.45416 v 0.699916 h -1.3107 v -1.003791 h 0.8719 0.4388 0.45416 v -0.454145 h -0.45416 -0.49422 -0.81648 z m 4.43801,0 v 0.454145 1.003791 0.454144 1.099295 h 0.45414 v -1.099295 h 0.85622 l 0.4545,1.099295 h 0.45414 l -0.45414,-1.099295 h 0.45414 v -0.454144 -1.457936 z m 0.45414,0.454145 h 1.31072 v 1.003791 h -1.31072 z"
       sodipodi:nodetypes="ccccccccccccccccccccccccccccccccccccccccccccc" /><path
       id="path367-6"
       style="fill:#999999;fill-opacity:1;stroke:none;stroke-width:0.0374319"
       d="m -181.72327,76.354513 v 0.306958 h -1.31104 -0.45423 v 0.453719 1.004073 0.454236 1.099157 h 0.45423 1.76475 V 79.21842 h -0.45371 -0.56845 -0.74259 V 78.573499 78.119263 77.11519 h 1.31104 0.45371 v -0.760677 z" /><path
       id="path364-4"
       style="fill:#f2f2f2;fill-opacity:1;stroke:none;stroke-width:0.0374319"
       d="m -191.90465,76.207146 v 0.454145 1.003791 0.454144 1.099295 h 0.45414 v -1.099295 h 1.3107 v 1.099295 h 0.45416 v -1.099295 -0.454144 -0.699916 h -0.45416 v 0.699916 h -1.3107 v -1.003791 h 0.8719 0.4388 0.45416 v -0.454145 h -0.45416 -0.49422 -0.81648 z m 4.43801,0 v 0.454145 1.003791 0.454144 1.099295 h 0.45414 v -1.099295 h 0.85622 l 0.4545,1.099295 h 0.45414 l -0.45414,-1.099295 h 0.45414 v -0.454144 -1.457936 z m 0.45414,0.454145 h 1.31072 v 1.003791 h -1.31072 z"
       sodipodi:nodetypes="ccccccccccccccccccccccccccccccccccccccccccccc" /><path
       id="path365-2"
       style="fill:#f2f2f2;fill-opacity:1;stroke:none;stroke-width:0.0374319"
       d="m -181.26956,75.900277 v 0.306958 h -1.31051 -0.45424 v 0.454236 1.003556 0.454236 1.099157 h 0.45424 1.76475 v -0.454235 h -0.45424 -0.65525 -0.65526 v -0.644922 -0.454236 -1.003556 h 1.31051 0.45424 v -0.761194 z" /><path
       id="rect374-6-2"
       style="fill:#333333;fill-opacity:1;stroke:none;stroke-width:0.0374319"
       d="m -192.13173,76.434218 v 0.454145 1.003791 0.454144 1.099295 h 0.45414 v -1.099295 h 1.3107 v 1.099295 h 0.45416 v -1.099295 -0.454144 -0.699916 h -0.45416 v 0.699916 h -1.3107 v -1.003791 h 0.8719 0.4388 0.45416 v -0.454145 h -0.45416 -0.49422 -0.81648 z m 4.43801,0 v 0.454145 1.003791 0.454144 1.099295 h 0.45414 v -1.099295 h 0.85622 l 0.4545,1.099295 h 0.45414 l -0.45414,-1.099295 h 0.45414 v -0.454144 -1.457936 z m 0.45414,0.454145 h 1.31072 v 1.003791 h -1.31072 z"
       sodipodi:nodetypes="ccccccccccccccccccccccccccccccccccccccccccccc" /><path
       id="path235-2"
       style="fill:#333333;fill-opacity:1;stroke:none;stroke-width:0.0374319"
       d="m -181.49642,76.127136 v 0.306958 h -1.31051 -0.45424 v 0.454236 1.004073 0.453719 1.099675 h 0.45424 1.76475 v -0.454753 h -0.45424 -0.65525 -0.65526 V 78.346122 77.892403 76.88833 h 1.31051 0.45424 v -0.761194 z" /><g
       id="g347"
       display="none"
       transform="matrix(0.26458333,0,0,0.26458333,-210.74712,0.96976)">
</g><g
       id="g348"
       display="none"
       transform="matrix(0.26458333,0,0,0.26458333,-210.74712,0.96976)">
</g><g
       id="g349"
       transform="matrix(0.26458333,0,0,0.26458333,-210.74712,0.96976)">
</g><g
       id="g350"
       transform="matrix(0.26458333,0,0,0.26458333,-210.74712,0.96976)">
</g><g
       id="g351"
       transform="matrix(0.26458333,0,0,0.26458333,-210.74712,0.96976)">
</g><g
       id="g352"
       transform="matrix(0.26458333,0,0,0.26458333,-210.74712,0.96976)">
</g><g
       id="g55"
       display="none"
       transform="matrix(0.26458333,0,0,0.26458333,-210.74712,0.96976)">
</g><g
       id="g56"
       display="none"
       transform="matrix(0.26458333,0,0,0.26458333,-210.74712,0.96976)">
</g><path
       id="path2-86"
       style="fill:#4d4d4d;fill-opacity:1;stroke-width:0.0293431"
       d="m -187.33796,191.49297 a 0.12953045,0.12953045 0 0 0 -0.12971,0.1294 v 0.36297 a 0.12953045,0.12953045 0 0 1 -0.12939,0.12969 h -0.985 a 0.12953045,0.12953045 0 0 0 -0.12941,0.12939 v 1.73647 0.62177 0.62204 h 1.05744 a 0.18659038,0.18659038 0 0 0 0.18636,-0.18667 v -0.30569 a 0.12953045,0.12953045 0 0 1 0.12971,-0.12968 h 0.98472 a 0.12953045,0.12953045 0 0 0 0.12969,-0.1294 v -1.73648 -0.62175 -0.62206 z m -0.3597,1.55512 h 0.4603 c 0.0448,0 0.0808,0.0358 0.0808,0.0804 v 0.46058 c 0,0.0448 -0.036,0.0808 -0.0808,0.0808 h -0.4603 c -0.0448,0 -0.0808,-0.036 -0.0808,-0.0808 v -0.46058 c 0,-0.0448 0.036,-0.0804 0.0808,-0.0804 z" /><path
       style="fill:#f2f2f2;fill-opacity:1;stroke:#b3b3b3;stroke-width:0.55404;stroke-dasharray:none;stroke-opacity:1"
       d="m -209.0524,156.09649 v 2.03671"
       id="path271"
       sodipodi:nodetypes="cc" /><path
       d="m -210.61561,87.023854 h 0.32634 q 0.0495,0 0.0495,0.04953 v 1.774449 q 0,0.04953 -0.0495,0.04953 h -0.18065 q -0.0495,0 -0.0495,-0.04953 V 87.37641 h -0.0117 l -0.37878,1.066418 q -0.0175,0.04662 -0.0641,0.04662 h -0.18648 q -0.0437,0 -0.0612,-0.04662 l -0.38752,-1.069332 h -0.0117 v 1.474337 q 0,0.02914 -0.0117,0.04079 -0.009,0.0087 -0.0379,0.0087 h -0.17773 q -0.0495,0 -0.0495,-0.04953 v -1.774449 q 0,-0.04953 0.0495,-0.04953 h 0.32633 q 0.032,0 0.0466,0.03205 l 0.39918,1.124692 h 0.0146 l 0.40209,-1.124692 q 0.006,-0.03205 0.0437,-0.03205 z m 0.90326,1.873515 h -0.20979 q -0.0408,0 -0.0291,-0.04953 l 0.50699,-1.774449 q 0.0146,-0.04953 0.0699,-0.04953 h 0.29137 q 0.0583,0 0.0699,0.04953 l 0.50698,1.774449 q 0.0117,0.04953 -0.032,0.04953 h -0.20687 q -0.0262,0 -0.0379,-0.0087 -0.009,-0.01165 -0.0146,-0.04079 l -0.11072,-0.378782 h -0.64102 l -0.11072,0.378782 q -0.0117,0.04953 -0.0524,0.04953 z m 0.47784,-1.593799 -0.2564,0.932387 h 0.52738 l -0.25932,-0.932387 z m 1.31409,-0.230183 v 1.774449 q 0,0.04953 -0.0495,0.04953 h -0.18356 q -0.0495,0 -0.0495,-0.04953 v -1.774449 q 0,-0.04953 0.0495,-0.04953 h 0.18356 q 0.0495,0 0.0495,0.04953 z m 0.67015,1.823982 h -0.18065 q -0.0495,0 -0.0495,-0.04953 V 87.07339 q 0,-0.04953 0.0495,-0.04953 h 0.16317 q 0.0466,0 0.0641,0.03205 l 0.70512,1.267463 h 0.0116 v -1.249981 q 0,-0.04953 0.0495,-0.04953 h 0.18065 q 0.0495,0 0.0495,0.04953 v 1.774449 q 0,0.04953 -0.0495,0.04953 h -0.15734 q -0.0466,0 -0.0758,-0.04662 l -0.69929,-1.252895 h -0.0117 v 1.249981 q 0,0.04953 -0.0495,0.04953 z"
       id="text40"
       style="font-weight:600;font-size:2.91371px;line-height:1.7;font-family:Rajdhani;-inkscape-font-specification:'Rajdhani, Semi-Bold';text-align:center;text-anchor:middle;fill:#333333;stroke-width:0.0770719"
       aria-label="MAIN" /><g
       id="g78"
       transform="matrix(0.40681637,0,0,1.7893591,-84.17449,-70.516166)"><path
         id="path39"
         style="fill:#89a69a;fill-opacity:1;stroke-width:0.164677"
         d="m -214.30455,89.988698 h 25.51492 v 5.92569 h -25.51492 z" /><path
         id="path40"
         style="opacity:0.661142;fill:url(#linearGradient70);fill-opacity:1;stroke-width:0.16468"
         d="m -214.30461,89.988788 v 1.92598 c 10.81891,1.84339 19.76813,2.67643 25.51524,2.57865 v -4.50463 z"
         sodipodi:nodetypes="ccccc" /></g><path
       id="path57"
       style="fill:#f2f2f2;fill-opacity:1;stroke-width:0.542516"
       d="m -171.35709,90.50593 v 10.60319 h 0.45441 l 9.92548,0.0177 -0.42788,-0.45507 -9.4976,-0.0177 V 90.50593 Z"
       sodipodi:nodetypes="cccccccc" /><path
       id="path41"
       style="fill:#889690;fill-opacity:1;stroke:none;stroke-width:0.0445712;stroke-dasharray:none"
       d="m -171.35711,90.071501 v 0.43459 h 9.94597 v 10.149459 l 0.43394,0.45357 v -10.603029 -0.43459 h -0.43394 z"
       sodipodi:nodetypes="ccccccccc" /><rect
       style="fill:#dbdbdb;fill-opacity:1;stroke:none;stroke-width:0.169664;stroke-dasharray:none"
       id="rect49"
       width="9.7509966"
       height="14.222077"
       x="-181.54059"
       y="173.95534"
       rx="0.51646137"
       ry="0.51646137" /><path
       id="path49"
       style="fill:#f2f2f2;fill-opacity:1;stroke:none;stroke-width:0.169664;stroke-dasharray:none"
       d="m -181.33718,188.07258 c 0.0867,0.0658 0.19508,0.10465 0.31283,0.10465 h 8.71847 c 0.11773,0 0.22613,-0.0389 0.31281,-0.10465 z" /><path
       d="m -200.16406,88.655531 h 0.40792 q 0.21853,0 0.21853,-0.209787 v -0.18065 q 0,-0.209787 -0.23019,-0.209787 h -0.39626 q -0.032,0 -0.032,0.02914 v 0.54195 q 0,0.02914 0.032,0.02914 z m 0,-0.833321 h 0.37878 q 0.22144,0 0.22144,-0.2127 v -0.134031 q 0,-0.209787 -0.21561,-0.209787 h -0.38461 q -0.032,0 -0.032,0.02914 v 0.498244 q 0,0.02914 0.032,0.02914 z m -0.31468,1.025626 v -1.774449 q 0,-0.04953 0.0495,-0.04953 h 0.69055 q 0.21562,0 0.33508,0.116548 0.11946,0.116549 0.11946,0.329249 v 0.142772 q 0,0.253493 -0.23892,0.326336 0.11363,0.01457 0.18647,0.09907 0.0758,0.0845 0.0758,0.227269 v 0.186478 q 0,0.212701 -0.11946,0.329249 -0.11946,0.116548 -0.33217,0.116548 h -0.71677 q -0.0495,0 -0.0495,-0.04953 z m 1.71035,0.04953 h -0.20979 q -0.0408,0 -0.0291,-0.04953 l 0.50699,-1.774449 q 0.0146,-0.04953 0.0699,-0.04953 h 0.29137 q 0.0583,0 0.0699,0.04953 l 0.50698,1.774449 q 0.0117,0.04953 -0.032,0.04953 h -0.20687 q -0.0262,0 -0.0379,-0.0087 -0.009,-0.01165 -0.0146,-0.04079 l -0.11072,-0.378782 h -0.64102 l -0.11072,0.378782 q -0.0117,0.04953 -0.0524,0.04953 z m 0.47785,-1.593799 -0.25641,0.932387 h 0.52738 l -0.25932,-0.932387 z m 1.24998,1.593799 h -0.18357 q -0.0495,0 -0.0495,-0.04953 v -1.774449 q 0,-0.04953 0.0495,-0.04953 h 0.68181 q 0.2127,0 0.33217,0.122376 0.12237,0.119462 0.12237,0.332163 v 0.244751 q 0,0.335077 -0.2768,0.422488 v 0.01165 l 0.32342,0.681808 q 0.032,0.05827 -0.0379,0.05827 h -0.18065 q -0.0699,0 -0.0903,-0.04953 l -0.31177,-0.670153 h -0.29428 q -0.035,0 -0.035,0.02914 v 0.641016 q 0,0.04953 -0.0495,0.04953 z m 0.0816,-0.952783 h 0.37004 q 0.21562,0 0.21562,-0.212701 v -0.244751 q 0,-0.215615 -0.21562,-0.215615 h -0.37004 q -0.032,0 -0.032,0.02914 v 0.614793 q 0,0.02914 0.032,0.02914 z"
       id="text110"
       style="font-weight:600;font-size:2.91371px;line-height:1.7;font-family:Rajdhani;-inkscape-font-specification:'Rajdhani, Semi-Bold';text-align:center;text-anchor:middle;fill:#333333;stroke-width:0.0770719"
       aria-label="BAR" /><path
       d="m -188.94476,88.897369 h -0.18357 q -0.0495,0 -0.0495,-0.04953 V 87.07339 q 0,-0.04953 0.0495,-0.04953 h 0.69347 q 0.2127,0 0.33216,0.119462 0.11946,0.116548 0.11946,0.332163 v 0.303026 q 0,0.212701 -0.11946,0.332163 -0.11946,0.119462 -0.33216,0.119462 h -0.4254 q -0.035,0 -0.035,0.02914 v 0.588569 q 0,0.04953 -0.0495,0.04953 z m 0.0816,-0.917818 h 0.38753 q 0.20687,0 0.20687,-0.215615 v -0.276802 q 0,-0.215615 -0.20687,-0.215615 h -0.38753 q -0.032,0 -0.032,0.02914 v 0.649758 q 0,0.02914 0.032,0.02914 z m 1.78902,0.917818 h -0.30885 q -0.0524,0 -0.0612,-0.04953 l -0.34673,-1.774449 q -0.006,-0.04953 0.0495,-0.04953 h 0.22436 q 0.0554,0 0.0583,0.04953 l 0.23601,1.526784 h 0.0175 l 0.34382,-1.532612 q 0.006,-0.04371 0.0524,-0.04371 h 0.24475 q 0.0466,0 0.0554,0.04371 l 0.34673,1.532612 h 0.0175 l 0.23601,-1.52387 q 0.003,-0.05245 0.0583,-0.05245 h 0.22435 q 0.0583,0 0.0495,0.05245 l -0.34673,1.771535 q -0.009,0.04953 -0.0583,0.04953 h -0.30885 q -0.0495,0 -0.0583,-0.04953 l -0.32925,-1.474337 h -0.0117 l -0.32925,1.474337 q -0.009,0.04953 -0.0554,0.04953 z"
       id="text111"
       style="font-weight:600;font-size:2.91371px;line-height:1.7;font-family:Rajdhani;-inkscape-font-specification:'Rajdhani, Semi-Bold';text-align:center;text-anchor:middle;fill:#333333;stroke-width:0.0770719"
       aria-label="PW" /><path
       d="m -211.84519,120.74918 h -0.20979 q -0.0408,0 -0.0291,-0.0495 l 0.50698,-1.77445 q 0.0146,-0.0495 0.0699,-0.0495 h 0.29137 q 0.0583,0 0.0699,0.0495 l 0.50699,1.77445 q 0.0117,0.0495 -0.032,0.0495 h -0.20688 q -0.0262,0 -0.0379,-0.009 -0.009,-0.0117 -0.0146,-0.0408 l -0.11073,-0.37878 h -0.64101 l -0.11072,0.37878 q -0.0117,0.0495 -0.0524,0.0495 z m 0.47785,-1.5938 -0.25641,0.93239 h 0.52738 l -0.25932,-0.93239 z m 1.24998,1.5938 h -0.18356 q -0.0495,0 -0.0495,-0.0495 v -1.77445 q 0,-0.0495 0.0495,-0.0495 h 0.68181 q 0.2127,0 0.33216,0.12237 0.12237,0.11947 0.12237,0.33217 v 0.24475 q 0,0.33508 -0.2768,0.42249 v 0.0117 l 0.32342,0.68181 q 0.032,0.0583 -0.0379,0.0583 h -0.18065 q -0.0699,0 -0.0903,-0.0495 l -0.31177,-0.67015 h -0.29428 q -0.035,0 -0.035,0.0291 v 0.64102 q 0,0.0495 -0.0495,0.0495 z m 0.0816,-0.95278 h 0.37004 q 0.21561,0 0.21561,-0.2127 v -0.24475 q 0,-0.21562 -0.21561,-0.21562 h -0.37004 q -0.0321,0 -0.0321,0.0291 v 0.61479 q 0,0.0291 0.0321,0.0291 z m 1.49764,0.95278 h -0.18356 q -0.0495,0 -0.0495,-0.0495 v -1.77445 q 0,-0.0495 0.0495,-0.0495 h 0.69346 q 0.2127,0 0.33216,0.11946 0.11947,0.11655 0.11947,0.33216 v 0.30303 q 0,0.2127 -0.11947,0.33216 -0.11946,0.11946 -0.33216,0.11946 h -0.4254 q -0.035,0 -0.035,0.0291 v 0.58857 q 0,0.0495 -0.0495,0.0495 z m 0.0816,-0.91782 h 0.38752 q 0.20687,0 0.20687,-0.21561 v -0.2768 q 0,-0.21562 -0.20687,-0.21562 h -0.38752 q -0.0321,0 -0.0321,0.0291 v 0.64976 q 0,0.0291 0.0321,0.0291 z m 1.98423,0.91782 h -0.33799 q -0.21561,0 -0.33508,-0.11946 -0.11654,-0.11946 -0.11654,-0.33216 v -0.97027 q 0,-0.21561 0.11654,-0.33216 0.11947,-0.11946 0.33508,-0.11946 h 0.33799 q 0.2127,0 0.33216,0.11946 0.11947,0.11655 0.11947,0.33216 v 0.13986 q 0,0.0524 -0.0524,0.0524 h -0.18356 q -0.0495,0 -0.0495,-0.0524 v -0.1282 q 0,-0.21562 -0.20978,-0.21562 h -0.2535 q -0.20978,0 -0.20978,0.21562 v 0.94695 q 0,0.21562 0.20978,0.21562 h 0.2535 q 0.20978,0 0.20978,-0.21562 v -0.1282 q 0,-0.0525 0.0495,-0.0525 h 0.18356 q 0.0524,0 0.0524,0.0525 v 0.13986 q 0,0.2127 -0.11947,0.33216 -0.11946,0.11946 -0.33216,0.11946 z"
       id="text193"
       style="font-weight:600;font-size:2.91371px;line-height:1.7;font-family:Rajdhani;-inkscape-font-specification:'Rajdhani, Semi-Bold';text-align:center;text-anchor:middle;fill:#333333;stroke-width:0.0770719"
       aria-label="ARPC" /><path
       d="m -200.29371,120.74918 h -0.31177 q -0.21562,0 -0.33508,-0.11946 -0.11655,-0.11946 -0.11655,-0.33216 v -0.97027 q 0,-0.21561 0.11655,-0.33216 0.11946,-0.11946 0.33508,-0.11946 h 0.31177 q 0.21561,0 0.33216,0.11946 0.11946,0.11655 0.11946,0.33216 v 0.1049 q 0,0.0524 -0.0495,0.0524 h -0.18357 q -0.0495,0 -0.0495,-0.0524 v -0.0932 q 0,-0.21562 -0.20979,-0.21562 h -0.23018 q -0.20979,0 -0.20979,0.21562 v 0.94695 q 0,0.21562 0.20979,0.21562 h 0.23018 q 0.20979,0 0.20979,-0.21562 v -0.26223 q 0,-0.0291 -0.032,-0.0291 h -0.23601 q -0.0495,0 -0.0495,-0.0495 v -0.1486 q 0,-0.0495 0.0495,-0.0495 h 0.4895 q 0.0612,0 0.0612,0.0612 v 0.4895 q 0,0.2127 -0.11946,0.33216 -0.11946,0.11946 -0.33216,0.11946 z m 1.84146,0 h -0.94404 q -0.0495,0 -0.0495,-0.0495 v -1.77445 q 0,-0.0495 0.0495,-0.0495 h 0.18356 q 0.0495,0 0.0495,0.0495 v 1.54135 q 0,0.0291 0.035,0.0291 h 0.67598 q 0.0495,0 0.0495,0.0525 v 0.15151 q 0,0.0495 -0.0495,0.0495 z m 1.29952,0 h -0.93239 q -0.0495,0 -0.0495,-0.0495 v -1.77445 q 0,-0.0495 0.0495,-0.0495 h 0.93239 q 0.0466,0 0.0466,0.0495 v 0.1486 q 0,0.0495 -0.0466,0.0495 h -0.66433 q -0.035,0 -0.035,0.0291 v 0.49242 q 0,0.0291 0.035,0.0291 h 0.56235 q 0.0524,0 0.0524,0.0495 v 0.1486 q 0,0.0495 -0.0524,0.0495 h -0.56235 q -0.035,0 -0.035,0.0291 v 0.51864 q 0,0.032 0.035,0.032 h 0.66433 q 0.0466,0 0.0466,0.0495 v 0.1486 q 0,0.0495 -0.0466,0.0495 z m 0.64684,0 h -0.18065 q -0.0495,0 -0.0495,-0.0495 v -1.77445 q 0,-0.0495 0.0495,-0.0495 h 0.16317 q 0.0466,0 0.0641,0.032 l 0.70511,1.26746 h 0.0117 v -1.24998 q 0,-0.0495 0.0495,-0.0495 h 0.18065 q 0.0495,0 0.0495,0.0495 v 1.77445 q 0,0.0495 -0.0495,0.0495 h -0.15734 q -0.0466,0 -0.0757,-0.0466 l -0.69929,-1.25289 h -0.0117 v 1.24998 q 0,0.0495 -0.0495,0.0495 z"
       id="text200"
       style="font-weight:600;font-size:2.91371px;line-height:1.7;font-family:Rajdhani;-inkscape-font-specification:'Rajdhani, Semi-Bold';text-align:center;text-anchor:middle;fill:#333333;stroke-width:0.0770719"
       aria-label="GLEN" /><path
       d="m -190.01555,120.74918 h -0.18357 q -0.0495,0 -0.0495,-0.0495 v -1.77445 q 0,-0.0495 0.0495,-0.0495 h 0.68181 q 0.2127,0 0.33216,0.12237 0.12238,0.11947 0.12238,0.33217 v 0.24475 q 0,0.33508 -0.2768,0.42249 v 0.0117 l 0.32342,0.68181 q 0.032,0.0583 -0.0379,0.0583 h -0.18065 q -0.0699,0 -0.0903,-0.0495 l -0.31177,-0.67015 h -0.29429 q -0.035,0 -0.035,0.0291 v 0.64102 q 0,0.0495 -0.0495,0.0495 z m 0.0816,-0.95278 h 0.37004 q 0.21562,0 0.21562,-0.2127 v -0.24475 q 0,-0.21562 -0.21562,-0.21562 h -0.37004 q -0.032,0 -0.032,0.0291 v 0.61479 q 0,0.0291 0.032,0.0291 z m 2.25812,0.95278 h -0.94404 q -0.0495,0 -0.0495,-0.0495 v -1.77445 q 0,-0.0495 0.0495,-0.0495 h 0.18357 q 0.0495,0 0.0495,0.0495 v 1.54135 q 0,0.0291 0.035,0.0291 h 0.67598 q 0.0495,0 0.0495,0.0525 v 0.15151 q 0,0.0495 -0.0495,0.0495 z m 1.29952,0 h -0.93239 q -0.0495,0 -0.0495,-0.0495 v -1.77445 q 0,-0.0495 0.0495,-0.0495 h 0.93239 q 0.0466,0 0.0466,0.0495 v 0.1486 q 0,0.0495 -0.0466,0.0495 h -0.66432 q -0.035,0 -0.035,0.0291 v 0.49242 q 0,0.0291 0.035,0.0291 h 0.56234 q 0.0524,0 0.0524,0.0495 v 0.1486 q 0,0.0495 -0.0524,0.0495 h -0.56234 q -0.035,0 -0.035,0.0291 v 0.51864 q 0,0.032 0.035,0.032 h 0.66432 q 0.0466,0 0.0466,0.0495 v 0.1486 q 0,0.0495 -0.0466,0.0495 z m 0.64684,0 h -0.18065 q -0.0495,0 -0.0495,-0.0495 v -1.77445 q 0,-0.0495 0.0495,-0.0495 h 0.16317 q 0.0466,0 0.0641,0.032 l 0.70512,1.26746 h 0.0117 v -1.24998 q 0,-0.0495 0.0495,-0.0495 h 0.18065 q 0.0495,0 0.0495,0.0495 v 1.77445 q 0,0.0495 -0.0495,0.0495 h -0.15734 q -0.0466,0 -0.0758,-0.0466 l -0.69929,-1.25289 h -0.0117 v 1.24998 q 0,0.0495 -0.0495,0.0495 z"
       id="text201"
       style="font-weight:600;font-size:2.91371px;line-height:1.7;font-family:Rajdhani;-inkscape-font-specification:'Rajdhani, Semi-Bold';text-align:center;text-anchor:middle;fill:#333333;stroke-width:0.0770719"
       aria-label="RLEN" /><path
       d="m -180.40756,120.29464 v -0.0757 q 0,-0.0495 0.0495,-0.0495 h 0.18648 q 0.0495,0 0.0495,0.0495 v 0.0524 q 0,0.12237 0.0524,0.17773 0.0554,0.0524 0.18065,0.0524 h 0.20105 q 0.12529,0 0.18065,-0.0554 0.0554,-0.0583 0.0554,-0.18648 v -0.067 q 0,-0.0932 -0.0728,-0.14569 -0.0699,-0.0554 -0.17482,-0.0699 -0.1049,-0.0175 -0.23019,-0.0466 -0.12529,-0.0291 -0.23018,-0.067 -0.10489,-0.0379 -0.17774,-0.14278 -0.0699,-0.10489 -0.0699,-0.26806 v -0.12237 q 0,-0.2127 0.11947,-0.33217 0.12237,-0.12237 0.33507,-0.12237 h 0.30886 q 0.21561,0 0.33507,0.12237 0.12238,0.11947 0.12238,0.33217 v 0.0641 q 0,0.0495 -0.0495,0.0495 h -0.18648 q -0.0495,0 -0.0495,-0.0495 v -0.0379 q 0,-0.12529 -0.0554,-0.17774 -0.0524,-0.0554 -0.17773,-0.0554 h -0.18357 q -0.12528,0 -0.18065,0.0583 -0.0524,0.0554 -0.0524,0.1923 v 0.0903 q 0,0.13111 0.18939,0.17773 0.0845,0.0204 0.18356,0.035 0.10198,0.0146 0.20396,0.0437 0.10198,0.0291 0.18648,0.0787 0.0845,0.0466 0.13694,0.14569 0.0524,0.0962 0.0524,0.23601 v 0.11363 q 0,0.21271 -0.12237,0.33508 -0.11947,0.11946 -0.33217,0.11946 h -0.32633 q -0.2127,0 -0.33508,-0.11946 -0.12238,-0.12237 -0.12238,-0.33508 z m 2.19694,0.45454 h -0.30885 q -0.0524,0 -0.0612,-0.0495 l -0.34673,-1.77445 q -0.006,-0.0495 0.0495,-0.0495 h 0.22436 q 0.0554,0 0.0583,0.0495 l 0.23601,1.52679 h 0.0175 l 0.34381,-1.53262 q 0.006,-0.0437 0.0524,-0.0437 h 0.24475 q 0.0466,0 0.0554,0.0437 l 0.34673,1.53262 h 0.0175 l 0.23601,-1.52388 q 0.003,-0.0524 0.0583,-0.0524 h 0.22436 q 0.0583,0 0.0495,0.0524 l -0.34673,1.77154 q -0.009,0.0495 -0.0583,0.0495 h -0.30885 q -0.0495,0 -0.0583,-0.0495 l -0.32925,-1.47434 h -0.0117 l -0.32925,1.47434 q -0.009,0.0495 -0.0554,0.0495 z m 2.00172,0 h -0.18065 q -0.0495,0 -0.0495,-0.0495 v -1.77445 q 0,-0.0495 0.0495,-0.0495 h 0.16317 q 0.0466,0 0.0641,0.032 l 0.70512,1.26746 h 0.0116 v -1.24998 q 0,-0.0495 0.0495,-0.0495 h 0.18065 q 0.0495,0 0.0495,0.0495 v 1.77445 q 0,0.0495 -0.0495,0.0495 h -0.15734 q -0.0466,0 -0.0758,-0.0466 l -0.69929,-1.25289 h -0.0117 v 1.24998 q 0,0.0495 -0.0495,0.0495 z m 2.20277,0 h -0.31177 q -0.21561,0 -0.33508,-0.11946 -0.11654,-0.11946 -0.11654,-0.33216 v -0.97027 q 0,-0.21561 0.11654,-0.33216 0.11947,-0.11946 0.33508,-0.11946 h 0.31177 q 0.21561,0 0.33216,0.11946 0.11946,0.11655 0.11946,0.33216 v 0.1049 q 0,0.0524 -0.0495,0.0524 h -0.18356 q -0.0495,0 -0.0495,-0.0524 v -0.0932 q 0,-0.21562 -0.20978,-0.21562 h -0.23019 q -0.20979,0 -0.20979,0.21562 v 0.94695 q 0,0.21562 0.20979,0.21562 h 0.23019 q 0.20978,0 0.20978,-0.21562 v -0.26223 q 0,-0.0291 -0.032,-0.0291 h -0.23601 q -0.0495,0 -0.0495,-0.0495 v -0.1486 q 0,-0.0495 0.0495,-0.0495 h 0.4895 q 0.0612,0 0.0612,0.0612 v 0.4895 q 0,0.2127 -0.11946,0.33216 -0.11946,0.11946 -0.33216,0.11946 z"
       id="text229"
       style="font-weight:600;font-size:2.91371px;line-height:1.7;font-family:Rajdhani;-inkscape-font-specification:'Rajdhani, Semi-Bold';text-align:center;text-anchor:middle;fill:#333333;stroke-width:0.0770719"
       aria-label="SWNG" /><path
       d="m -169.34559,120.74918 h -0.18356 q -0.0495,0 -0.0495,-0.0495 v -1.77445 q 0,-0.0495 0.0495,-0.0495 h 0.68181 q 0.2127,0 0.33216,0.12237 0.12238,0.11947 0.12238,0.33217 v 0.24475 q 0,0.33508 -0.27681,0.42249 v 0.0117 l 0.32342,0.68181 q 0.0321,0.0583 -0.0379,0.0583 h -0.18065 q -0.0699,0 -0.0903,-0.0495 l -0.31177,-0.67015 h -0.29428 q -0.035,0 -0.035,0.0291 v 0.64102 q 0,0.0495 -0.0495,0.0495 z m 0.0816,-0.95278 h 0.37004 q 0.21561,0 0.21561,-0.2127 v -0.24475 q 0,-0.21562 -0.21561,-0.21562 h -0.37004 q -0.0321,0 -0.0321,0.0291 v 0.61479 q 0,0.0291 0.0321,0.0291 z m 1.22958,0.49824 v -0.0757 q 0,-0.0495 0.0495,-0.0495 h 0.18648 q 0.0495,0 0.0495,0.0495 v 0.0524 q 0,0.12237 0.0525,0.17773 0.0554,0.0524 0.18065,0.0524 h 0.20105 q 0.12529,0 0.18065,-0.0554 0.0554,-0.0583 0.0554,-0.18648 v -0.067 q 0,-0.0932 -0.0728,-0.14569 -0.0699,-0.0554 -0.17483,-0.0699 -0.10489,-0.0175 -0.23018,-0.0466 -0.12529,-0.0291 -0.23018,-0.067 -0.1049,-0.0379 -0.17774,-0.14278 -0.0699,-0.10489 -0.0699,-0.26806 v -0.12237 q 0,-0.2127 0.11946,-0.33217 0.12238,-0.12237 0.33508,-0.12237 h 0.30885 q 0.21562,0 0.33508,0.12237 0.12238,0.11947 0.12238,0.33217 v 0.0641 q 0,0.0495 -0.0495,0.0495 h -0.18648 q -0.0495,0 -0.0495,-0.0495 v -0.0379 q 0,-0.12529 -0.0554,-0.17774 -0.0524,-0.0554 -0.17774,-0.0554 h -0.18356 q -0.12529,0 -0.18065,0.0583 -0.0525,0.0554 -0.0525,0.1923 v 0.0903 q 0,0.13111 0.1894,0.17773 0.0845,0.0204 0.18356,0.035 0.10198,0.0146 0.20396,0.0437 0.10198,0.0291 0.18648,0.0787 0.0845,0.0466 0.13694,0.14569 0.0525,0.0962 0.0525,0.23601 v 0.11363 q 0,0.21271 -0.12238,0.33508 -0.11946,0.11946 -0.33216,0.11946 h -0.32634 q -0.2127,0 -0.33507,-0.11946 -0.12238,-0.12237 -0.12238,-0.33508 z m 2.19694,0.45454 h -0.30885 q -0.0524,0 -0.0612,-0.0495 l -0.34673,-1.77445 q -0.006,-0.0495 0.0495,-0.0495 h 0.22436 q 0.0554,0 0.0583,0.0495 l 0.23601,1.52679 h 0.0175 l 0.34382,-1.53262 q 0.006,-0.0437 0.0524,-0.0437 h 0.24475 q 0.0466,0 0.0554,0.0437 l 0.34673,1.53262 h 0.0175 l 0.23601,-1.52388 q 0.003,-0.0524 0.0583,-0.0524 h 0.22435 q 0.0583,0 0.0495,0.0524 l -0.34674,1.77154 q -0.009,0.0495 -0.0583,0.0495 h -0.30885 q -0.0495,0 -0.0583,-0.0495 l -0.32925,-1.47434 h -0.0117 l -0.32925,1.47434 q -0.009,0.0495 -0.0554,0.0495 z m 2.00172,0 h -0.18065 q -0.0495,0 -0.0495,-0.0495 v -1.77445 q 0,-0.0495 0.0495,-0.0495 h 0.16317 q 0.0466,0 0.0641,0.032 l 0.70512,1.26746 h 0.0117 v -1.24998 q 0,-0.0495 0.0495,-0.0495 h 0.18065 q 0.0495,0 0.0495,0.0495 v 1.77445 q 0,0.0495 -0.0495,0.0495 h -0.15734 q -0.0466,0 -0.0757,-0.0466 l -0.69929,-1.25289 h -0.0117 v 1.24998 q 0,0.0495 -0.0495,0.0495 z"
       id="text230"
       style="font-weight:600;font-size:2.91371px;line-height:1.7;font-family:Rajdhani;-inkscape-font-specification:'Rajdhani, Semi-Bold';text-align:center;text-anchor:middle;fill:#333333;stroke-width:0.0770719"
       aria-label="RSWN" /><path
       d="m -211.6995,146.7719 h -0.18065 q -0.0495,0 -0.0495,-0.0495 v -1.77445 q 0,-0.0495 0.0495,-0.0495 h 0.16317 q 0.0466,0 0.0641,0.032 l 0.70512,1.26747 h 0.0116 v -1.24999 q 0,-0.0495 0.0495,-0.0495 h 0.18065 q 0.0495,0 0.0495,0.0495 v 1.77445 q 0,0.0495 -0.0495,0.0495 h -0.15734 q -0.0466,0 -0.0758,-0.0466 l -0.69929,-1.2529 h -0.0117 v 1.24998 q 0,0.0495 -0.0495,0.0495 z m 1.70161,0 h -0.18356 q -0.0495,0 -0.0495,-0.0495 v -1.77445 q 0,-0.0495 0.0495,-0.0495 h 0.6818 q 0.2127,0 0.33217,0.12238 0.12237,0.11946 0.12237,0.33216 v 0.24475 q 0,0.33508 -0.2768,0.42249 v 0.0117 l 0.32342,0.68181 q 0.032,0.0583 -0.0379,0.0583 h -0.18065 q -0.0699,0 -0.0903,-0.0495 l -0.31177,-0.67015 h -0.29428 q -0.035,0 -0.035,0.0291 v 0.64101 q 0,0.0495 -0.0495,0.0495 z m 0.0816,-0.95279 h 0.37004 q 0.21562,0 0.21562,-0.2127 v -0.24475 q 0,-0.21561 -0.21562,-0.21561 h -0.37004 q -0.032,0 -0.032,0.0291 v 0.6148 q 0,0.0291 0.032,0.0291 z m 1.77737,0.95279 h -0.18357 q -0.0524,0 -0.0524,-0.0495 v -1.54718 q 0,-0.0291 -0.0291,-0.0291 h -0.36713 q -0.0524,0 -0.0524,-0.0495 v -0.1486 q 0,-0.0495 0.0524,-0.0495 h 1.08099 q 0.0524,0 0.0524,0.0495 v 0.1486 q 0,0.0495 -0.0524,0.0495 h -0.36713 q -0.032,0 -0.032,0.0291 v 1.54718 q 0,0.0495 -0.0495,0.0495 z m 1.51221,0 h -0.33799 q -0.21561,0 -0.33508,-0.11947 -0.11654,-0.11946 -0.11654,-0.33216 v -0.97026 q 0,-0.21562 0.11654,-0.33217 0.11947,-0.11946 0.33508,-0.11946 h 0.33799 q 0.2127,0 0.33216,0.11946 0.11947,0.11655 0.11947,0.33217 v 0.13985 q 0,0.0524 -0.0525,0.0524 h -0.18356 q -0.0495,0 -0.0495,-0.0524 v -0.1282 q 0,-0.21561 -0.20978,-0.21561 h -0.2535 q -0.20978,0 -0.20978,0.21561 v 0.94696 q 0,0.21561 0.20978,0.21561 h 0.2535 q 0.20978,0 0.20978,-0.21561 v -0.12821 q 0,-0.0524 0.0495,-0.0524 h 0.18356 q 0.0525,0 0.0525,0.0524 v 0.13986 q 0,0.2127 -0.11947,0.33216 -0.11946,0.11947 -0.33216,0.11947 z"
       id="text255"
       style="font-weight:600;font-size:2.91371px;line-height:1.7;font-family:Rajdhani;-inkscape-font-specification:'Rajdhani, Semi-Bold';text-align:center;text-anchor:middle;fill:#333333;stroke-width:0.0770719"
       aria-label="NRTC" /><path
       d="m -200.8444,146.7719 h -0.18357 q -0.0495,0 -0.0495,-0.0495 v -1.77445 q 0,-0.0495 0.0495,-0.0495 h 0.68181 q 0.2127,0 0.33216,0.12238 0.12238,0.11946 0.12238,0.33216 v 0.24475 q 0,0.33508 -0.2768,0.42249 v 0.0117 l 0.32342,0.68181 q 0.032,0.0583 -0.0379,0.0583 h -0.18065 q -0.0699,0 -0.0903,-0.0495 l -0.31177,-0.67015 h -0.29429 q -0.035,0 -0.035,0.0291 v 0.64101 q 0,0.0495 -0.0495,0.0495 z m 0.0816,-0.95279 h 0.37004 q 0.21562,0 0.21562,-0.2127 v -0.24475 q 0,-0.21561 -0.21562,-0.21561 h -0.37004 q -0.032,0 -0.032,0.0291 v 0.6148 q 0,0.0291 0.032,0.0291 z m 1.49765,0.95279 h -0.18357 q -0.0495,0 -0.0495,-0.0495 v -1.77445 q 0,-0.0495 0.0495,-0.0495 h 0.68181 q 0.2127,0 0.33216,0.12238 0.12238,0.11946 0.12238,0.33216 v 0.24475 q 0,0.33508 -0.2768,0.42249 v 0.0117 l 0.32342,0.68181 q 0.032,0.0583 -0.0379,0.0583 h -0.18065 q -0.0699,0 -0.0903,-0.0495 l -0.31177,-0.67015 h -0.29429 q -0.035,0 -0.035,0.0291 v 0.64101 q 0,0.0495 -0.0495,0.0495 z m 0.0816,-0.95279 h 0.37004 q 0.21562,0 0.21562,-0.2127 v -0.24475 q 0,-0.21561 -0.21562,-0.21561 h -0.37004 q -0.032,0 -0.032,0.0291 v 0.6148 q 0,0.0291 0.032,0.0291 z m 1.77736,0.95279 h -0.18356 q -0.0524,0 -0.0524,-0.0495 v -1.54718 q 0,-0.0291 -0.0291,-0.0291 h -0.36713 q -0.0524,0 -0.0524,-0.0495 v -0.1486 q 0,-0.0495 0.0524,-0.0495 h 1.08099 q 0.0524,0 0.0524,0.0495 v 0.1486 q 0,0.0495 -0.0524,0.0495 h -0.36713 q -0.032,0 -0.032,0.0291 v 1.54718 q 0,0.0495 -0.0495,0.0495 z m 1.51222,0 h -0.33799 q -0.21562,0 -0.33508,-0.11947 -0.11655,-0.11946 -0.11655,-0.33216 v -0.97026 q 0,-0.21562 0.11655,-0.33217 0.11946,-0.11946 0.33508,-0.11946 h 0.33799 q 0.2127,0 0.33216,0.11946 0.11946,0.11655 0.11946,0.33217 v 0.13985 q 0,0.0524 -0.0524,0.0524 h -0.18357 q -0.0495,0 -0.0495,-0.0524 v -0.1282 q 0,-0.21561 -0.20979,-0.21561 h -0.25349 q -0.20979,0 -0.20979,0.21561 v 0.94696 q 0,0.21561 0.20979,0.21561 h 0.25349 q 0.20979,0 0.20979,-0.21561 v -0.12821 q 0,-0.0524 0.0495,-0.0524 h 0.18357 q 0.0524,0 0.0524,0.0524 v 0.13986 q 0,0.2127 -0.11946,0.33216 -0.11946,0.11947 -0.33216,0.11947 z"
       id="text256"
       style="font-weight:600;font-size:2.91371px;line-height:1.7;font-family:Rajdhani;-inkscape-font-specification:'Rajdhani, Semi-Bold';text-align:center;text-anchor:middle;fill:#333333;stroke-width:0.0770719"
       aria-label="RRTC" /><path
       d="m -190.11752,146.53006 h 0.40792 q 0.21852,0 0.21852,-0.20979 v -0.18065 q 0,-0.20979 -0.23018,-0.20979 h -0.39626 q -0.032,0 -0.032,0.0291 v 0.54195 q 0,0.0291 0.032,0.0291 z m 0,-0.83332 h 0.37878 q 0.22144,0 0.22144,-0.2127 v -0.13403 q 0,-0.20979 -0.21561,-0.20979 h -0.38461 q -0.032,0 -0.032,0.0291 v 0.49824 q 0,0.0291 0.032,0.0291 z m -0.31468,1.02562 v -1.77445 q 0,-0.0495 0.0495,-0.0495 h 0.69055 q 0.21561,0 0.33507,0.11655 0.11947,0.11655 0.11947,0.32925 v 0.14277 q 0,0.25349 -0.23893,0.32634 0.11364,0.0146 0.18648,0.0991 0.0758,0.0845 0.0758,0.22727 v 0.18648 q 0,0.2127 -0.11947,0.32925 -0.11946,0.11655 -0.33216,0.11655 h -0.71677 q -0.0495,0 -0.0495,-0.0495 z m 1.84146,0.0495 h -0.18356 q -0.0495,0 -0.0495,-0.0495 v -1.77445 q 0,-0.0495 0.0495,-0.0495 h 0.68181 q 0.2127,0 0.33216,0.12238 0.12237,0.11946 0.12237,0.33216 v 0.24475 q 0,0.33508 -0.2768,0.42249 v 0.0117 l 0.32342,0.68181 q 0.032,0.0583 -0.0379,0.0583 h -0.18065 q -0.0699,0 -0.0903,-0.0495 l -0.31177,-0.67015 h -0.29428 q -0.035,0 -0.035,0.0291 v 0.64101 q 0,0.0495 -0.0495,0.0495 z m 0.0816,-0.95279 h 0.37005 q 0.21561,0 0.21561,-0.2127 v -0.24475 q 0,-0.21561 -0.21561,-0.21561 h -0.37005 q -0.032,0 -0.032,0.0291 v 0.6148 q 0,0.0291 0.032,0.0291 z m 1.49474,0.95279 h -0.18065 q -0.0495,0 -0.0495,-0.0495 v -1.77445 q 0,-0.0495 0.0495,-0.0495 h 0.16317 q 0.0466,0 0.0641,0.032 l 0.70511,1.26747 h 0.0117 v -1.24999 q 0,-0.0495 0.0495,-0.0495 h 0.18065 q 0.0495,0 0.0495,0.0495 v 1.77445 q 0,0.0495 -0.0495,0.0495 h -0.15734 q -0.0466,0 -0.0757,-0.0466 l -0.69929,-1.2529 h -0.0117 v 1.24998 q 0,0.0495 -0.0495,0.0495 z m 2.46208,0 h -0.94404 q -0.0495,0 -0.0495,-0.0495 v -1.77445 q 0,-0.0495 0.0495,-0.0495 h 0.18356 q 0.0495,0 0.0495,0.0495 v 1.54136 q 0,0.0291 0.035,0.0291 h 0.67598 q 0.0495,0 0.0495,0.0524 v 0.15151 q 0,0.0495 -0.0495,0.0495 z"
       id="text57"
       style="font-weight:600;font-size:2.91371px;line-height:1.7;font-family:Rajdhani;-inkscape-font-specification:'Rajdhani, Semi-Bold';text-align:center;text-anchor:middle;fill:#333333;stroke-width:0.0770719"
       aria-label="BRNL" /><path
       d="m -168.74971,146.31736 v -0.0758 q 0,-0.0495 0.0495,-0.0495 h 0.18647 q 0.0495,0 0.0495,0.0495 v 0.0524 q 0,0.12237 0.0524,0.17773 0.0554,0.0524 0.18065,0.0524 h 0.20105 q 0.12529,0 0.18065,-0.0554 0.0554,-0.0583 0.0554,-0.18648 v -0.067 q 0,-0.0932 -0.0728,-0.14569 -0.0699,-0.0554 -0.17483,-0.0699 -0.10489,-0.0175 -0.23018,-0.0466 -0.12529,-0.0291 -0.23018,-0.067 -0.10489,-0.0379 -0.17774,-0.14277 -0.0699,-0.1049 -0.0699,-0.26806 v -0.12238 q 0,-0.2127 0.11947,-0.33216 0.12237,-0.12238 0.33507,-0.12238 h 0.30886 q 0.21561,0 0.33507,0.12238 0.12238,0.11946 0.12238,0.33216 v 0.0641 q 0,0.0495 -0.0495,0.0495 h -0.18647 q -0.0495,0 -0.0495,-0.0495 v -0.0379 q 0,-0.12529 -0.0554,-0.17773 -0.0524,-0.0554 -0.17773,-0.0554 h -0.18357 q -0.12529,0 -0.18065,0.0583 -0.0524,0.0554 -0.0524,0.19231 v 0.0903 q 0,0.13112 0.18939,0.17774 0.0845,0.0204 0.18356,0.035 0.10198,0.0146 0.20396,0.0437 0.10198,0.0291 0.18648,0.0787 0.0845,0.0466 0.13694,0.14568 0.0524,0.0961 0.0524,0.23601 v 0.11364 q 0,0.2127 -0.12238,0.33507 -0.11946,0.11947 -0.33216,0.11947 h -0.32633 q -0.2127,0 -0.33508,-0.11947 -0.12238,-0.12237 -0.12238,-0.33507 z m 2.6136,0.45454 h -0.93238 q -0.0495,0 -0.0495,-0.0495 v -1.77445 q 0,-0.0495 0.0495,-0.0495 h 0.93238 q 0.0466,0 0.0466,0.0495 v 0.1486 q 0,0.0495 -0.0466,0.0495 h -0.66432 q -0.035,0 -0.035,0.0291 v 0.49242 q 0,0.0291 0.035,0.0291 h 0.56234 q 0.0524,0 0.0524,0.0495 v 0.1486 q 0,0.0495 -0.0524,0.0495 h -0.56234 q -0.035,0 -0.035,0.0291 v 0.51864 q 0,0.032 0.035,0.032 h 0.66432 q 0.0466,0 0.0466,0.0495 v 0.1486 q 0,0.0495 -0.0466,0.0495 z m 1.39858,0 h -0.93239 q -0.0495,0 -0.0495,-0.0495 v -1.77445 q 0,-0.0495 0.0495,-0.0495 h 0.93239 q 0.0466,0 0.0466,0.0495 v 0.1486 q 0,0.0495 -0.0466,0.0495 h -0.66432 q -0.035,0 -0.035,0.0291 v 0.49242 q 0,0.0291 0.035,0.0291 h 0.56234 q 0.0524,0 0.0524,0.0495 v 0.1486 q 0,0.0495 -0.0524,0.0495 h -0.56234 q -0.035,0 -0.035,0.0291 v 0.51864 q 0,0.032 0.035,0.032 h 0.66432 q 0.0466,0 0.0466,0.0495 v 0.1486 q 0,0.0495 -0.0466,0.0495 z m 0.73134,-0.24767 h 0.41083 q 0.20979,0 0.20979,-0.21561 v -0.94696 q 0,-0.21561 -0.20979,-0.21561 h -0.41083 q -0.032,0 -0.032,0.0291 v 1.317 q 0,0.032 0.032,0.032 z m -0.31468,0.19813 v -1.77445 q 0,-0.0495 0.0495,-0.0495 h 0.71678 q 0.2127,0 0.33216,0.11946 0.12238,0.11655 0.12238,0.33217 v 0.97026 q 0,0.2127 -0.12238,0.33216 -0.11946,0.11947 -0.33216,0.11947 h -0.71678 q -0.0495,0 -0.0495,-0.0495 z"
       id="text58"
       style="font-weight:600;font-size:2.91371px;line-height:1.7;font-family:Rajdhani;-inkscape-font-specification:'Rajdhani, Semi-Bold';text-align:center;text-anchor:middle;fill:#333333;stroke-width:0.0770719"
       aria-label="SEED" /><path
       d="m -178.27761,176.01154 h 0.32634 q 0.0495,0 0.0495,0.0495 v 1.77445 q 0,0.0495 -0.0495,0.0495 h -0.18065 q -0.0495,0 -0.0495,-0.0495 v -1.47142 h -0.0117 l -0.37878,1.06642 q -0.0175,0.0466 -0.0641,0.0466 h -0.18648 q -0.0437,0 -0.0612,-0.0466 l -0.38752,-1.06933 h -0.0117 v 1.47433 q 0,0.0291 -0.0117,0.0408 -0.009,0.009 -0.0379,0.009 h -0.17774 q -0.0495,0 -0.0495,-0.0495 v -1.77445 q 0,-0.0495 0.0495,-0.0495 h 0.32634 q 0.032,0 0.0466,0.032 l 0.39918,1.12469 h 0.0146 l 0.4021,-1.12469 q 0.006,-0.032 0.0437,-0.032 z m 0.90325,1.87352 h -0.20978 q -0.0408,0 -0.0291,-0.0495 l 0.50698,-1.77445 q 0.0146,-0.0495 0.0699,-0.0495 h 0.29137 q 0.0583,0 0.0699,0.0495 l 0.50699,1.77445 q 0.0117,0.0495 -0.032,0.0495 h -0.20688 q -0.0262,0 -0.0379,-0.009 -0.009,-0.0117 -0.0146,-0.0408 l -0.11072,-0.37878 h -0.64102 l -0.11072,0.37878 q -0.0117,0.0495 -0.0524,0.0495 z m 0.47785,-1.5938 -0.25641,0.93238 h 0.52739 l -0.25932,-0.93238 z m 1.31409,-0.23019 v 1.77445 q 0,0.0495 -0.0495,0.0495 h -0.18356 q -0.0495,0 -0.0495,-0.0495 v -1.77445 q 0,-0.0495 0.0495,-0.0495 h 0.18356 q 0.0495,0 0.0495,0.0495 z m 0.67015,1.82399 h -0.18065 q -0.0495,0 -0.0495,-0.0495 v -1.77445 q 0,-0.0495 0.0495,-0.0495 h 0.16317 q 0.0466,0 0.0641,0.032 l 0.70512,1.26746 h 0.0117 v -1.24998 q 0,-0.0495 0.0495,-0.0495 h 0.18065 q 0.0495,0 0.0495,0.0495 v 1.77445 q 0,0.0495 -0.0495,0.0495 h -0.15734 q -0.0466,0 -0.0757,-0.0466 l -0.69929,-1.2529 h -0.0117 v 1.24998 q 0,0.0495 -0.0495,0.0495 z"
       id="text81"
       style="font-weight:600;font-size:2.91371px;line-height:1.7;font-family:Rajdhani;-inkscape-font-specification:'Rajdhani, Semi-Bold';text-align:center;text-anchor:middle;fill:#333333;stroke-width:0.0770719"
       aria-label="MAIN" /><path
       d="m -167.98195,177.88506 h -0.20978 q -0.0408,0 -0.0291,-0.0495 l 0.50699,-1.77445 q 0.0146,-0.0495 0.0699,-0.0495 h 0.29138 q 0.0583,0 0.0699,0.0495 l 0.50699,1.77445 q 0.0117,0.0495 -0.032,0.0495 h -0.20687 q -0.0262,0 -0.0379,-0.009 -0.009,-0.0117 -0.0146,-0.0408 l -0.11072,-0.37878 h -0.64102 l -0.11072,0.37878 q -0.0117,0.0495 -0.0525,0.0495 z m 0.47785,-1.5938 -0.2564,0.93238 h 0.52738 l -0.25932,-0.93238 z m 1.24999,1.5938 h -0.18357 q -0.0495,0 -0.0495,-0.0495 v -1.77445 q 0,-0.0495 0.0495,-0.0495 h 0.68181 q 0.2127,0 0.33216,0.12238 0.12238,0.11946 0.12238,0.33216 v 0.24475 q 0,0.33508 -0.2768,0.42249 v 0.0117 l 0.32342,0.68181 q 0.032,0.0583 -0.0379,0.0583 h -0.18065 q -0.0699,0 -0.0903,-0.0495 l -0.31176,-0.67015 h -0.29429 q -0.035,0 -0.035,0.0291 v 0.64101 q 0,0.0495 -0.0495,0.0495 z m 0.0816,-0.95279 h 0.37004 q 0.21561,0 0.21561,-0.2127 v -0.24475 q 0,-0.21561 -0.21561,-0.21561 h -0.37004 q -0.032,0 -0.032,0.0291 v 0.6148 q 0,0.0291 0.032,0.0291 z m 2.02503,0.95279 h -0.33799 q -0.21562,0 -0.33508,-0.11947 -0.11655,-0.11946 -0.11655,-0.33216 v -0.97026 q 0,-0.21562 0.11655,-0.33217 0.11946,-0.11946 0.33508,-0.11946 h 0.33799 q 0.2127,0 0.33216,0.11946 0.11946,0.11655 0.11946,0.33217 v 0.13985 q 0,0.0525 -0.0524,0.0525 h -0.18357 q -0.0495,0 -0.0495,-0.0525 v -0.1282 q 0,-0.21561 -0.20979,-0.21561 h -0.25349 q -0.20979,0 -0.20979,0.21561 v 0.94696 q 0,0.21561 0.20979,0.21561 h 0.25349 q 0.20979,0 0.20979,-0.21561 v -0.12821 q 0,-0.0524 0.0495,-0.0524 h 0.18357 q 0.0524,0 0.0524,0.0524 v 0.13986 q 0,0.2127 -0.11946,0.33216 -0.11946,0.11947 -0.33216,0.11947 z"
       id="text82"
       style="font-weight:600;font-size:2.91371px;line-height:1.7;font-family:Rajdhani;-inkscape-font-specification:'Rajdhani, Semi-Bold';text-align:center;text-anchor:middle;fill:#333333;stroke-width:0.0770719"
       aria-label="ARC" /><path
       d="m -167.97029,88.655531 h 0.40792 q 0.21853,0 0.21853,-0.209787 v -0.18065 q 0,-0.209787 -0.23018,-0.209787 h -0.39627 q -0.032,0 -0.032,0.02914 v 0.54195 q 0,0.02914 0.032,0.02914 z m 0,-0.833321 h 0.37878 q 0.22145,0 0.22145,-0.2127 v -0.134031 q 0,-0.209787 -0.21562,-0.209787 h -0.38461 q -0.032,0 -0.032,0.02914 v 0.498244 q 0,0.02914 0.032,0.02914 z m -0.31468,1.025626 v -1.774449 q 0,-0.04953 0.0495,-0.04953 h 0.69055 q 0.21562,0 0.33508,0.116548 0.11946,0.116549 0.11946,0.329249 v 0.142772 q 0,0.253493 -0.23892,0.326336 0.11363,0.01457 0.18648,0.09907 0.0757,0.0845 0.0757,0.227269 v 0.186478 q 0,0.212701 -0.11946,0.329249 -0.11946,0.116548 -0.33216,0.116548 h -0.71678 q -0.0495,0 -0.0495,-0.04953 z m 1.84147,0.04953 h -0.18357 q -0.0495,0 -0.0495,-0.04953 v -1.774449 q 0,-0.04953 0.0495,-0.04953 h 0.69347 q 0.2127,0 0.33216,0.119462 0.11946,0.116548 0.11946,0.332163 v 0.303026 q 0,0.212701 -0.11946,0.332163 -0.11946,0.119462 -0.33216,0.119462 h -0.42541 q -0.035,0 -0.035,0.02914 v 0.588569 q 0,0.04953 -0.0495,0.04953 z m 0.0816,-0.917818 h 0.38752 q 0.20688,0 0.20688,-0.215615 v -0.276802 q 0,-0.215615 -0.20688,-0.215615 h -0.38752 q -0.032,0 -0.032,0.02914 v 0.649758 q 0,0.02914 0.032,0.02914 z m 2.50579,-0.955697 h 0.32634 q 0.0495,0 0.0495,0.04953 v 1.774449 q 0,0.04953 -0.0495,0.04953 h -0.18065 q -0.0495,0 -0.0495,-0.04953 v -1.471423 h -0.0116 l -0.37878,1.066418 q -0.0175,0.04662 -0.0641,0.04662 h -0.18647 q -0.0437,0 -0.0612,-0.04662 l -0.38752,-1.069332 h -0.0117 v 1.474337 q 0,0.02914 -0.0117,0.04079 -0.009,0.0087 -0.0379,0.0087 h -0.17774 q -0.0495,0 -0.0495,-0.04953 v -1.774449 q 0,-0.04953 0.0495,-0.04953 h 0.32634 q 0.032,0 0.0466,0.03205 l 0.39917,1.124692 h 0.0146 l 0.4021,-1.124692 q 0.006,-0.03205 0.0437,-0.03205 z"
       id="text83"
       style="font-weight:600;font-size:2.91371px;line-height:1.7;font-family:Rajdhani;-inkscape-font-specification:'Rajdhani, Semi-Bold';text-align:center;text-anchor:middle;fill:#333333;stroke-width:0.0770719"
       aria-label="BPM" /><path
       style="fill:#f2f2f2;fill-opacity:1;stroke:#b3b3b3;stroke-width:0.55404;stroke-dasharray:none;stroke-opacity:1"
       d="m -198.25995,156.09649 v 2.03671"
       id="path95"
       sodipodi:nodetypes="cc" /><path
       style="fill:#f2f2f2;fill-opacity:1;stroke:#b3b3b3;stroke-width:0.55404;stroke-dasharray:none;stroke-opacity:1"
       d="m -187.46751,156.09649 v 2.03671"
       id="path96"
       sodipodi:nodetypes="cc" /><path
       style="fill:#f2f2f2;fill-opacity:1;stroke:#b3b3b3;stroke-width:0.55404;stroke-dasharray:none;stroke-opacity:1"
       d="m -209.0524,133.23536 v 0.7256"
       id="path97"
       sodipodi:nodetypes="cc" /><path
       style="fill:#f2f2f2;fill-opacity:1;stroke:#b3b3b3;stroke-width:0.55404;stroke-dasharray:none;stroke-opacity:1"
       d="m -198.25995,131.92425 v 2.03671"
       id="path98"
       sodipodi:nodetypes="cc" /><path
       style="fill:#f2f2f2;fill-opacity:1;stroke:#b3b3b3;stroke-width:0.55404;stroke-dasharray:none;stroke-opacity:1"
       d="m -187.46751,131.92425 v 2.03671"
       id="path99"
       sodipodi:nodetypes="cc" /><path
       style="fill:#f2f2f2;fill-opacity:1;stroke:#b3b3b3;stroke-width:0.55404;stroke-dasharray:none;stroke-opacity:1"
       d="m -209.0524,101.40187 v 0.7256"
       id="path100"
       sodipodi:nodetypes="cc" /><path
       style="fill:#f2f2f2;fill-opacity:1;stroke:#b3b3b3;stroke-width:0.55404;stroke-dasharray:none;stroke-opacity:1"
       d="m -198.25995,100.09076 v 2.03671"
       id="path101"
       sodipodi:nodetypes="cc" /><path
       style="fill:#f2f2f2;fill-opacity:1;stroke:#b3b3b3;stroke-width:0.55404;stroke-dasharray:none;stroke-opacity:1"
       d="m -187.46751,100.09076 v 2.03671"
       id="path107"
       sodipodi:nodetypes="cc" /><path
       style="fill:#f2f2f2;fill-opacity:1;stroke:#b3b3b3;stroke-width:0.55404;stroke-dasharray:none;stroke-opacity:1"
       d="m -176.85908,131.92425 v 2.03671"
       id="path108"
       sodipodi:nodetypes="cc" /><path
       style="fill:#f2f2f2;fill-opacity:1;stroke:#b3b3b3;stroke-width:0.55404;stroke-dasharray:none;stroke-opacity:1"
       d="m -166.06664,131.92425 v 2.03671"
       id="path109"
       sodipodi:nodetypes="cc" /><path
       style="fill:#f2f2f2;fill-opacity:1;stroke:#b3b3b3;stroke-width:0.55404;stroke-dasharray:none;stroke-opacity:1"
       d="m -166.06664,156.09649 v 2.03671"
       id="path111"
       sodipodi:nodetypes="cc" /></g></svg>
