<?xml version="1.0" encoding="UTF-8" standalone="no"?>
<!-- Created with Inkscape (http://www.inkscape.org/) -->

<svg
   width="3.5614569mm"
   height="3.02194mm"
   viewBox="0 0 3.561457 3.02194"
   version="1.1"
   id="svg1"
   inkscape:version="1.4.2 (f4327f4, 2025-05-13)"
   sodipodi:docname="c.svg"
   xmlns:inkscape="http://www.inkscape.org/namespaces/inkscape"
   xmlns:sodipodi="http://sodipodi.sourceforge.net/DTD/sodipodi-0.dtd"
   xmlns="http://www.w3.org/2000/svg"
   xmlns:svg="http://www.w3.org/2000/svg">
  <sodipodi:namedview
     id="namedview1"
     pagecolor="#ffffff"
     bordercolor="#cccccc"
     borderopacity="1"
     inkscape:showpageshadow="0"
     inkscape:pageopacity="1"
     inkscape:pagecheckerboard="0"
     inkscape:deskcolor="#d1d1d1"
     inkscape:document-units="mm"
     inkscape:zoom="256"
     inkscape:cx="3.0410156"
     inkscape:cy="1.0410156"
     inkscape:window-width="1920"
     inkscape:window-height="1009"
     inkscape:window-x="-8"
     inkscape:window-y="-8"
     inkscape:window-maximized="1"
     inkscape:current-layer="layer1" />
  <defs
     id="defs1" />
  <g
     inkscape:label="Layer 1"
     inkscape:groupmode="layer"
     id="layer1"
     transform="translate(-93.133336,-153.19377)">
    <path
       id="path105"
       style="fill:#333333;stroke-width:0.0367905"
       d="m 93.383586,153.19377 c -0.05968,0.003 -0.114103,0.0254 -0.156803,0.0613 l 0.272639,0.27444 h 0.24817 l 0.21133,-0.21133 v -0.12441 z m 0.629601,0 v 0.12443 l 0.21133,0.21133 h 0.24817 l 0.272765,-0.27463 c -0.0427,-0.0358 -0.09696,-0.0583 -0.156585,-0.0611 z m -0.820681,0.0961 c -0.03698,0.0452 -0.05917,0.10319 -0.05917,0.16647 v 1.23398 h 0.169874 l 0.165865,-0.16476 v -0.95931 z m 0.160148,1.42073 0.123922,0.12639 z m -0.219306,0.008 v 1.23418 c 0,0.0632 0.02211,0.12114 0.05909,0.16641 l 0.276724,-0.27652 v -0.95931 l -0.165864,-0.1648 z m 0.366074,1.1609 -0.272773,0.27457 c 0.04169,0.0351 0.09464,0.0576 0.15276,0.0612 h 0.579513 v -0.12442 l -0.21133,-0.21133 z m 0.725095,0 -0.21133,0.21133 v 0.12442 h 0.579858 c 0.05808,-0.003 0.110851,-0.026 0.152542,-0.061 l -0.2729,-0.27475 z"
       sodipodi:nodetypes="cccccccccccccccscccccccccsccccccccccccccccccc" />
  </g>
</svg>
