<?xml version="1.0" encoding="UTF-8" standalone="no"?>
<!-- Created with Inkscape (http://www.inkscape.org/) -->

<svg
   width="14.507332mm"
   height="3.0218811mm"
   viewBox="0 0 14.507332 3.0218811"
   version="1.1"
   id="svg1"
   inkscape:version="1.4.2 (f4327f4, 2025-05-13)"
   sodipodi:docname="digitos_main.svg"
   xmlns:inkscape="http://www.inkscape.org/namespaces/inkscape"
   xmlns:sodipodi="http://sodipodi.sourceforge.net/DTD/sodipodi-0.dtd"
   xmlns="http://www.w3.org/2000/svg"
   xmlns:svg="http://www.w3.org/2000/svg">
  <sodipodi:namedview
     id="namedview1"
     pagecolor="#ffffff"
     bordercolor="#cccccc"
     borderopacity="1"
     inkscape:showpageshadow="0"
     inkscape:pageopacity="1"
     inkscape:pagecheckerboard="0"
     inkscape:deskcolor="#d1d1d1"
     inkscape:document-units="mm"
     inkscape:zoom="4.0668163"
     inkscape:cx="-17.827213"
     inkscape:cy="20.286139"
     inkscape:window-width="1920"
     inkscape:window-height="1009"
     inkscape:window-x="-8"
     inkscape:window-y="-8"
     inkscape:window-maximized="1"
     inkscape:current-layer="layer1" />
  <defs
     id="defs1" />
  <g
     inkscape:label="Layer 1"
     inkscape:groupmode="layer"
     id="layer1"
     transform="translate(-93.133331,-153.19375)">
    <g
       id="g106"
       transform="matrix(0.84054379,0,0,0.84054379,-6.527172,20.043129)">
      <path
         id="path53"
         style="fill:#333333;stroke-width:0.0437699"
         d="m 127.47051,158.41012 c -0.071,0.004 -0.13575,0.0302 -0.18655,0.0729 l 0.32436,0.32651 h 0.29525 l 0.25142,-0.25142 v -0.14802 z m 0.74904,0 v 0.14803 l 0.25142,0.25142 h 0.29525 l 0.32451,-0.32672 c -0.0508,-0.0426 -0.11536,-0.0694 -0.18629,-0.0727 z m 0.91206,0.11409 -0.32932,0.32908 v 1.1413 l 0.19733,0.19602 h 0.2021 v -1.48445 c -0.004,-0.069 -0.0292,-0.13198 -0.0701,-0.18195 z m -1.88843,2.7e-4 c -0.044,0.0538 -0.0704,0.12277 -0.0704,0.19806 v 1.46807 h 0.2021 l 0.19733,-0.19602 v -1.1413 z m 0.94453,0.0692 -0.13995,0.14325 v 1.28173 c 0,0 0.13391,0.13592 0.13864,0.13864 0.005,0.003 0.14032,-0.14032 0.14032,-0.14032 v -1.28429 z m -0.56719,0.25132 v 0.43896 l 0.22618,0.7037 h 0.15414 v -0.43394 l -0.24461,-0.70872 z m 0.99778,0 -0.24461,0.70872 v 0.43394 h 0.15413 l 0.2262,-0.7037 V 158.845 Z m -1.01789,1.19879 -0.1667,0.1709 0.14743,0.15036 h 0.41677 l 0.16168,-0.16168 -0.15958,-0.15958 z m 0.77412,0 -0.1596,0.15958 0.16169,0.16168 h 0.41677 l 0.14744,-0.15036 -0.16671,-0.1709 z m -1.20173,0.1809 v 1.46832 c 0,0.0752 0.0263,0.14412 0.0703,0.19797 l 0.32922,-0.32897 v -1.1413 l -0.19733,-0.19602 z m 1.82682,0 -0.19733,0.19602 v 1.1413 l 0.32943,0.32917 c 0.0408,-0.0499 0.0665,-0.1128 0.07,-0.18173 v -1.48476 z m -0.81322,0.0334 c -0.005,0.003 -0.13864,0.13865 -0.13864,0.13865 v 1.28172 l 0.13995,0.14325 0.13901,-0.139 v -1.2843 c 0,0 -0.13559,-0.14304 -0.14032,-0.14032 z m -0.3397,0.16964 -0.22618,0.70369 v 0.43897 h 0.13571 l 0.24461,-0.70871 v -0.43395 z m 0.52699,0 v 0.43395 l 0.24461,0.70871 h 0.13572 v -0.43897 l -0.2262,-0.70369 z m -0.76537,1.17806 -0.32452,0.32665 c 0.0496,0.0418 0.11259,0.0685 0.18174,0.0728 h 0.68945 v -0.14802 l -0.25142,-0.25142 z m 0.86265,0 -0.25142,0.25142 v 0.14802 h 0.68986 c 0.0691,-0.004 0.13188,-0.0309 0.18148,-0.0726 l -0.32467,-0.32687 z" />
      <path
         id="path102"
         style="fill:#333333;stroke-width:0.0437699"
         d="m 129.67866,158.41012 c -0.0711,0.004 -0.13576,0.0302 -0.18656,0.0729 l 0.32437,0.32651 h 0.29524 l 0.25142,-0.25142 v -0.14802 z m 0.74903,0 v 0.14803 l 0.25142,0.25142 h 0.29525 l 0.32451,-0.32672 c -0.0508,-0.0426 -0.11536,-0.0694 -0.18629,-0.0727 z m 0.91207,0.11409 -0.32933,0.32908 v 1.1413 l 0.19734,0.19602 h 0.2021 v -1.48445 c -0.004,-0.069 -0.0292,-0.13198 -0.0701,-0.18195 z m -1.88844,2.7e-4 c -0.044,0.0538 -0.0704,0.12277 -0.0704,0.19806 v 1.46807 h 0.2021 l 0.19734,-0.19602 v -1.1413 z m 0.94453,0.0692 -0.13995,0.14325 v 1.28173 c 0,0 0.13392,0.13592 0.13865,0.13864 0.005,0.003 0.14031,-0.14032 0.14031,-0.14032 v -1.28429 z m -0.56719,0.25132 v 0.43896 l 0.22619,0.7037 h 0.15414 v -0.43394 l -0.24462,-0.70872 z m 0.99778,0 -0.24461,0.70872 v 0.43394 h 0.15414 l 0.22619,-0.7037 V 158.845 Z m -1.01788,1.19879 -0.16671,0.1709 0.14744,0.15036 h 0.41677 l 0.16168,-0.16168 -0.15959,-0.15958 z m 0.77411,0 -0.15959,0.15958 0.16168,0.16168 h 0.41677 l 0.14744,-0.15036 -0.1667,-0.1709 z m -1.20172,0.1809 v 1.46832 c 0,0.0752 0.0263,0.14412 0.0702,0.19797 l 0.32922,-0.32897 v -1.1413 l -0.19734,-0.19602 z m 1.82682,0 -0.19734,0.19602 v 1.1413 l 0.32944,0.32917 c 0.0408,-0.0499 0.0665,-0.1128 0.07,-0.18173 v -1.48476 z m -0.81322,0.0334 c -0.005,0.003 -0.13865,0.13865 -0.13865,0.13865 v 1.28172 l 0.13995,0.14325 0.13901,-0.139 v -1.2843 c 0,0 -0.13559,-0.14304 -0.14031,-0.14032 z m -0.3397,0.16964 -0.22619,0.70369 v 0.43897 h 0.13571 l 0.24462,-0.70871 v -0.43395 z m 0.52698,0 v 0.43395 l 0.24461,0.70871 h 0.13572 v -0.43897 l -0.22619,-0.70369 z m -0.76536,1.17806 -0.32453,0.32665 c 0.0496,0.0418 0.11259,0.0685 0.18174,0.0728 h 0.68945 v -0.14802 l -0.25142,-0.25142 z m 0.86264,0 -0.25142,0.25142 v 0.14802 h 0.68987 c 0.0691,-0.004 0.13187,-0.0309 0.18147,-0.0726 l -0.32467,-0.32687 z" />
      <path
         id="path103"
         style="fill:#333333;stroke-width:0.0437699"
         d="m 131.8868,158.41012 c -0.071,0.004 -0.13575,0.0302 -0.18655,0.0729 l 0.32436,0.32651 h 0.29525 l 0.25142,-0.25142 v -0.14802 z m 0.74904,0 v 0.14803 l 0.25142,0.25142 h 0.29525 l 0.32451,-0.32672 c -0.0508,-0.0426 -0.11536,-0.0694 -0.18629,-0.0727 z m 0.91207,0.11409 -0.32933,0.32908 v 1.1413 l 0.19734,0.19602 h 0.20209 v -1.48445 c -0.004,-0.069 -0.0292,-0.13198 -0.0702,-0.18195 z m -1.88844,2.7e-4 c -0.044,0.0538 -0.0704,0.12277 -0.0704,0.19806 v 1.46807 h 0.2021 l 0.19733,-0.19602 v -1.1413 z m 0.94453,0.0692 -0.13995,0.14325 v 1.28173 c 0,0 0.13391,0.13592 0.13865,0.13864 0.005,0.003 0.14031,-0.14032 0.14031,-0.14032 v -1.28429 z m -0.56719,0.25132 v 0.43896 l 0.22618,0.7037 h 0.15414 v -0.43394 l -0.24461,-0.70872 z m 0.99778,0 -0.24461,0.70872 v 0.43394 h 0.15413 l 0.2262,-0.7037 V 158.845 Z m -1.01788,1.19879 -0.16671,0.1709 0.14744,0.15036 h 0.41676 l 0.16168,-0.16168 -0.15958,-0.15958 z m 0.77411,0 -0.15959,0.15958 0.16168,0.16168 h 0.41676 l 0.14745,-0.15036 -0.16671,-0.1709 z m -1.20173,0.1809 v 1.46832 c 0,0.0752 0.0263,0.14412 0.0702,0.19797 l 0.32923,-0.32897 v -1.1413 l -0.19734,-0.19602 z m 1.82683,0 -0.19734,0.19602 v 1.1413 l 0.32943,0.32917 c 0.0408,-0.0499 0.0665,-0.1128 0.07,-0.18173 v -1.48476 z m -0.81322,0.0334 c -0.005,0.003 -0.13865,0.13865 -0.13865,0.13865 v 1.28172 l 0.13995,0.14325 0.13901,-0.139 v -1.2843 c 0,0 -0.13559,-0.14304 -0.14031,-0.14032 z m -0.33971,0.16964 -0.22618,0.70369 v 0.43897 h 0.13571 l 0.24461,-0.70871 v -0.43395 z m 0.52699,0 v 0.43395 l 0.24461,0.70871 h 0.13572 v -0.43897 l -0.2262,-0.70369 z m -0.76537,1.17806 -0.32452,0.32665 c 0.0496,0.0418 0.11259,0.0685 0.18174,0.0728 h 0.68945 v -0.14802 l -0.25142,-0.25146 z m 0.86265,0 -0.25142,0.25142 v 0.14802 h 0.68987 c 0.0691,-0.004 0.13187,-0.0309 0.18147,-0.0726 l -0.32467,-0.32687 z" />
      <path
         id="path104"
         style="fill:#333333;stroke-width:0.0437699"
         d="m 134.09495,158.41012 c -0.0711,0.004 -0.13576,0.0302 -0.18656,0.0729 l 0.32437,0.32651 h 0.29524 l 0.25143,-0.25142 v -0.14802 z m 0.74903,0 v 0.14803 l 0.25142,0.25142 h 0.29525 l 0.32451,-0.32672 c -0.0508,-0.0426 -0.11535,-0.0694 -0.18628,-0.0727 z m 0.91207,0.11409 -0.32933,0.32908 v 1.1413 l 0.19734,0.19602 h 0.2021 v -1.48445 c -0.004,-0.069 -0.0292,-0.13198 -0.0701,-0.18195 z m -1.88844,2.7e-4 c -0.044,0.0538 -0.0704,0.12277 -0.0704,0.19806 v 1.46807 h 0.2021 l 0.19733,-0.19602 v -1.1413 z m 0.94453,0.0692 -0.13995,0.14325 v 1.28173 c 0,0 0.13392,0.13592 0.13865,0.13864 0.005,0.003 0.14031,-0.14032 0.14031,-0.14032 v -1.28429 z m -0.56719,0.25132 v 0.43896 l 0.22619,0.7037 h 0.15414 v -0.43394 l -0.24462,-0.70872 z m 0.99779,0 -0.24462,0.70872 v 0.43394 h 0.15414 l 0.22619,-0.7037 V 158.845 Z m -1.01789,1.19879 -0.16671,0.1709 0.14744,0.15036 h 0.41677 l 0.16168,-0.16168 -0.15958,-0.15958 z m 0.77411,0 -0.15959,0.15958 0.16168,0.16168 h 0.41677 l 0.14745,-0.15036 -0.16671,-0.1709 z m -1.20172,0.1809 v 1.46832 c 0,0.0752 0.0263,0.14412 0.0702,0.19797 l 0.32922,-0.32897 v -1.1413 l -0.19733,-0.19603 z m 1.82682,0 -0.19734,0.19602 v 1.1413 l 0.32944,0.32917 c 0.0408,-0.0499 0.0665,-0.1128 0.07,-0.18173 v -1.48476 z m -0.81322,0.0334 c -0.005,0.003 -0.13865,0.13865 -0.13865,0.13865 v 1.28172 l 0.13995,0.14325 0.13901,-0.139 v -1.2843 c 0,0 -0.13559,-0.14304 -0.14031,-0.14032 z m -0.3397,0.16964 -0.22619,0.70369 v 0.43897 h 0.13571 l 0.24462,-0.70871 v -0.43395 z m 0.52698,0 v 0.43395 l 0.24462,0.70871 h 0.13571 v -0.43897 l -0.22619,-0.70369 z m -0.76536,1.17806 -0.32453,0.32665 c 0.0496,0.0418 0.11259,0.0685 0.18174,0.0728 h 0.68946 v -0.14802 L 134.528,161.6058 Z m 0.86264,0 -0.25142,0.25142 v 0.14802 h 0.68987 c 0.0691,-0.004 0.13188,-0.0309 0.18147,-0.0726 l -0.32467,-0.32687 z" />
      <path
         id="path105"
         style="fill:#333333;stroke-width:0.0437699"
         d="m 118.86443,158.41012 c -0.071,0.004 -0.13575,0.0302 -0.18655,0.0729 l 0.32436,0.32651 h 0.29525 l 0.25142,-0.25142 v -0.14802 z m 0.74904,0 v 0.14803 l 0.25142,0.25142 h 0.29525 l 0.32451,-0.32672 c -0.0508,-0.0426 -0.11536,-0.0694 -0.18629,-0.0727 z m 0.91206,0.11409 -0.32932,0.32908 v 1.1413 l 0.19733,0.19602 h 0.2021 v -1.48445 c -0.004,-0.069 -0.0292,-0.13198 -0.0701,-0.18195 z m -1.88843,2.7e-4 c -0.044,0.0538 -0.0704,0.12277 -0.0704,0.19806 v 1.46807 h 0.2021 l 0.19733,-0.19602 v -1.1413 z m 0.94453,0.0692 -0.13995,0.14325 v 1.28173 c 0,0 0.13391,0.13592 0.13864,0.13864 0.005,0.003 0.14032,-0.14032 0.14032,-0.14032 v -1.28429 z m -0.56719,0.25132 v 0.43896 l 0.22618,0.7037 h 0.15414 v -0.43394 l -0.24461,-0.70872 z m 0.99778,0 -0.24461,0.70872 v 0.43394 h 0.15413 l 0.2262,-0.7037 V 158.845 Z m -1.01789,1.19879 -0.1667,0.1709 0.14743,0.15036 h 0.41677 l 0.16168,-0.16168 -0.15958,-0.15958 z m 0.77412,0 -0.1596,0.15958 0.16169,0.16168 h 0.41677 l 0.14744,-0.15036 -0.16671,-0.1709 z m -1.20173,0.1809 v 1.46832 c 0,0.0752 0.0263,0.14412 0.0703,0.19797 l 0.32922,-0.32897 v -1.1413 l -0.19733,-0.19602 z m 1.82682,0 -0.19733,0.19602 v 1.1413 l 0.32943,0.32917 c 0.0408,-0.0499 0.0665,-0.1128 0.07,-0.18173 v -1.48476 z m -0.81322,0.0334 c -0.005,0.003 -0.13864,0.13865 -0.13864,0.13865 v 1.28172 l 0.13995,0.14325 0.13901,-0.139 v -1.2843 c 0,0 -0.13559,-0.14304 -0.14032,-0.14032 z m -0.3397,0.16964 -0.22618,0.70369 v 0.43897 h 0.13571 l 0.24461,-0.70871 v -0.43395 z m 0.52699,0 v 0.43395 l 0.24461,0.70871 h 0.13572 v -0.43897 l -0.2262,-0.70369 z m -0.76537,1.17806 -0.32452,0.32665 c 0.0496,0.0418 0.11259,0.0685 0.18174,0.0728 h 0.68945 v -0.14802 l -0.25142,-0.25142 z m 0.86265,0 -0.25142,0.25142 v 0.14802 h 0.68986 c 0.0691,-0.004 0.13188,-0.0309 0.18148,-0.0726 l -0.32467,-0.32687 z" />
      <path
         id="path106"
         style="fill:#333333;stroke-width:0.0437699"
         d="m 121.07258,158.41012 c -0.0711,0.004 -0.13576,0.0302 -0.18656,0.0729 l 0.32437,0.32651 h 0.29524 l 0.25142,-0.25142 v -0.14802 z m 0.74903,0 v 0.14803 l 0.25142,0.25142 h 0.29525 l 0.32451,-0.32672 c -0.0508,-0.0426 -0.11536,-0.0694 -0.18629,-0.0727 z m 0.91207,0.11409 -0.32933,0.32908 v 1.1413 l 0.19734,0.19602 h 0.2021 v -1.48445 c -0.004,-0.069 -0.0292,-0.13198 -0.0701,-0.18195 z m -1.88844,2.7e-4 c -0.044,0.0538 -0.0704,0.12277 -0.0704,0.19806 v 1.46807 h 0.2021 l 0.19734,-0.19602 v -1.1413 z m 0.94453,0.0692 -0.13995,0.14325 v 1.28173 c 0,0 0.13392,0.13592 0.13865,0.13864 0.005,0.003 0.14031,-0.14032 0.14031,-0.14032 v -1.28429 z m -0.56719,0.25132 v 0.43896 l 0.22619,0.7037 h 0.15414 v -0.43394 l -0.24462,-0.70872 z m 0.99778,0 -0.24461,0.70872 v 0.43394 h 0.15414 l 0.22619,-0.7037 V 158.845 Z m -1.01788,1.19879 -0.16671,0.1709 0.14744,0.15036 h 0.41677 l 0.16168,-0.16168 -0.15959,-0.15958 z m 0.77411,0 -0.15959,0.15958 0.16168,0.16168 h 0.41677 l 0.14744,-0.15036 -0.1667,-0.1709 z m -1.20172,0.1809 v 1.46832 c 0,0.0752 0.0263,0.14412 0.0702,0.19797 l 0.32922,-0.32897 v -1.1413 l -0.19734,-0.19602 z m 1.82682,0 -0.19734,0.19602 v 1.1413 l 0.32944,0.32917 c 0.0408,-0.0499 0.0665,-0.1128 0.07,-0.18173 v -1.48476 z m -0.81322,0.0334 c -0.005,0.003 -0.13865,0.13865 -0.13865,0.13865 v 1.28172 l 0.13995,0.14325 0.13901,-0.139 v -1.2843 c 0,0 -0.13559,-0.14304 -0.14031,-0.14032 z m -0.3397,0.16964 -0.22619,0.70369 v 0.43897 h 0.13571 l 0.24462,-0.70871 v -0.43395 z m 0.52698,0 v 0.43395 l 0.24461,0.70871 h 0.13572 v -0.43897 l -0.22619,-0.70369 z m -0.76536,1.17806 -0.32453,0.32665 c 0.0496,0.0418 0.11259,0.0685 0.18174,0.0728 h 0.68945 v -0.14802 l -0.25142,-0.25142 z m 0.86264,0 -0.25142,0.25142 v 0.14802 h 0.68987 c 0.0691,-0.004 0.13187,-0.0309 0.18147,-0.0726 l -0.32467,-0.32687 z" />
    </g>
  </g>
</svg>
