<?xml version="1.0" encoding="UTF-8" standalone="no"?>
<!-- Created with Inkscape (http://www.inkscape.org/) -->

<svg
   width="47.695102mm"
   height="100.5406mm"
   viewBox="0 0 47.695102 100.5406"
   version="1.1"
   id="svg1"
   sodipodi:docname="gina.svg"
   inkscape:version="1.4.2 (f4327f4, 2025-05-13)"
   xmlns:inkscape="http://www.inkscape.org/namespaces/inkscape"
   xmlns:sodipodi="http://sodipodi.sourceforge.net/DTD/sodipodi-0.dtd"
   xmlns="http://www.w3.org/2000/svg"
   xmlns:svg="http://www.w3.org/2000/svg">
  <sodipodi:namedview
     id="namedview1"
     pagecolor="#ffffff"
     bordercolor="#cccccc"
     borderopacity="1"
     inkscape:showpageshadow="0"
     inkscape:pageopacity="1"
     inkscape:pagecheckerboard="0"
     inkscape:deskcolor="#d1d1d1"
     inkscape:document-units="mm"
     inkscape:zoom="11.816274"
     inkscape:cx="84.755991"
     inkscape:cy="189.69601"
     inkscape:window-width="1920"
     inkscape:window-height="1009"
     inkscape:window-x="-8"
     inkscape:window-y="-8"
     inkscape:window-maximized="1"
     inkscape:current-layer="layer1" />
  <defs
     id="defs1" />
  <g
     inkscape:label="Layer 1"
     inkscape:groupmode="layer"
     id="layer1"
     transform="translate(-85.195831,-98.160416) scale(1.2,1)">
    <rect
       style="fill:#e6e6e6;stroke:none;stroke-width:0.575"
       id="rect6"
       width="39.745918"
       height="100.5406"
       x="85.195831"
       y="98.160416" />
    <path
       id="rect7"
       style="fill:#f2f2f2;stroke-width:0.568231"
       d="M 87.915045 99.13555 C 88.107355 99.308762 88.313781 99.493572 88.527411 99.684354 C 89.530271 100.58004 91.036497 101.94481 91.875527 102.71673 C 93.570277 104.27592 96.685759 107.1658 96.894859 107.37329 C 97.007399 107.48498 96.944757 107.60374 96.515037 108.09831 C 96.232417 108.42358 95.991899 108.70117 95.978119 108.71481 C 95.965719 108.72841 95.265932 108.79241 94.423692 108.85692 C 93.581442 108.92142 91.524341 109.08076 89.852911 109.21142 C 88.599991 109.30932 87.345905 109.4054 86.170965 109.49409 L 86.170965 109.91319 C 89.584655 109.66015 93.694583 109.34787 94.645383 109.2662 C 95.470023 109.1954 95.855974 109.18938 95.881484 109.24708 C 95.901884 109.29318 96.065392 110.4485 96.244252 111.81436 L 96.569297 114.29793 L 95.497528 115.3821 C 94.908228 115.97847 94.011741 116.89935 93.505401 117.42849 C 92.999071 117.95763 92.552504 118.41712 92.513214 118.44962 C 92.473914 118.48212 91.150855 118.72546 89.572825 118.99015 C 87.994815 119.25483 86.527382 119.50724 86.312042 119.55084 C 86.278042 119.55784 86.230245 119.5666 86.170965 119.5772 L 86.170965 119.99009 C 86.242965 119.97819 86.31574 119.96602 86.38904 119.95392 C 87.96014 119.69529 89.88232 119.37293 90.66113 119.23768 C 91.43994 119.10244 92.164301 118.99222 92.270851 118.99222 C 92.426121 118.99222 92.582193 119.27467 93.054783 120.41487 C 93.379193 121.19755 94.011555 122.7042 94.459865 123.76247 L 95.274802 125.68638 L 92.038824 127.98754 C 90.259154 129.25313 88.778539 130.28759 88.748069 130.28559 C 88.652969 130.28159 87.448845 130.11379 86.170965 129.9316 L 86.170965 130.35173 C 87.545235 130.54736 88.720094 130.72931 88.755304 130.75998 C 88.825204 130.82068 92.217786 135.37738 93.653196 137.33839 C 94.115926 137.97058 94.495005 138.52095 94.495005 138.56105 C 94.495005 138.60115 92.888881 139.94158 90.926231 141.5402 L 87.357456 144.447 L 86.588511 144.50022 C 86.461561 144.50922 86.318075 144.51908 86.170965 144.52968 L 86.170965 144.94722 C 86.300955 144.93922 86.441132 144.93205 86.593162 144.92345 L 87.477345 144.87384 L 89.466888 146.26084 C 90.560928 147.02382 92.623568 148.46982 94.050588 149.47408 L 96.644745 151.29981 L 96.116095 153.16481 C 95.825295 154.19043 95.32904 155.91178 95.01332 156.9899 L 94.439194 158.94999 L 91.731866 160.13183 C 90.242776 160.78192 88.949907 161.3153 88.858657 161.31625 C 88.801557 161.31706 87.542205 160.5445 86.170965 159.68379 L 86.170965 160.25843 C 87.225305 160.94585 88.074326 161.50553 88.170326 161.58083 L 88.420957 161.77772 L 87.916595 163.81532 C 87.639225 164.93592 87.377202 165.91338 87.334202 165.98728 C 87.313502 166.02278 86.872195 166.28509 86.170965 166.68285 L 86.170965 167.23579 C 86.895405 166.84216 87.368664 166.58597 87.418434 166.56038 C 87.572924 166.48088 87.747519 166.56237 88.538779 167.08179 C 89.054319 167.42021 90.366767 168.27435 91.455397 168.97987 C 96.683557 172.36816 97.054179 172.62739 96.985809 172.85612 C 96.951009 172.97289 96.727986 173.83799 96.491266 174.77848 C 96.254516 175.71897 96.044134 176.49751 96.023594 176.50861 C 96.002994 176.51971 95.539152 176.7025 94.992132 176.91478 C 94.445122 177.12706 92.6297 177.83116 90.95827 178.47954 C 89.28684 179.12792 87.770263 179.71389 87.587933 179.78179 C 87.276443 179.89779 87.235888 179.8943 86.924408 179.72546 C 86.851308 179.68586 86.576325 179.54009 86.170965 179.32652 L 86.170965 179.84122 L 86.861362 180.20399 L 86.86653 183.05394 L 86.871181 185.90441 L 86.170965 186.14678 L 86.170965 186.63564 C 86.917105 186.39961 87.134377 186.36784 87.240667 186.41601 C 87.476167 186.52271 92.771472 189.62648 94.781292 190.8359 L 95.673744 191.37333 L 95.532151 192.32263 C 95.453851 192.84484 95.329185 193.69528 95.255165 194.21243 C 95.181165 194.72958 95.091458 195.18174 95.056728 195.21754 C 95.022028 195.25334 94.346701 195.62329 93.556561 196.03971 C 92.766441 196.45613 91.427729 197.16728 90.581549 197.61998 L 90.383628 197.72591 L 91.372198 197.72591 C 93.716528 196.46754 94.798852 195.89381 95.076882 195.76221 L 95.381256 195.61803 L 96.734145 196.44537 C 97.384505 196.84292 98.263467 197.38009 98.829107 197.72591 L 99.721043 197.72591 L 98.271519 196.83966 C 96.195979 195.5705 95.714165 195.23866 95.713535 195.07595 C 95.713015 194.93676 96.200935 191.67584 96.261305 191.41416 C 96.262305 191.40616 96.823961 191.12086 97.507741 190.77957 C 98.191491 190.4383 99.703345 189.67697 100.86723 189.0882 L 102.98338 188.01798 L 106.87823 188.65515 C 109.02054 189.00552 110.81248 189.33739 110.8599 189.39309 C 110.98092 189.5352 113.17208 194.21337 113.1719 194.32922 C 113.17172 194.42402 111.97396 195.83685 110.44907 197.54091 L 110.28371 197.72591 L 110.98444 197.72591 C 111.31666 197.35404 111.80247 196.79079 112.54145 195.93791 C 113.1432 195.24342 113.69391 194.67494 113.76463 194.67494 C 113.83513 194.67494 114.58818 194.83117 115.43843 195.0222 C 116.28866 195.21324 118.25263 195.65249 119.8025 195.99785 C 121.35237 196.34319 122.67529 196.65527 122.74186 196.69187 C 122.80846 196.72847 123.001 197.13759 123.17026 197.60086 C 123.18636 197.64486 123.20175 197.68645 123.21625 197.72591 L 123.81363 197.72591 C 123.73663 197.52895 123.64962 197.30255 123.57953 197.11717 L 123.36559 196.55338 L 123.96659 196.00509 L 123.96659 195.30952 C 123.3907 195.82656 123.01998 196.15326 122.98319 196.17407 C 122.88409 196.23007 122.32627 196.13817 121.12852 195.86866 C 120.18644 195.6567 118.15091 195.20039 116.6058 194.85477 L 113.79667 194.22639 L 112.59209 191.70458 L 111.387 189.18328 L 112.37867 188.50167 C 112.92407 188.12687 114.61497 186.96812 116.13606 185.92664 L 118.90075 184.03321 L 120.15339 183.89937 C 120.84186 183.82587 121.51297 183.74892 121.64529 183.72832 C 121.80985 183.70282 121.95354 183.75403 122.10107 183.89007 C 122.20588 183.98667 123.00893 184.60999 123.96659 185.33959 L 123.96659 184.71741 C 123.66303 184.4839 123.40513 184.28511 123.21263 184.13656 L 122.36772 183.48492 L 122.6013 183.24721 C 122.93937 182.90343 123.42019 182.425 123.96659 181.88657 L 123.96659 181.18791 C 122.8416 182.29464 121.8703 183.24824 121.82874 183.28442 C 121.80724 183.30322 121.16388 183.37852 120.39937 183.45185 L 119.00927 183.58518 L 118.74624 183.33765 C 118.60156 183.20152 117.23066 181.84516 115.6994 180.32388 C 114.16815 178.8026 112.79934 177.45594 112.6572 177.33129 L 112.3983 177.10495 L 112.3983 174.43535 L 112.3983 171.76574 L 115.53816 170.1121 C 117.26495 169.2026 118.75538 168.45845 118.85062 168.45845 C 118.94582 168.45845 119.93215 168.72674 121.04274 169.05428 C 122.52878 169.49256 123.4221 169.75741 123.96659 169.92554 L 123.96659 169.46717 C 123.42454 169.30527 122.51558 169.0369 121.57087 168.75972 C 120.20334 168.35848 119.07015 168.02355 119.0532 168.01455 C 119.0077 167.99205 117.26054 162.68256 117.26054 162.56682 C 117.26054 162.54802 121.50627 160.19647 123.96659 158.84715 L 123.96659 158.32315 C 123.15187 158.76809 121.92278 159.4419 120.65827 160.13648 C 118.66727 161.2301 117.00072 162.12388 116.95565 162.12292 C 116.91055 162.12192 116.05319 161.6307 115.05034 161.03151 C 114.04749 160.43232 112.94105 159.77788 112.59157 159.57734 C 112.04503 159.26376 111.95595 159.17519 111.95595 158.94482 C 111.95595 158.79751 111.85955 157.4235 111.7415 155.89126 C 111.72334 155.65541 111.70507 155.41431 111.68672 155.17347 A 3.3312016 3.3312016 0 0 1 111.13533 155.60032 C 111.174 156.1288 111.21141 156.62993 111.24282 157.03383 C 111.32852 158.1362 111.3995 159.07952 111.40043 159.12982 C 111.40142 159.18012 111.28102 159.24296 111.13327 159.26986 C 110.98554 159.29676 109.14911 159.80585 107.05134 160.40106 C 104.95356 160.99627 103.14683 161.48048 103.03712 161.47748 C 102.92736 161.47448 101.22197 160.95264 99.246653 160.31838 C 97.271343 159.68411 95.517907 159.1295 95.350767 159.0859 C 95.183597 159.0423 95.046909 158.97302 95.046909 158.93242 C 95.046909 158.89172 95.348012 157.83463 95.715602 156.58321 C 96.083172 155.3318 96.559669 153.67654 96.774969 152.90488 C 96.990269 152.13322 97.200741 151.47557 97.242641 151.44347 C 97.271877 151.42101 97.343288 151.39811 97.75062 151.32565 A 3.3312016 3.3312016 0 0 1 98.037424 150.83885 C 97.470689 150.92796 97.125057 150.98096 97.110349 150.98096 C 97.075249 150.98096 95.662949 150.01593 93.972039 148.83639 C 92.281139 147.65684 90.23537 146.23067 89.42503 145.66759 C 88.10568 144.75112 87.96697 144.62948 88.10108 144.50591 C 88.18358 144.43001 89.618086 143.2525 91.289516 141.88901 C 92.960956 140.52552 94.483602 139.2813 94.672772 139.12432 C 94.974732 138.87376 95.170071 138.809 96.274741 138.59206 L 97.533579 138.34453 L 99.136065 138.64322 C 100.01736 138.80729 101.43432 139.07446 102.28523 139.23698 C 103.13614 139.39951 104.37328 139.63524 105.0339 139.76098 C 105.6945 139.88675 106.25755 140.00566 106.28498 140.02556 C 106.31238 140.04546 106.55318 141.64385 106.82035 143.57728 C 107.08751 145.51071 107.3781 147.57965 107.46631 148.17493 C 107.55441 148.77021 107.59308 149.27826 107.55261 149.30406 C 107.51211 149.32986 107.05638 149.41392 106.53975 149.49062 C 106.12439 149.55228 104.54455 149.80117 102.73688 150.08955 A 3.3312016 3.3312016 0 0 1 103.14822 150.45076 C 103.44296 150.40372 103.75272 150.35433 104.07788 150.30245 L 107.85956 149.69887 L 107.97687 149.74745 A 3.3312016 3.3312016 0 0 1 108.63368 149.52111 C 108.39143 149.41797 108.24038 149.35289 108.23577 149.34954 C 108.21197 149.33194 107.58968 144.99354 107.26218 142.56287 C 107.11067 141.43845 106.96395 140.40127 106.93611 140.2581 L 106.88546 139.99766 L 110.11111 138.42359 C 111.88503 137.55794 113.39026 136.84623 113.4556 136.84023 C 113.5211 136.83523 115.20449 137.94535 117.19698 139.30778 L 120.82001 141.78463 L 120.74715 142.6347 C 120.62448 144.07584 120.35539 146.98178 120.28826 147.59047 L 120.22522 148.16822 L 119.59838 148.33875 C 119.25384 148.43255 117.72892 148.83462 116.20944 149.23223 C 114.68994 149.62983 112.9196 150.09259 112.27583 150.2606 L 111.73116 150.40271 A 3.3312016 3.3312016 0 0 1 112.0438 150.76134 L 115.17643 149.93917 C 117.26473 149.39117 119.32174 148.8555 119.74721 148.74854 L 120.52081 148.55424 L 123.11806 149.7738 C 123.41229 149.91202 123.69773 150.04611 123.96659 150.17223 L 123.96659 149.67458 C 123.19071 149.31181 122.353 148.92232 121.90212 148.71495 C 121.32472 148.4494 120.84327 148.22744 120.83087 148.22144 C 120.81147 148.21144 121.10513 144.92645 121.32231 142.72462 L 121.40447 141.88436 L 122.17807 141.57585 C 122.40628 141.48485 123.08179 141.2312 123.96659 140.90354 L 123.96659 140.44052 C 122.37557 141.02561 121.23347 141.44046 121.20965 141.44046 C 121.17815 141.44046 120.56252 141.0344 119.84178 140.53819 C 118.61914 139.69642 115.75024 137.73425 114.40697 136.82111 L 113.81889 136.42113 L 114.16771 133.69933 C 114.35961 132.20236 114.55806 130.90124 114.60851 130.80804 C 114.66151 130.71034 115.09564 130.48376 115.63377 130.27267 L 116.56704 129.9068 L 123.18524 130.067 C 123.44838 130.073 123.70927 130.07982 123.96659 130.08612 L 123.96659 129.68769 C 117.13491 129.51432 116.92943 129.49686 116.93033 129.34611 C 116.93077 129.27341 117.10452 128.69098 117.31687 128.05161 C 118.05874 125.81788 120.11684 119.50895 120.25571 119.04286 C 120.41647 118.5033 120.58074 118.34995 120.99778 118.35195 C 121.16059 118.35262 122.37883 118.25804 123.70407 118.14214 C 123.79267 118.13414 123.88025 118.1268 123.96659 118.1194 L 123.96659 117.70703 C 123.82328 117.71943 123.67591 117.73193 123.52527 117.74423 C 122.13872 117.85723 120.82086 117.94881 120.59677 117.94681 C 120.29612 117.94481 119.49277 117.68242 117.53132 116.94635 L 114.87309 115.94899 L 114.61987 113.12126 C 114.48072 111.56593 114.34038 109.87819 114.30827 109.3711 L 114.24987 108.44919 L 114.89841 108.1226 C 115.25538 107.94299 116.66229 107.22577 118.02483 106.52838 C 119.38735 105.83098 120.56761 105.25636 120.64741 105.25146 C 120.70641 105.24746 122.22201 106.75168 123.96659 108.51534 L 123.96659 107.76448 C 123.83575 107.63006 123.70844 107.49974 123.58625 107.37432 C 120.98222 104.70129 120.98975 104.7124 121.49852 104.35384 C 121.57952 104.29674 122.63095 103.78235 123.96659 103.13892 L 123.96659 102.63301 C 121.53791 103.7879 121.1888 103.92753 121.07581 103.81537 C 121.00281 103.74307 119.92796 102.38508 118.68733 100.79746 C 118.12669 100.08002 117.7052 99.540778 117.3825 99.13555 L 116.70244 99.13555 L 117.80263 100.53236 C 120.64316 104.13948 120.73101 104.26095 120.64845 104.49956 C 120.59695 104.64834 119.73089 105.13394 117.25537 106.40229 C 114.4936 107.8173 113.88118 108.09926 113.63441 108.06834 C 113.47107 108.04784 112.14393 107.77562 110.68523 107.46372 C 109.22653 107.15181 106.72008 106.62394 105.11503 106.29067 C 103.50998 105.95741 102.18499 105.67576 102.17051 105.66435 C 102.15611 105.65295 102.73424 103.94789 103.4557 101.87543 C 103.82491 100.81486 104.16075 99.840951 104.40034 99.13555 L 103.79676 99.13555 C 103.5448 99.86163 103.17423 100.93333 102.7777 102.08059 L 101.54264 105.65298 L 100.69928 105.97854 C 100.23539 106.15763 99.323998 106.50912 98.674078 106.75937 L 97.492238 107.21413 L 96.519171 106.31392 C 93.454451 103.47773 90.279634 100.5758 88.878294 99.329854 C 88.801994 99.261994 88.729382 99.197203 88.659702 99.13555 L 87.915045 99.13555 z M 101.81962 106.02402 L 102.65988 106.20747 C 103.12231 106.30829 104.56997 106.61383 105.87674 106.8865 C 109.49473 107.64144 113.55402 108.50392 113.58531 108.52464 C 113.61211 108.54244 114.27424 115.52392 114.27519 115.79965 C 114.27552 115.89515 113.42577 116.25161 111.36013 117.02231 C 109.7565 117.62063 108.42605 118.10845 108.40372 118.10545 C 108.38152 118.10245 106.47379 117.44364 104.16418 116.64042 C 101.85458 115.83722 99.335601 114.96654 98.566591 114.70566 C 97.205491 114.24391 97.166309 114.22389 97.110349 113.94602 C 97.078649 113.78903 96.916007 112.61122 96.748097 111.3286 L 96.442173 108.99645 L 97.001312 108.3231 L 97.561484 107.65028 L 99.690553 106.83689 L 101.81962 106.02402 z M 96.935683 114.7222 C 97.042673 114.6749 98.809245 115.24831 102.5617 116.54844 C 105.57015 117.59078 108.04707 118.45547 108.06679 118.46977 C 108.12009 118.50847 106.0794 126.63923 105.99973 126.70493 C 105.96223 126.73593 105.23791 126.8713 104.39053 127.00568 C 103.54312 127.14005 102.7232 127.24746 102.5679 127.24546 C 102.25933 127.24146 96.046009 125.68086 95.891819 125.56908 C 95.791779 125.49658 95.5334 124.90339 93.94155 121.09028 L 92.959698 118.739 L 93.666632 118.00365 C 95.786662 115.79792 96.796433 114.7838 96.935683 114.7222 z M 114.58525 116.34639 C 114.67375 116.34639 119.7613 118.23252 119.89294 118.31422 C 119.92604 118.33472 117.03912 127.16845 116.4487 128.85312 L 116.20893 129.53473 L 115.32526 129.91507 C 114.83902 130.12435 114.39178 130.29324 114.331 130.29024 C 114.0948 130.27854 106.70404 126.86446 106.67359 126.75299 C 106.65579 126.68799 106.98682 125.26681 107.40946 123.59504 C 107.83211 121.92327 108.28443 120.10462 108.41509 119.55343 C 108.57047 118.89766 108.71282 118.51725 108.82695 118.45375 C 109.07847 118.31367 114.45416 116.34639 114.58525 116.34639 z M 95.658241 126.06104 C 95.828351 126.03404 101.88583 127.5385 102.0439 127.64699 C 102.0933 127.68089 101.52993 128.98507 100.7923 130.54552 C 100.05464 132.10597 98.970136 134.40991 98.382106 135.6651 L 97.312921 137.94713 L 96.483514 138.11818 C 94.928964 138.43825 95.202779 138.54769 94.218019 137.2092 C 93.740329 136.55992 92.438503 134.8128 91.325173 133.32674 C 90.211833 131.84068 89.301007 130.61153 89.301007 130.59513 C 89.301007 130.51623 95.515911 126.08364 95.658241 126.06104 z M 106.16199 127.19895 L 106.16251 127.19895 C 106.31511 127.19801 106.39837 127.21903 106.48084 127.25683 C 106.61716 127.31923 108.35224 128.10752 110.33642 129.00918 C 113.79456 130.58065 113.94366 130.65877 113.9424 130.8933 C 113.94171 131.02786 113.8171 132.05814 113.66489 133.18257 C 113.5127 134.30699 113.3566 135.48889 113.31815 135.80928 L 113.24838 136.39219 L 112.6293 136.6945 C 112.28882 136.86073 110.80867 137.58151 109.34009 138.29647 C 107.87152 139.01142 106.57803 139.59234 106.46637 139.58734 C 106.35477 139.58234 105.19498 139.37077 103.88823 139.11709 C 102.58147 138.86341 100.71958 138.50615 99.751532 138.32334 C 98.783472 138.14054 97.975002 137.9793 97.954742 137.9647 C 97.920942 137.9402 99.261493 135.05641 101.76174 129.77554 L 102.74928 127.69091 L 104.49078 127.41703 C 105.45748 127.26504 105.90698 127.20106 106.16199 127.19895 z M 94.707912 159.32464 L 96.72846 159.96698 C 97.83976 160.32019 99.246568 160.76801 99.854368 160.96227 C 100.46214 161.15654 101.35715 161.43787 101.84339 161.58755 L 102.72758 161.85989 L 102.82163 165.88962 C 102.89983 169.23689 102.88982 169.93683 102.76582 170.02063 C 102.68372 170.07613 101.44343 170.60831 100.00888 171.2035 L 97.400254 172.28561 L 95.312009 170.9229 C 94.163439 170.17323 92.055334 168.79977 90.627024 167.87089 C 89.198704 166.94201 88.01513 166.1237 87.99721 166.0524 C 87.97931 165.9811 88.193414 165.00507 88.472634 163.88354 C 88.848474 162.37392 89.028502 161.81631 89.167682 161.73741 C 89.271082 161.67871 90.559739 161.11231 92.031589 160.47806 L 94.707912 159.32464 z M 111.65106 159.55977 L 112.55954 160.10082 C 113.05876 160.39833 114.18784 161.07089 115.06946 161.59582 L 116.67298 162.55028 L 117.51892 165.20387 C 117.98428 166.66321 118.36451 167.91329 118.36435 167.98199 C 118.36416 168.05069 118.05333 168.27027 117.67344 168.46982 C 117.29358 168.66937 115.91372 169.39152 114.60696 170.07489 C 113.30021 170.75826 112.18158 171.33615 112.1208 171.35905 C 112.0344 171.39155 105.84066 170.41147 103.87789 170.05474 L 103.48205 169.98239 L 103.40764 165.96093 C 103.36644 163.74888 103.35343 161.92485 103.37663 161.90795 C 103.42313 161.87425 108.67534 160.37534 110.50436 159.87396 L 111.65106 159.55977 z M 103.16941 170.36841 L 103.77661 170.46195 C 104.37291 170.55385 107.99925 171.157 110.30438 171.54767 C 110.94683 171.65654 111.5563 171.74559 111.6583 171.74559 C 111.82823 171.74559 111.8436 171.96538 111.84227 174.37127 L 111.84123 176.99695 L 106.87978 178.86092 L 106.87926 178.86092 C 104.15069 179.88612 101.90127 180.72323 101.8806 180.72023 C 101.8599 180.71723 101.52415 180.45604 101.13388 180.13887 C 100.74359 179.82168 99.568406 178.88878 98.522666 178.06562 C 96.983516 176.85408 96.630456 176.53334 96.668516 176.382 C 96.694416 176.27918 96.905448 175.42522 97.137738 174.48444 C 97.378808 173.50805 97.625926 172.72861 97.712896 172.66801 C 97.796696 172.60961 99.058153 172.06823 100.51686 171.46499 L 103.16941 170.36841 z M 96.257688 176.89721 L 97.898932 178.18964 C 101.21201 180.7983 101.56456 181.08804 101.56589 181.20599 C 101.56686 181.27209 101.6651 181.86749 101.78397 182.52891 C 101.90265 183.19034 102.12629 184.52506 102.28109 185.49514 C 102.43587 186.46523 102.58405 187.35245 102.61079 187.46659 C 102.65449 187.65341 102.53309 187.73734 101.39329 188.3084 C 100.69696 188.65726 99.220188 189.40099 98.111838 189.96153 C 97.003488 190.52207 96.071634 190.98221 96.041164 190.98421 C 96.010764 190.98621 95.214776 190.53401 94.272796 189.98065 C 93.330826 189.42731 91.404884 188.29999 89.992954 187.47538 L 87.426186 185.97624 L 87.425152 184.61302 C 87.424192 183.8634 87.455415 182.57736 87.494915 181.7548 L 87.567262 180.25928 L 88.572369 179.87584 C 89.125159 179.66488 91.080144 178.90841 92.917324 178.19481 L 96.257688 176.89721 z M 111.98386 177.43775 C 112.11164 177.43775 118.36435 183.62665 118.36435 183.75312 C 118.36435 183.79602 117.75497 184.23832 117.01043 184.73601 C 116.26589 185.23372 114.63751 186.34988 113.39153 187.21648 C 112.14555 188.08308 111.07675 188.81083 111.01596 188.83343 C 110.88378 188.88253 111.26067 188.93825 106.89425 188.22365 C 104.9315 187.90243 103.29881 187.62022 103.26656 187.59682 C 103.15992 187.51932 102.11777 181.17516 102.20254 181.11866 C 102.3525 181.01866 111.86809 177.43775 111.98386 177.43775 z " />
    <path
       id="path9"
       style="fill:#dbdbdb;fill-opacity:1;stroke-width:0.568231"
       d="M 87.885073 99.13555 C 88.003193 99.241513 88.124951 99.350489 88.249391 99.461629 C 89.252251 100.35731 90.758984 101.72207 91.598024 102.494 C 93.292774 104.05318 96.407749 106.94306 96.616839 107.15056 C 96.729489 107.26224 96.666738 107.38102 96.237018 107.87559 C 95.954398 108.20087 95.713879 108.47845 95.700099 108.49209 C 95.687699 108.50569 94.987902 108.56969 94.145672 108.6342 C 93.303412 108.6987 91.246312 108.85804 89.574892 108.9887 C 88.420272 109.079 87.264715 109.1679 86.170965 109.2507 L 86.170965 109.67031 C 89.526325 109.42119 93.442224 109.12293 94.367364 109.04347 C 95.192004 108.97267 95.578481 108.96665 95.603981 109.02435 C 95.624381 109.07045 95.787373 110.22579 95.966233 111.59164 L 96.291278 114.07521 L 95.220025 115.15938 C 94.630705 115.75575 93.733712 116.67663 93.227382 117.20577 C 92.721042 117.73491 92.274465 118.19439 92.235195 118.22689 C 92.195895 118.25939 90.872836 118.50274 89.294806 118.76743 C 87.913696 118.99909 86.617375 119.2217 86.170965 119.30279 L 86.170965 119.72137 C 87.730705 119.46446 89.614191 119.1485 90.383111 119.01496 C 91.161921 118.87972 91.886809 118.76949 91.993349 118.76949 C 92.148609 118.76949 92.304164 119.05195 92.776764 120.19215 C 93.101184 120.97483 93.733546 122.48148 94.181846 123.53975 L 94.996783 125.46366 L 91.760805 127.76481 C 89.981135 129.0304 88.50052 130.06486 88.47005 130.06286 C 88.38185 130.05886 87.340595 129.91488 86.170965 129.74867 L 86.170965 130.1688 C 87.422155 130.34876 88.444474 130.50867 88.477284 130.53725 C 88.547184 130.59795 91.939757 135.15465 93.375177 137.11566 C 93.837907 137.74785 94.216986 138.29823 94.216986 138.33833 C 94.216986 138.37843 92.610851 139.71885 90.648211 141.31747 L 87.079954 144.22427 L 86.310492 144.2775 C 86.265792 144.2805 86.219095 144.28332 86.170965 144.28732 L 86.170965 144.709 C 86.217965 144.706 86.266259 144.70424 86.315659 144.70124 L 87.199326 144.65164 L 89.188869 146.03863 C 90.282889 146.80161 92.345548 148.24761 93.772568 149.25187 L 96.366725 151.0776 L 95.838075 152.9426 C 95.547285 153.96822 95.05101 155.68957 94.7353 156.76769 L 94.161175 158.72778 L 91.453847 159.90962 C 89.964747 160.55971 88.671887 161.09309 88.580637 161.09404 C 88.527437 161.09479 87.430015 160.42377 86.170965 159.63573 L 86.170965 160.21761 C 87.093415 160.82002 87.804897 161.29008 87.892307 161.35863 L 88.143455 161.55551 L 87.639093 163.59311 C 87.361723 164.71371 87.099183 165.69118 87.056183 165.76508 C 87.038383 165.79568 86.709225 165.99384 86.170965 166.30199 L 86.170965 166.86268 C 86.736915 166.55534 87.097325 166.36031 87.140415 166.33817 C 87.294895 166.25867 87.46949 166.34017 88.26076 166.85958 C 88.7763 167.198 90.088748 168.05214 91.177378 168.75766 C 96.405528 172.14595 96.77615 172.40518 96.70779 172.63391 C 96.67299 172.75068 96.449966 173.61578 96.213246 174.55627 C 95.976496 175.49676 95.766105 176.2753 95.745575 176.2864 C 95.724975 176.2975 95.261143 176.48029 94.714113 176.69257 C 94.167123 176.90485 92.351691 177.60896 90.680251 178.25734 C 89.008831 178.90572 87.492244 179.49168 87.309914 179.55958 C 86.998424 179.67558 86.958375 179.67209 86.646905 179.50325 C 86.592105 179.47355 86.423125 179.38415 86.170965 179.25107 L 86.170965 179.76525 L 86.583343 179.98178 L 86.588511 182.83173 L 86.593162 185.68221 L 86.170965 185.82845 L 86.170965 186.32764 C 86.696665 186.17026 86.871445 186.15223 86.963165 186.1938 C 87.198655 186.3005 92.493443 189.40427 94.503273 190.61369 L 95.395725 191.15112 L 95.254132 192.10042 C 95.175832 192.62263 95.051156 193.47308 94.977146 193.99023 C 94.903146 194.50738 94.813439 194.95953 94.778709 194.99533 C 94.744009 195.03113 94.069199 195.40108 93.279059 195.8175 C 92.488939 196.23392 91.1497 196.94507 90.30353 197.39777 L 89.689614 197.72643 L 90.6787 197.72643 C 90.7346 197.69673 90.793344 197.66526 90.855434 197.63186 C 93.365354 196.28413 94.511562 195.67599 94.798862 195.54 L 95.103237 195.39582 L 96.456642 196.22316 C 97.200932 196.67814 98.243927 197.31607 98.774847 197.64065 C 98.823947 197.67075 98.870747 197.69933 98.915407 197.72643 L 99.807342 197.72643 L 97.993499 196.61746 C 95.917959 195.3483 95.436136 195.01645 95.435516 194.85374 C 95.434996 194.71455 95.922906 191.45363 95.983286 191.19195 C 95.984286 191.18395 96.545952 190.89865 97.229722 190.55736 C 97.913472 190.21609 99.425327 189.45476 100.58921 188.86599 L 102.70536 187.79577 L 106.60021 188.43294 C 108.74251 188.78331 110.53446 189.11518 110.58188 189.17088 C 110.7029 189.31299 112.89407 193.99116 112.89388 194.10701 C 112.89371 194.20181 111.69595 195.61464 110.17105 197.3187 L 109.80622 197.72643 L 110.50488 197.72643 C 110.8334 197.37026 111.35861 196.76 112.26343 195.7157 C 112.86519 195.02121 113.4159 194.45273 113.48661 194.45273 C 113.55711 194.45273 114.31016 194.60897 115.16041 194.8 C 116.01065 194.99104 117.97513 195.43029 119.525 195.77565 C 121.07487 196.12099 122.39727 196.43306 122.46384 196.46966 C 122.53044 196.50626 122.72299 196.91538 122.89224 197.37865 C 122.94234 197.51561 122.98454 197.63038 123.02143 197.72643 L 123.62346 197.72643 C 123.53336 197.49959 123.40036 197.15636 123.30152 196.89496 L 123.08757 196.33117 L 123.96659 195.52915 L 123.96659 194.8372 C 123.2339 195.49716 122.7476 195.92788 122.70517 195.95186 C 122.60607 196.00786 122.04824 195.91597 120.8505 195.64646 C 119.90842 195.4345 117.87289 194.97818 116.32778 194.63256 L 113.51865 194.00418 L 112.31407 191.48237 L 111.10898 188.96108 L 112.10065 188.27946 C 112.64604 187.90466 114.33695 186.74591 115.85804 185.70443 L 118.62325 183.811 L 119.87537 183.67716 C 120.56384 183.60366 121.23495 183.52671 121.36727 183.50611 C 121.53183 183.48061 121.67605 183.53181 121.82357 183.66786 C 121.93838 183.77369 122.89058 184.51144 123.96659 185.32874 L 123.96659 184.70914 C 123.54189 184.38257 123.18349 184.10641 122.93461 183.91435 L 122.0897 183.26271 L 122.32328 183.025 C 122.71762 182.62401 123.30626 182.03994 123.96659 181.39099 L 123.96659 180.69233 C 122.72834 181.9109 121.59567 183.02309 121.55072 183.06221 C 121.52922 183.08091 120.88636 183.15631 120.12186 183.22964 L 118.73125 183.36297 L 118.46822 183.11544 C 118.32353 182.97931 116.95264 181.62295 115.42138 180.10167 C 113.89013 178.58039 112.52132 177.23374 112.37918 177.10909 L 112.12029 176.88274 L 112.12029 174.21314 L 112.12029 171.54353 L 115.26015 169.88989 C 116.98694 168.98039 118.47737 168.23624 118.57261 168.23624 C 118.66791 168.23624 119.65414 168.50453 120.76472 168.83207 C 122.53745 169.35491 123.46673 169.63124 123.96659 169.79067 L 123.96659 169.32868 C 123.50796 169.19025 122.42604 168.87 121.29285 168.53752 C 119.92532 168.13628 118.79214 167.80134 118.77518 167.79234 C 118.72978 167.76984 116.98252 162.46035 116.98252 162.34461 C 116.98252 162.32511 121.56417 159.7887 123.96659 158.47301 L 123.96659 157.94953 C 123.17212 158.38281 121.79839 159.13529 120.38025 159.91427 C 118.38925 161.00789 116.7227 161.90167 116.67763 161.90071 C 116.63253 161.89971 115.77516 161.4085 114.77232 160.80931 C 113.76947 160.21012 112.66305 159.55567 112.31356 159.35513 C 111.76704 159.04155 111.67794 158.95298 111.67794 158.72261 C 111.67794 158.5753 111.58153 157.20129 111.46348 155.66905 C 111.45627 155.57541 111.44905 155.48076 111.44177 155.38586 A 3.3312016 3.3312016 0 0 1 110.88367 155.74088 C 110.91273 156.13379 110.94069 156.50114 110.9648 156.8111 C 111.0505 157.91347 111.12147 158.8568 111.12241 158.9071 C 111.12338 158.9574 111.003 159.02024 110.85525 159.04714 C 110.70752 159.07404 108.87111 159.58313 106.77333 160.17834 C 104.67556 160.77355 102.86934 161.25776 102.75962 161.25476 C 102.64987 161.25176 100.94396 160.72991 98.968634 160.09565 C 96.993314 159.46138 95.240414 158.90677 95.073264 158.86317 C 94.906114 158.81957 94.76889 158.75029 94.76889 158.70969 C 94.76889 158.66909 95.069993 157.6119 95.437583 156.36048 C 95.805153 155.10907 96.28164 153.45381 96.49695 152.68215 C 96.71224 151.91049 96.923238 151.25284 96.965138 151.22074 C 97.002757 151.19185 97.109888 151.16195 97.912884 151.02696 A 3.3312016 3.3312016 0 0 1 98.282371 150.53345 C 97.411089 150.67123 96.851135 150.75824 96.83233 150.75824 C 96.79713 150.75824 95.38492 149.79321 93.69402 148.61367 C 92.00311 147.43412 89.957351 146.00795 89.147011 145.44487 C 87.827661 144.5284 87.689458 144.40675 87.823578 144.28318 C 87.906078 144.20728 89.340047 143.02978 91.011497 141.66629 C 92.682917 140.3028 94.206109 139.05858 94.395269 138.9016 C 94.697229 138.65104 94.892052 138.58627 95.996722 138.36933 L 97.25556 138.1218 L 98.858046 138.42049 C 99.739356 138.58456 101.1563 138.85173 102.00721 139.01425 C 102.85812 139.17678 104.09527 139.41251 104.75588 139.53825 C 105.4165 139.66402 105.97954 139.78294 106.00696 139.80284 C 106.03436 139.82274 106.27517 141.42113 106.54233 143.35456 C 106.80949 145.28799 107.10007 147.35693 107.18829 147.95221 C 107.27629 148.54749 107.31506 149.05554 107.27459 149.08134 C 107.23409 149.10714 106.77836 149.19119 106.26173 149.26789 C 105.84249 149.33013 104.23693 149.5833 102.40822 149.87509 A 3.3312016 3.3312016 0 0 1 102.90431 150.22287 C 103.18881 150.17746 103.4872 150.12961 103.79986 150.07973 L 107.58154 149.47615 L 108.10244 149.69164 A 3.3312016 3.3312016 0 0 1 108.80007 149.487 C 108.31025 149.2795 107.96477 149.13191 107.95775 149.12681 C 107.93395 149.10921 107.31167 144.77082 106.98417 142.34015 C 106.83266 141.21573 106.68593 140.17855 106.65809 140.03538 L 106.60744 139.77493 L 109.8336 138.20087 C 111.60752 137.33522 113.11226 136.6235 113.17759 136.6175 C 113.24309 136.6125 114.92645 137.72262 116.91896 139.08505 L 120.54199 141.5619 L 120.46913 142.41198 C 120.34645 143.85312 120.07788 146.75906 120.01076 147.36775 L 119.9472 147.94549 L 119.32036 148.11602 C 118.97582 148.20982 117.45089 148.6119 115.93142 149.00951 C 114.41192 149.40711 112.64157 149.86986 111.99781 150.03787 L 111.47588 150.1743 A 3.3312016 3.3312016 0 0 1 111.84278 150.51949 L 114.89841 149.71696 C 116.98671 149.16896 119.04372 148.63329 119.46919 148.52633 L 120.24279 148.33203 L 122.84004 149.55159 C 123.23809 149.73859 123.62033 149.91847 123.96659 150.08076 L 123.96659 149.5826 C 123.12107 149.18667 122.1295 148.72519 121.6241 148.49274 C 121.0467 148.22719 120.56525 148.00523 120.55285 147.99923 C 120.53345 147.98923 120.82711 144.70424 121.04429 142.50241 L 121.12697 141.66215 L 121.90005 141.35365 C 122.15162 141.2533 122.94672 140.95596 123.96659 140.57902 L 123.96659 140.11599 C 122.23225 140.75441 120.9568 141.21825 120.93163 141.21825 C 120.90013 141.21825 120.28449 140.81219 119.56376 140.31598 C 118.34111 139.47421 115.47221 137.51204 114.12895 136.5989 L 113.54087 136.19892 L 113.88969 133.47712 C 114.08158 131.98015 114.28005 130.67903 114.33049 130.58583 C 114.38349 130.48813 114.81762 130.26155 115.35575 130.05046 L 116.28902 129.68459 L 122.90722 129.84479 C 123.26558 129.85379 123.61962 129.86213 123.96659 129.87063 L 123.96659 129.47272 C 116.8625 129.29274 116.65141 129.27667 116.65231 129.1239 C 116.65275 129.0512 116.8265 128.46878 117.03885 127.82941 C 117.78072 125.59568 119.83882 119.28674 119.97769 118.82065 C 120.13845 118.28109 120.30324 118.12774 120.72028 118.12974 C 120.88309 118.13041 122.10082 118.03574 123.42606 117.91993 C 123.61147 117.90373 123.79239 117.88812 123.96659 117.87342 L 123.96659 117.46053 C 123.73839 117.48123 123.49726 117.50162 123.24726 117.52202 C 121.8607 117.63502 120.54335 117.7266 120.31927 117.7246 C 120.01862 117.7226 119.21477 117.46021 117.25331 116.72414 L 114.59507 115.72679 L 114.34237 112.89905 C 114.20321 111.34371 114.06237 109.65598 114.03025 109.14889 L 113.97185 108.22699 L 114.62091 107.90039 C 114.97787 107.72078 116.38428 107.00357 117.74682 106.30617 C 119.10933 105.60878 120.28959 105.03415 120.36939 105.02925 C 120.43149 105.02525 122.10807 106.69278 123.96659 108.57477 L 123.96659 107.82804 C 123.73685 107.59187 123.51589 107.36475 123.30875 107.15212 C 120.70472 104.47909 120.71226 104.49019 121.22102 104.13163 C 121.30752 104.07063 122.50139 103.4881 123.96659 102.78339 L 123.96659 102.27903 C 123.96059 102.28203 123.95387 102.28481 123.94747 102.28781 C 121.28434 103.55595 120.91469 103.70919 120.79779 103.59316 C 120.72489 103.52086 119.64994 102.16288 118.40931 100.57526 C 117.94562 99.981875 117.57736 99.510624 117.28121 99.136067 L 116.5996 99.136067 L 117.52461 100.31016 C 120.36513 103.91728 120.453 104.03875 120.37043 104.27736 C 120.31893 104.42614 119.45341 104.91172 116.97787 106.18008 C 114.21611 107.59508 113.60317 107.87705 113.35639 107.84613 C 113.19306 107.82563 111.86591 107.55342 110.40721 107.24152 C 108.9485 106.92961 106.44258 106.40173 104.83753 106.06846 C 103.23249 105.7352 101.90695 105.45355 101.89249 105.44214 C 101.87799 105.43074 102.45622 103.72569 103.17768 101.65323 C 103.50949 100.7001 103.81411 99.817203 104.04636 99.136067 L 103.44123 99.136067 C 103.19376 99.849801 102.85747 100.8232 102.49968 101.85838 L 101.26462 105.43077 L 100.42126 105.75633 C 99.957359 105.93542 99.045989 106.28692 98.396059 106.53717 L 97.214219 106.99192 L 96.241152 106.09171 C 93.199382 103.27676 90.049424 100.3972 88.632314 99.136067 L 87.885073 99.13555 z M 101.5416 105.80129 L 102.38186 105.98474 C 102.84429 106.08556 104.29195 106.3911 105.59872 106.66377 C 109.21672 107.4187 113.276 108.2812 113.30729 108.30192 C 113.33409 108.31972 113.99624 115.30119 113.99717 115.57692 C 113.99751 115.67242 113.14775 116.02889 111.08211 116.79959 C 109.47848 117.39791 108.14804 117.88573 108.1257 117.88273 C 108.1035 117.87973 106.19575 117.22092 103.88616 116.4177 C 101.57655 115.6145 99.057592 114.74381 98.288572 114.48293 C 96.927472 114.02118 96.8883 114.00116 96.83233 113.72329 C 96.80063 113.5663 96.637988 112.3885 96.470078 111.10588 L 96.164154 108.77372 L 96.723293 108.10038 L 97.283465 107.42755 L 99.412534 106.61416 L 101.5416 105.80129 z M 96.65818 114.49947 C 96.76516 114.45217 98.531217 115.02559 102.28368 116.32572 C 105.29213 117.36806 107.76906 118.23275 107.78877 118.24705 C 107.84207 118.28575 105.80139 126.4165 105.72171 126.4822 C 105.68421 126.5132 104.9604 126.64858 104.11302 126.78296 C 103.26562 126.91733 102.44518 127.02474 102.28988 127.02274 C 101.98132 127.01874 95.76797 125.45813 95.6138 125.34635 C 95.51375 125.27385 95.255371 124.68067 93.663531 120.86756 L 92.682196 118.51628 L 93.388613 117.78092 C 95.508633 115.57519 96.51893 114.56107 96.65818 114.49947 z M 114.30723 116.12366 C 114.39573 116.12366 119.48381 118.0098 119.61544 118.0915 C 119.64854 118.112 116.76109 126.94572 116.17068 128.63039 L 115.93142 129.312 L 115.04724 129.69234 C 114.56101 129.90162 114.11377 130.07051 114.05298 130.06751 C 113.81679 130.05581 106.42603 126.64173 106.39557 126.53026 C 106.37777 126.46526 106.70878 125.04408 107.13144 123.37231 C 107.55407 121.70054 108.0064 119.88189 108.13707 119.3307 C 108.29243 118.67493 108.4348 118.29453 108.54893 118.23103 C 108.80044 118.09095 114.17614 116.12366 114.30723 116.12366 z M 95.380222 125.83831 C 95.550322 125.81131 101.60782 127.31577 101.76588 127.42426 C 101.81528 127.45816 101.25192 128.76234 100.51428 130.32279 C 99.776615 131.88324 98.692127 134.18719 98.104087 135.44238 L 97.034902 137.72441 L 96.205495 137.89546 C 94.650935 138.21553 94.92476 138.32496 93.94 136.98647 C 93.46231 136.33719 92.160473 134.59008 91.047153 133.10402 C 89.933823 131.61796 89.022988 130.3888 89.022988 130.3724 C 89.022988 130.2935 95.237882 125.86091 95.380222 125.83831 z M 105.88449 126.97623 C 106.03746 126.97523 106.12025 126.99631 106.20282 127.03411 C 106.33913 127.09651 108.07421 127.88479 110.0584 128.78645 C 113.51654 130.35792 113.66615 130.43605 113.66489 130.67058 C 113.66419 130.80514 113.53909 131.83541 113.38688 132.95984 C 113.2347 134.08426 113.07859 135.26617 113.04013 135.58656 L 112.97036 136.16947 L 112.35128 136.47177 C 112.01079 136.638 110.53064 137.35878 109.06207 138.07374 C 107.59349 138.78869 106.3 139.36962 106.18835 139.36462 C 106.07674 139.35962 104.91697 139.14804 103.61021 138.89436 C 102.30346 138.64068 100.44156 138.28342 99.473512 138.10061 C 98.505462 137.91781 97.696993 137.75658 97.676723 137.74198 C 97.642923 137.71748 98.983455 134.83369 101.48373 129.55282 L 102.47126 127.46819 L 104.21276 127.1943 C 105.17975 127.04226 105.62951 126.9783 105.88449 126.97623 z M 94.429893 159.10192 L 96.450441 159.74425 C 97.561741 160.09746 98.968559 160.54528 99.576349 160.73954 C 100.18415 160.93381 101.07966 161.21515 101.56589 161.36483 L 102.44956 161.63716 L 102.54361 165.66689 C 102.62181 169.01416 102.61232 169.7141 102.48832 169.7979 C 102.40622 169.8533 101.1654 170.38559 99.730861 170.98078 L 97.122235 172.06288 L 95.03399 170.70017 C 93.8854 169.9505 91.777325 168.57704 90.349005 167.64816 C 88.920695 166.71928 87.737121 165.90097 87.719191 165.82967 C 87.701291 165.75837 87.915404 164.78234 88.194614 163.66081 C 88.570454 162.15119 88.750482 161.59359 88.889662 161.51469 C 88.993052 161.45599 90.282257 160.88958 91.754087 160.25533 L 94.429893 159.10192 z M 111.37304 159.33704 L 112.28152 159.8781 C 112.78074 160.17561 113.90982 160.84817 114.79144 161.3731 L 116.39496 162.32756 L 117.2409 164.98114 C 117.70625 166.44048 118.08701 167.69057 118.08685 167.75927 C 118.08666 167.82797 117.77581 168.04754 117.39593 168.24709 C 117.01606 168.44664 115.63621 169.16879 114.32945 169.85216 C 113.02269 170.53553 111.90357 171.11342 111.84278 171.13632 C 111.75638 171.16882 105.56266 170.18874 103.59988 169.83201 L 103.20403 169.75966 L 103.13014 165.7382 C 103.08894 163.52615 103.07531 161.70212 103.09861 161.68522 C 103.14511 161.65152 108.39732 160.15262 110.22634 159.65124 L 111.37304 159.33704 z M 102.89139 170.14569 L 103.49859 170.23922 C 104.0949 170.33112 107.72124 170.93427 110.02636 171.32494 C 110.66882 171.43381 111.27828 171.52286 111.38028 171.52286 C 111.5502 171.52286 111.56558 171.74265 111.56425 174.14854 L 111.56321 176.77422 L 106.60176 178.63819 L 106.60124 178.63819 C 103.87266 179.66339 101.62325 180.50051 101.60258 180.49751 C 101.58188 180.49451 101.24614 180.23332 100.85586 179.91615 C 100.46558 179.59896 99.290397 178.66605 98.244647 177.84289 C 96.705517 176.63135 96.352457 176.31061 96.390497 176.15927 C 96.416397 176.05645 96.627449 175.20249 96.859719 174.26171 C 97.100809 173.28532 97.347897 172.50589 97.434877 172.44529 C 97.518677 172.38689 98.780133 171.8455 100.23884 171.24226 L 102.89139 170.14569 z M 95.979669 176.67449 L 97.620912 177.96691 C 100.93398 180.57557 101.28655 180.86532 101.28787 180.98327 C 101.28885 181.04937 101.38707 181.64476 101.50595 182.30618 C 101.62463 182.96761 101.84828 184.30233 102.00307 185.27241 C 102.15786 186.2425 102.30603 187.12973 102.33277 187.24387 C 102.37647 187.43069 102.25507 187.51462 101.11527 188.08568 C 100.41893 188.43454 98.942169 189.17827 97.833819 189.73881 C 96.725479 190.29935 95.793605 190.75948 95.763145 190.76148 C 95.732745 190.76348 94.936747 190.31129 93.994777 189.75793 C 93.052797 189.20459 91.127362 188.07726 89.715452 187.25265 L 87.148167 185.75352 L 87.147133 184.39029 C 87.146163 183.64067 87.177296 182.35463 87.216896 181.53207 L 87.289243 180.03656 L 88.29435 179.65312 C 88.84715 179.44216 90.802124 178.68568 92.639304 177.97208 L 95.979669 176.67449 z M 111.70584 177.21502 C 111.83361 177.21502 118.08685 183.40393 118.08685 183.5304 C 118.08685 183.5733 117.47695 184.01559 116.73241 184.51328 C 115.98785 185.01099 114.35949 186.12715 113.11351 186.99375 C 111.86753 187.86035 110.79872 188.58811 110.73794 188.61071 C 110.60575 188.65981 110.98317 188.71553 106.61675 188.00093 C 104.654 187.67971 103.02131 187.39749 102.98906 187.37409 C 102.88243 187.29659 101.83977 180.95243 101.92453 180.89593 C 102.07449 180.79593 111.59005 177.21502 111.70584 177.21502 z " />
    <path
       id="rect12"
       style="fill:#dbdbdb;stroke-width:0.132292"
       d="m 105.98499,179.15236 h 6.79772 c 0.2231,0 0.4027,0.1796 0.4027,0.4027 v 10.28395 c 0,0.22309 -0.1796,0.4027 -0.4027,0.4027 h -6.79772 c -0.2231,0 -0.4027,-0.17961 -0.4027,-0.4027 v -10.28395 c 0,-0.2231 0.1796,-0.4027 0.4027,-0.4027 z" />
    <path
       id="rect13"
       style="fill:#dbdbdb;stroke-width:0.132292"
       d="m 114.61489,179.15236 h 6.79772 c 0.2231,0 0.4027,0.1796 0.4027,0.4027 v 10.28395 c 0,0.22309 -0.1796,0.4027 -0.4027,0.4027 h -6.79772 c -0.2231,0 -0.4027,-0.17961 -0.4027,-0.4027 v -10.28395 c 0,-0.2231 0.1796,-0.4027 0.4027,-0.4027 z" />
    <path
       id="path2-86"
       style="fill:#4d4d4d;fill-opacity:1;stroke-width:0.0228796"
       d="m 105.1698,192.82695 a 0.10099847,0.10099847 0 0 0 -0.10114,0.10089 v 0.28302 a 0.10099847,0.10099847 0 0 1 -0.10089,0.10112 h -0.76803 a 0.10099847,0.10099847 0 0 0 -0.1009,0.10089 v 1.35398 0.48481 0.48502 h 0.82451 a 0.14548968,0.14548968 0 0 0 0.14531,-0.14555 v -0.23836 a 0.10099847,0.10099847 0 0 1 0.10114,-0.10111 h 0.76781 a 0.10099847,0.10099847 0 0 0 0.10112,-0.1009 v -1.35398 -0.4848 -0.48503 z m -0.28047,1.21257 h 0.35891 c 0.0349,0 0.063,0.0279 0.063,0.0627 v 0.35913 c 0,0.0349 -0.0281,0.063 -0.063,0.063 h -0.35891 c -0.0349,0 -0.063,-0.0281 -0.063,-0.063 v -0.35913 c 0,-0.0349 0.0281,-0.0627 0.063,-0.0627 z" />
    <g
       id="g367"
       transform="matrix(1.2153958,0,0,1.2153958,-47.614339,-4.121787)"
       style="fill:#999999;fill-opacity:1">
      <path
         id="path366"
         style="fill:#999999;fill-opacity:1;stroke:none;stroke-width:0.0240967"
         d="m 129.92587,88.500623 v 0.292358 0.646196 0.292357 0.707677 h 0.29235 v -0.707677 h 0.84375 v 0.707677 h 0.29236 v -0.707677 -0.292357 -0.450575 h -0.29236 v 0.450575 h -0.84375 v -0.646196 h 0.56128 0.28247 0.29236 v -0.292358 h -0.29236 -0.31815 -0.5256 z m 2.85693,0 v 0.292358 0.646196 0.292357 0.707677 h 0.29235 v -0.707677 h 0.55118 l 0.29258,0.707677 h 0.29235 l -0.29235,-0.707677 h 0.29235 v -0.292357 -0.938554 z m 2.85692,0 v 0.292358 0.646196 0.292357 0.707677 h 0.29237 v -0.707677 h 1.1361 v -0.292357 -0.938554 h -0.29235 -0.42414 -0.41961 z m -2.56457,0.292358 h 0.84376 v 0.646196 h -0.84376 z m 2.85694,0 h 0.84375 v 0.646196 h -0.84375 z" />
      <path
         id="path367"
         style="fill:#999999;fill-opacity:1;stroke:none;stroke-width:0.0240967"
         d="m 115.02397,88.303067 v 0.197556 h -0.84376 -0.29235 v 0.292358 0.646196 0.292357 0.707677 h 0.29235 1.13612 v -0.292572 -0.707462 h -0.29236 v 0.707462 h -0.84376 v -0.415105 -0.292357 -0.646196 h 0.84376 0.29236 v -0.489914 z m 9.15508,0 v 0.582565 h 0.29236 v -0.582565 z m -7.43426,0.197556 v 0.292358 0.646196 0.292357 0.707677 h 0.29235 v -1.938588 z m 1.72039,0 v 0.292358 1.353873 0.292357 h 0.29236 v -0.601268 h 2.2e-4 v -0.84891 l 0.84354,1.450178 h 0.29235 v -0.292357 -1.646231 h -0.29235 v 1.33732 0.113289 l -0.84376,-1.450609 z m 2.85694,0 v 0.292358 0.646196 0.292357 0.707677 h 0.29236 v -0.707677 h 0.84374 v 0.707677 h 0.29236 v -0.707677 -0.292357 -0.450575 h -0.29236 v 0.450575 h -0.84374 v -0.646196 h 0.56128 0.28246 0.29236 v -0.292358 h -0.29236 -0.31815 -0.52559 z m 3.45498,0 v 0.292358 0.772597 0.165956 h 1.13589 v 0.41532 h -1.13589 v 0.292357 h 1.42846 v -0.292357 -0.581276 -0.126401 h -1.13611 v -0.646196 h 1.13611 v -0.292358 z"
         sodipodi:nodetypes="cccccccccccccccccccccccccccccccccccccccccccccccccccccccccccccccccccccccccccccccccccccccccccccc" />
    </g>
    <g
       id="g365"
       transform="matrix(1.2153958,0,0,1.2153958,-47.259005,-4.477118)"
       style="fill:#f9f9f9">
      <path
         id="path364"
         style="fill:#f9f9f9;fill-opacity:1;stroke:none;stroke-width:0.0240967"
         d="m 129.92587,88.500623 v 0.292358 0.646196 0.292357 0.707677 h 0.29235 v -0.707677 h 0.84375 v 0.707677 h 0.29236 v -0.707677 -0.292357 -0.450575 h -0.29236 v 0.450575 h -0.84375 v -0.646196 h 0.56128 0.28247 0.29236 v -0.292358 h -0.29236 -0.31815 -0.5256 z m 2.85693,0 v 0.292358 0.646196 0.292357 0.707677 h 0.29235 v -0.707677 h 0.55118 l 0.29258,0.707677 h 0.29235 l -0.29235,-0.707677 h 0.29235 v -0.292357 -0.938554 z m 2.85692,0 v 0.292358 0.646196 0.292357 0.707677 h 0.29237 v -0.707677 h 1.1361 v -0.292357 -0.938554 h -0.29235 -0.42414 -0.41961 z m -2.56457,0.292358 h 0.84376 v 0.646196 h -0.84376 z m 2.85694,0 h 0.84375 v 0.646196 h -0.84375 z" />
      <path
         id="path365"
         style="fill:#f9f9f9;fill-opacity:1;stroke:none;stroke-width:0.0240967"
         d="m 115.02397,88.303067 v 0.197556 h -0.84376 -0.29235 v 0.292358 0.646196 0.292357 0.707677 h 0.29235 1.13612 v -0.292572 -0.707462 h -0.29236 v 0.707462 h -0.84376 v -0.415105 -0.292357 -0.646196 h 0.84376 0.29236 v -0.489914 z m 9.15508,0 v 0.582565 h 0.29236 v -0.582565 z m -7.43426,0.197556 v 0.292358 0.646196 0.292357 0.707677 h 0.29235 v -1.938588 z m 1.72039,0 v 0.292358 1.353873 0.292357 h 0.29236 v -0.601268 h 2.2e-4 v -0.84891 l 0.84354,1.450178 h 0.29235 v -0.292357 -1.646231 h -0.29235 v 1.33732 0.113289 l -0.84376,-1.450609 z m 2.85694,0 v 0.292358 0.646196 0.292357 0.707677 h 0.29236 v -0.707677 h 0.84374 v 0.707677 h 0.29236 v -0.707677 -0.292357 -0.450575 h -0.29236 v 0.450575 h -0.84374 v -0.646196 h 0.56128 0.28246 0.29236 v -0.292358 h -0.29236 -0.31815 -0.52559 z m 3.45498,0 v 0.292358 0.772597 0.165956 h 1.13589 v 0.41532 h -1.13589 v 0.292357 h 1.42846 v -0.292357 -0.581276 -0.126401 h -1.13611 v -0.646196 h 1.13611 v -0.292358 z"
         sodipodi:nodetypes="cccccccccccccccccccccccccccccccccccccccccccccccccccccccccccccccccccccccccccccccccccccccccccccc" />
    </g>
    <g
       id="g245"
       transform="matrix(1.2153958,0,0,1.2153958,-47.436672,-4.299453)">
      <path
         id="rect374-6"
         style="fill:#333333;fill-opacity:1;stroke:none;stroke-width:0.0240967"
         d="m 129.92587,88.500623 v 0.292358 0.646196 0.292357 0.707677 h 0.29235 v -0.707677 h 0.84375 v 0.707677 h 0.29236 v -0.707677 -0.292357 -0.450575 h -0.29236 v 0.450575 h -0.84375 v -0.646196 h 0.56128 0.28247 0.29236 v -0.292358 h -0.29236 -0.31815 -0.5256 z m 2.85693,0 v 0.292358 0.646196 0.292357 0.707677 h 0.29235 v -0.707677 h 0.55118 l 0.29258,0.707677 h 0.29235 l -0.29235,-0.707677 h 0.29235 v -0.292357 -0.938554 z m 2.85692,0 v 0.292358 0.646196 0.292357 0.707677 h 0.29237 v -0.707677 h 1.1361 v -0.292357 -0.938554 h -0.29235 -0.42414 -0.41961 z m -2.56457,0.292358 h 0.84376 v 0.646196 h -0.84376 z m 2.85694,0 h 0.84375 v 0.646196 h -0.84375 z" />
      <path
         id="path235"
         style="fill:#333333;fill-opacity:1;stroke:none;stroke-width:0.0240967"
         d="m 115.02397,88.303067 v 0.197556 h -0.84376 -0.29235 v 0.292358 0.646196 0.292357 0.707677 h 0.29235 1.13612 v -0.292572 -0.707462 h -0.29236 v 0.707462 h -0.84376 v -0.415105 -0.292357 -0.646196 h 0.84376 0.29236 v -0.489914 z m 9.15508,0 v 0.582565 h 0.29236 v -0.582565 z m -7.43426,0.197556 v 0.292358 0.646196 0.292357 0.707677 h 0.29235 v -1.938588 z m 1.72039,0 v 0.292358 1.353873 0.292357 h 0.29236 v -0.601268 h 2.2e-4 v -0.84891 l 0.84354,1.450178 h 0.29235 v -0.292357 -1.646231 h -0.29235 v 1.33732 0.113289 l -0.84376,-1.450609 z m 2.85694,0 v 0.292358 0.646196 0.292357 0.707677 h 0.29236 v -0.707677 h 0.84374 v 0.707677 h 0.29236 v -0.707677 -0.292357 -0.450575 h -0.29236 v 0.450575 h -0.84374 v -0.646196 h 0.56128 0.28246 0.29236 v -0.292358 h -0.29236 -0.31815 -0.52559 z m 3.45498,0 v 0.292358 0.772597 0.165956 h 1.13589 v 0.41532 h -1.13589 v 0.292357 h 1.42846 v -0.292357 -0.581276 -0.126401 h -1.13611 v -0.646196 h 1.13611 v -0.292358 z"
         sodipodi:nodetypes="cccccccccccccccccccccccccccccccccccccccccccccccccccccccccccccccccccccccccccccccccccccccccccccc" />
    </g>
    <path
       id="path4"
       style="baseline-shift:baseline;display:inline;overflow:visible;vector-effect:none;fill:#b3b3b3;enable-background:accumulate;stop-color:#000000"
       d="M 100.50601 147.18171 L 100.50601 149.44462 A 3.3312016 3.3312016 0 0 1 100.75405 149.43532 A 3.3312016 3.3312016 0 0 1 100.93751 149.44049 L 100.93751 147.18171 L 100.50601 147.18171 z M 100.50601 156.08866 L 100.50601 157.83584 L 100.93751 157.83584 L 100.93751 156.0928 A 3.3312016 3.3312016 0 0 1 100.75405 156.09796 A 3.3312016 3.3312016 0 0 1 100.50601 156.08866 z " />
    <path
       id="path2"
       style="baseline-shift:baseline;display:inline;overflow:visible;vector-effect:none;fill:#b3b3b3;enable-background:accumulate;stop-color:#000000"
       d="M 109.17783 122.43749 L 109.17783 149.44204 A 3.3312016 3.3312016 0 0 1 109.38402 149.43532 A 3.3312016 3.3312016 0 0 1 109.60933 149.44307 L 109.60933 122.43749 L 109.17783 122.43749 z M 109.60933 156.09021 A 3.3312016 3.3312016 0 0 1 109.38402 156.09796 A 3.3312016 3.3312016 0 0 1 109.17783 156.09125 L 109.17783 157.83584 L 109.60933 157.83584 L 109.60933 156.09021 z " />
    <circle
       style="fill:#e6e6e6;fill-opacity:1;stroke:none;stroke-width:0.20435;stroke-dasharray:none"
       id="circle9"
       cx="109.38385"
       cy="152.76666"
       r="3.3312016" />
    <path
       id="rect42"
       style="fill:#b3b3b3;stroke-width:0.128845"
       d="m 97.508118,172.54659 h 19.962872 v 4.63636 H 97.508118 Z" />
    <path
       id="rect267"
       style="fill:#878787;fill-opacity:1;stroke:none;stroke-width:0.0348729;stroke-dasharray:none"
       d="m 97.507993,172.54643 v 0.34003 h 19.623597 v 4.29638 h 0.33952 v -4.29638 -0.34003 h -0.33952 z" />
    <path
       d="m 90.037085,182.21648 h -0.224918 q -0.03862,0 -0.04771,-0.0386 l -0.377135,-1.37904 q -0.01363,-0.0432 0.03408,-0.0432 h 0.161305 q 0.03635,0 0.04317,0.0386 l 0.293075,1.18593 h 0.0091 l 0.290803,-1.18593 q 0.0091,-0.0386 0.04544,-0.0386 h 0.159033 q 0.04771,0 0.03635,0.0432 l -0.379407,1.37904 q -0.0091,0.0386 -0.04317,0.0386 z m 0.727009,0 h -0.129498 q -0.04771,0 -0.03181,-0.0409 0.04998,-0.12722 0.254453,-0.68611 0.204471,-0.55889 0.256725,-0.69293 0.01817,-0.0409 0.05225,-0.0409 h 0.131771 q 0.04317,0 0.02953,0.0432 l -0.511177,1.37677 q -0.01363,0.0409 -0.05225,0.0409 z m 1.18593,-0.19312 h 0.197656 q 0.165848,0 0.165848,-0.16812 v -0.73836 q 0,-0.16812 -0.165848,-0.16812 h -0.197656 q -0.163576,0 -0.163576,0.16812 v 0.73836 q 0,0.16812 0.163576,0.16812 z m 0.231734,0.19312 h -0.26354 q -0.168121,0 -0.261269,-0.0931 -0.09088,-0.0932 -0.09088,-0.259 v -0.75654 q 0,-0.16812 0.09088,-0.259 0.09315,-0.0932 0.261269,-0.0932 h 0.26354 q 0.168121,0 0.261269,0.0932 0.09315,0.0909 0.09315,0.259 v 0.75654 q 0,0.16585 -0.09315,0.259 -0.09315,0.0931 -0.261269,0.0931 z m 1.254089,0 h -0.26354 q -0.168121,0 -0.261269,-0.0931 -0.09088,-0.0932 -0.09088,-0.259 v -0.75654 q 0,-0.16812 0.09088,-0.259 0.09315,-0.0932 0.261269,-0.0932 h 0.26354 q 0.165849,0 0.258997,0.0932 0.09315,0.0909 0.09315,0.259 v 0.10905 q 0,0.0409 -0.0409,0.0409 h -0.143129 q -0.03862,0 -0.03862,-0.0409 v -0.1 q 0,-0.16812 -0.163576,-0.16812 h -0.197656 q -0.163577,0 -0.163577,0.16812 v 0.73836 q 0,0.16812 0.163577,0.16812 h 0.197656 q 0.163576,0 0.163576,-0.16812 v -0.1 q 0,-0.0409 0.03862,-0.0409 h 0.143129 q 0.0409,0 0.0409,0.0409 v 0.10905 q 0,0.16585 -0.09315,0.259 -0.09315,0.0931 -0.258997,0.0931 z m 1.033716,0 h -0.143129 q -0.04089,0 -0.04089,-0.0386 v -1.20637 q 0,-0.0227 -0.02272,-0.0227 h -0.28626 q -0.04089,0 -0.04089,-0.0386 v -0.11586 q 0,-0.0386 0.04089,-0.0386 h 0.842875 q 0.04089,0 0.04089,0.0386 v 0.11586 q 0,0.0386 -0.04089,0.0386 h -0.286259 q -0.02499,0 -0.02499,0.0227 v 1.20637 q 0,0.0386 -0.03862,0.0386 z"
       id="text34"
       style="font-weight:600;font-size:2.2719px;line-height:1.7;font-family:Rajdhani;-inkscape-font-specification:'Rajdhani, Semi-Bold';text-align:center;text-anchor:middle;fill:#333333;stroke-width:0.0600951"
       aria-label="V/OCT" />
    <path
       d="m 99.204487,182.21648 h -0.243093 q -0.168121,0 -0.261269,-0.0931 -0.09088,-0.0932 -0.09088,-0.259 v -0.75654 q 0,-0.16812 0.09088,-0.259 0.09315,-0.0932 0.261269,-0.0932 h 0.243093 q 0.16812,0 0.258996,0.0932 0.09315,0.0909 0.09315,0.259 v 0.0818 q 0,0.0409 -0.03862,0.0409 h -0.14313 q -0.03862,0 -0.03862,-0.0409 v -0.0727 q 0,-0.16812 -0.163577,-0.16812 H 98.9932 q -0.163577,0 -0.163577,0.16812 v 0.73836 q 0,0.16812 0.163577,0.16812 h 0.17948 q 0.163577,0 0.163577,-0.16812 v -0.20447 q 0,-0.0227 -0.02499,-0.0227 h -0.184024 q -0.03862,0 -0.03862,-0.0386 v -0.11586 q 0,-0.0386 0.03862,-0.0386 h 0.381679 q 0.04771,0 0.04771,0.0477 v 0.38168 q 0,0.16585 -0.09315,0.259 -0.09315,0.0931 -0.258996,0.0931 z m 0.740638,0 h -0.163577 q -0.03181,0 -0.02272,-0.0386 l 0.395311,-1.38358 q 0.0114,-0.0386 0.0545,-0.0386 h 0.22719 q 0.0454,0 0.0545,0.0386 l 0.39531,1.38358 q 0.009,0.0386 -0.025,0.0386 h -0.1613 q -0.0204,0 -0.0295,-0.007 -0.007,-0.009 -0.0114,-0.0318 l -0.0863,-0.29534 h -0.49982 l -0.08633,0.29534 q -0.0091,0.0386 -0.04089,0.0386 z m 0.372595,-1.24273 -0.19993,0.72701 h 0.41121 l -0.2022,-0.72701 z m 1.19274,1.24273 h -0.14313 q -0.0409,0 -0.0409,-0.0386 v -1.20637 q 0,-0.0227 -0.0227,-0.0227 h -0.28626 q -0.0409,0 -0.0409,-0.0386 v -0.11586 q 0,-0.0386 0.0409,-0.0386 h 0.84288 q 0.0409,0 0.0409,0.0386 v 0.11586 q 0,0.0386 -0.0409,0.0386 h -0.28626 q -0.025,0 -0.025,0.0227 v 1.20637 q 0,0.0386 -0.0386,0.0386 z m 1.35178,0 h -0.727 q -0.0386,0 -0.0386,-0.0386 v -1.38358 q 0,-0.0386 0.0386,-0.0386 h 0.727 q 0.0364,0 0.0364,0.0386 v 0.11586 q 0,0.0386 -0.0364,0.0386 h -0.51799 q -0.0273,0 -0.0273,0.0227 v 0.38395 q 0,0.0227 0.0273,0.0227 h 0.43848 q 0.0409,0 0.0409,0.0386 v 0.11586 q 0,0.0386 -0.0409,0.0386 h -0.43848 q -0.0273,0 -0.0273,0.0227 v 0.40439 q 0,0.025 0.0273,0.025 h 0.51799 q 0.0364,0 0.0364,0.0386 v 0.11586 q 0,0.0386 -0.0364,0.0386 z"
       id="text34-4"
       style="font-weight:600;font-size:2.2719px;line-height:1.7;font-family:Rajdhani;-inkscape-font-specification:'Rajdhani, Semi-Bold';text-align:center;text-anchor:middle;fill:#333333;stroke-width:0.0600951"
       aria-label="GATE" />
    <path
       d="m 116.44182,182.21648 h -0.24309 q -0.16812,0 -0.26127,-0.0931 -0.0909,-0.0932 -0.0909,-0.259 v -0.75654 q 0,-0.16812 0.0909,-0.259 0.0931,-0.0932 0.26127,-0.0932 h 0.24309 q 0.16812,0 0.259,0.0932 0.0932,0.0909 0.0932,0.259 v 0.0818 q 0,0.0409 -0.0386,0.0409 h -0.14313 q -0.0386,0 -0.0386,-0.0409 v -0.0727 q 0,-0.16812 -0.16357,-0.16812 h -0.17948 q -0.16358,0 -0.16358,0.16812 v 0.73836 q 0,0.16812 0.16358,0.16812 h 0.17948 q 0.16357,0 0.16357,-0.16812 v -0.20447 q 0,-0.0227 -0.025,-0.0227 h -0.18402 q -0.0386,0 -0.0386,-0.0386 v -0.11586 q 0,-0.0386 0.0386,-0.0386 h 0.38168 q 0.0477,0 0.0477,0.0477 v 0.38168 q 0,0.16585 -0.0932,0.259 -0.0931,0.0931 -0.259,0.0931 z m 0.74064,0 h -0.16358 q -0.0318,0 -0.0227,-0.0386 l 0.39531,-1.38358 q 0.0114,-0.0386 0.0545,-0.0386 h 0.22719 q 0.0454,0 0.0545,0.0386 l 0.39531,1.38358 q 0.009,0.0386 -0.025,0.0386 h -0.16131 q -0.0204,0 -0.0295,-0.007 -0.007,-0.009 -0.0114,-0.0318 l -0.0863,-0.29534 h -0.49981 l -0.0863,0.29534 q -0.009,0.0386 -0.0409,0.0386 z m 0.37259,-1.24273 -0.19993,0.72701 h 0.41122 l -0.2022,-0.72701 z m 1.19275,1.24273 h -0.14313 q -0.0409,0 -0.0409,-0.0386 v -1.20637 q 0,-0.0227 -0.0227,-0.0227 h -0.28626 q -0.0409,0 -0.0409,-0.0386 v -0.11586 q 0,-0.0386 0.0409,-0.0386 h 0.84287 q 0.0409,0 0.0409,0.0386 v 0.11586 q 0,0.0386 -0.0409,0.0386 h -0.28626 q -0.025,0 -0.025,0.0227 v 1.20637 q 0,0.0386 -0.0386,0.0386 z m 1.35178,0 h -0.72701 q -0.0386,0 -0.0386,-0.0386 v -1.38358 q 0,-0.0386 0.0386,-0.0386 h 0.72701 q 0.0363,0 0.0363,0.0386 v 0.11586 q 0,0.0386 -0.0363,0.0386 h -0.51799 q -0.0273,0 -0.0273,0.0227 v 0.38395 q 0,0.0227 0.0273,0.0227 h 0.43847 q 0.0409,0 0.0409,0.0386 v 0.11586 q 0,0.0386 -0.0409,0.0386 h -0.43847 q -0.0273,0 -0.0273,0.0227 v 0.40439 q 0,0.025 0.0273,0.025 h 0.51799 q 0.0363,0 0.0363,0.0386 v 0.11586 q 0,0.0386 -0.0363,0.0386 z"
       id="text35"
       style="font-weight:600;font-size:2.2719px;line-height:1.7;font-family:Rajdhani;-inkscape-font-specification:'Rajdhani, Semi-Bold';text-align:center;text-anchor:middle;fill:#333333;stroke-width:0.0600951"
       aria-label="GATE" />
    <path
       d="m 107.30606,182.21648 h -0.22492 q -0.0386,0 -0.0477,-0.0386 l -0.37713,-1.37904 q -0.0136,-0.0432 0.0341,-0.0432 h 0.16131 q 0.0363,0 0.0432,0.0386 l 0.29307,1.18593 h 0.009 l 0.2908,-1.18593 q 0.009,-0.0386 0.0454,-0.0386 h 0.15903 q 0.0477,0 0.0363,0.0432 l -0.3794,1.37904 q -0.009,0.0386 -0.0432,0.0386 z m 0.72701,0 h -0.1295 q -0.0477,0 -0.0318,-0.0409 0.05,-0.12722 0.25446,-0.68611 0.20447,-0.55889 0.25672,-0.69293 0.0182,-0.0409 0.0523,-0.0409 h 0.13177 q 0.0432,0 0.0295,0.0432 l -0.51118,1.37677 q -0.0136,0.0409 -0.0523,0.0409 z m 1.18593,-0.19312 h 0.19765 q 0.16585,0 0.16585,-0.16812 v -0.73836 q 0,-0.16812 -0.16585,-0.16812 H 109.219 q -0.16358,0 -0.16358,0.16812 v 0.73836 q 0,0.16812 0.16358,0.16812 z m 0.23173,0.19312 h -0.26354 q -0.16812,0 -0.26127,-0.0931 -0.0909,-0.0932 -0.0909,-0.259 v -0.75654 q 0,-0.16812 0.0909,-0.259 0.0931,-0.0932 0.26127,-0.0932 h 0.26354 q 0.16812,0 0.26127,0.0932 0.0931,0.0909 0.0931,0.259 v 0.75654 q 0,0.16585 -0.0931,0.259 -0.0932,0.0931 -0.26127,0.0931 z m 1.25409,0 h -0.26354 q -0.16812,0 -0.26127,-0.0931 -0.0909,-0.0932 -0.0909,-0.259 v -0.75654 q 0,-0.16812 0.0909,-0.259 0.0932,-0.0932 0.26127,-0.0932 h 0.26354 q 0.16585,0 0.259,0.0932 0.0932,0.0909 0.0932,0.259 v 0.10905 q 0,0.0409 -0.0409,0.0409 h -0.14313 q -0.0386,0 -0.0386,-0.0409 v -0.1 q 0,-0.16812 -0.16358,-0.16812 h -0.19765 q -0.16358,0 -0.16358,0.16812 v 0.73836 q 0,0.16812 0.16358,0.16812 h 0.19765 q 0.16358,0 0.16358,-0.16812 v -0.1 q 0,-0.0409 0.0386,-0.0409 h 0.14313 q 0.0409,0 0.0409,0.0409 v 0.10905 q 0,0.16585 -0.0932,0.259 -0.0931,0.0931 -0.259,0.0931 z m 1.03372,0 h -0.14313 q -0.0409,0 -0.0409,-0.0386 v -1.20637 q 0,-0.0227 -0.0227,-0.0227 h -0.28625 q -0.0409,0 -0.0409,-0.0386 v -0.11586 q 0,-0.0386 0.0409,-0.0386 h 0.84287 q 0.0409,0 0.0409,0.0386 v 0.11586 q 0,0.0386 -0.0409,0.0386 h -0.28626 q -0.025,0 -0.025,0.0227 v 1.20637 q 0,0.0386 -0.0386,0.0386 z"
       id="text36"
       style="font-weight:600;font-size:2.2719px;line-height:1.7;font-family:Rajdhani;-inkscape-font-specification:'Rajdhani, Semi-Bold';text-align:center;text-anchor:middle;fill:#333333;stroke-width:0.0600951"
       aria-label="V/OCT" />
    <path
       d="m 92.027279,168.37923 h 0.197655 q 0.163577,0 0.163577,-0.16812 v -0.73837 q 0,-0.16812 -0.163577,-0.16812 h -0.197655 q -0.163577,0 -0.163577,0.16812 v 0.73837 q 0,0.16812 0.163577,0.16812 z m 0.424845,0.49527 h -0.127226 q -0.04998,0 -0.0727,-0.0386 l -0.154489,-0.26354 H 91.9932 q -0.16812,0 -0.261268,-0.0932 -0.09315,-0.0931 -0.09315,-0.25899 v -0.75655 q 0,-0.16812 0.09315,-0.25899 0.09315,-0.0931 0.261268,-0.0931 h 0.263541 q 0.16812,0 0.258996,0.0931 0.09315,0.0909 0.09315,0.25899 v 0.75655 q 0,0.14767 -0.07497,0.23855 -0.0727,0.0886 -0.206742,0.10678 l 0.152217,0.26126 q 0.01136,0.0227 0.0023,0.0341 -0.0091,0.0136 -0.02953,0.0136 z"
       id="text37"
       style="font-weight:600;font-size:2.2719px;line-height:1.7;font-family:Rajdhani;-inkscape-font-specification:'Rajdhani, Semi-Bold';text-align:center;text-anchor:middle;fill:#333333;stroke-width:0.0600951"
       aria-label="Q" />
    <path
       d="m 98.906934,137.26023 h 0.197655 q 0.165849,0 0.165849,-0.16812 v -0.73837 q 0,-0.16812 -0.165849,-0.16812 h -0.197655 q -0.163577,0 -0.163577,0.16812 v 0.73837 q 0,0.16812 0.163577,0.16812 z m 0.231734,0.19311 h -0.263541 q -0.16812,0 -0.261268,-0.0932 -0.09088,-0.0931 -0.09088,-0.259 v -0.75654 q 0,-0.16812 0.09088,-0.259 0.09315,-0.0931 0.261268,-0.0931 h 0.263541 q 0.16812,0 0.261268,0.0931 0.09315,0.0909 0.09315,0.259 v 0.75654 q 0,0.16585 -0.09315,0.259 -0.09315,0.0932 -0.261268,0.0932 z m 0.906492,-0.19311 h 0.32033 q 0.16358,0 0.16358,-0.16812 v -0.73837 q 0,-0.16812 -0.16358,-0.16812 h -0.32033 q -0.025,0 -0.025,0.0227 v 1.0269 q 0,0.025 0.025,0.025 z m -0.245369,0.15449 v -1.38359 q 0,-0.0386 0.03862,-0.0386 h 0.558887 q 0.16585,0 0.259,0.0931 0.0954,0.0909 0.0954,0.259 v 0.75654 q 0,0.16585 -0.0954,0.259 -0.0932,0.0932 -0.259,0.0932 h -0.558887 q -0.03862,0 -0.03862,-0.0386 z m 1.660759,0.0386 h -0.14313 q -0.0409,0 -0.0409,-0.0386 v -1.20638 q 0,-0.0227 -0.0227,-0.0227 h -0.28626 q -0.0409,0 -0.0409,-0.0386 v -0.11587 q 0,-0.0386 0.0409,-0.0386 h 0.84287 q 0.0409,0 0.0409,0.0386 v 0.11587 q 0,0.0386 -0.0409,0.0386 h -0.28626 q -0.025,0 -0.025,0.0227 v 1.20638 q 0,0.0386 -0.0386,0.0386 z m 0.55889,-0.35442 v -0.0591 q 0,-0.0386 0.0386,-0.0386 h 0.1454 q 0.0386,0 0.0386,0.0386 v 0.0409 q 0,0.0954 0.0409,0.13858 0.0432,0.0409 0.14086,0.0409 h 0.15676 q 0.0977,0 0.14085,-0.0432 0.0432,-0.0454 0.0432,-0.1454 v -0.0523 q 0,-0.0727 -0.0568,-0.1136 -0.0545,-0.0432 -0.13631,-0.0545 -0.0818,-0.0136 -0.17948,-0.0364 -0.0977,-0.0227 -0.17948,-0.0523 -0.0818,-0.0295 -0.13859,-0.11132 -0.0545,-0.0818 -0.0545,-0.20902 v -0.0954 q 0,-0.16585 0.0931,-0.25899 0.0954,-0.0954 0.26126,-0.0954 h 0.24083 q 0.16812,0 0.26126,0.0954 0.0954,0.0931 0.0954,0.25899 v 0.05 q 0,0.0386 -0.0386,0.0386 h -0.1454 q -0.0386,0 -0.0386,-0.0386 v -0.0295 q 0,-0.0977 -0.0432,-0.13859 -0.0409,-0.0432 -0.13858,-0.0432 h -0.14313 q -0.0977,0 -0.14086,0.0454 -0.0409,0.0432 -0.0409,0.14994 v 0.0704 q 0,0.10224 0.14768,0.13859 0.0659,0.0159 0.14313,0.0273 0.0795,0.0114 0.15903,0.0341 0.0795,0.0227 0.1454,0.0613 0.0659,0.0363 0.10678,0.11359 0.0409,0.075 0.0409,0.18403 v 0.0886 q 0,0.16585 -0.0954,0.26127 -0.0931,0.0932 -0.259,0.0932 h -0.25445 q -0.16585,0 -0.26127,-0.0932 -0.0954,-0.0954 -0.0954,-0.26127 z"
       id="text38"
       style="font-weight:600;font-size:2.2719px;line-height:1.7;font-family:Rajdhani;-inkscape-font-specification:'Rajdhani, Semi-Bold';text-align:center;text-anchor:middle;fill:#333333;stroke-width:0.0600951"
       aria-label="ODTS" />
    <path
       d="m 108.71412,167.11151 h 0.25445 q 0.0386,0 0.0386,0.0386 v 1.38359 q 0,0.0386 -0.0386,0.0386 h -0.14086 q -0.0386,0 -0.0386,-0.0386 v -1.14731 h -0.009 l -0.29534,0.83152 q -0.0136,0.0363 -0.05,0.0363 h -0.1454 q -0.0341,0 -0.0477,-0.0363 l -0.30216,-0.83379 h -0.009 v 1.14958 q 0,0.0227 -0.009,0.0318 -0.007,0.007 -0.0295,0.007 h -0.13859 q -0.0386,0 -0.0386,-0.0386 v -1.38359 q 0,-0.0386 0.0386,-0.0386 h 0.25446 q 0.025,0 0.0363,0.025 l 0.31125,0.87695 h 0.0114 l 0.31352,-0.87695 q 0.005,-0.025 0.0341,-0.025 z m 0.986,1.26772 h 0.19766 q 0.16585,0 0.16585,-0.16812 v -0.73837 q 0,-0.16812 -0.16585,-0.16812 h -0.19766 q -0.16357,0 -0.16357,0.16812 v 0.73837 q 0,0.16812 0.16357,0.16812 z m 0.23174,0.19311 h -0.26354 q -0.16812,0 -0.26127,-0.0932 -0.0909,-0.0931 -0.0909,-0.25899 v -0.75655 q 0,-0.16812 0.0909,-0.25899 0.0932,-0.0931 0.26127,-0.0931 h 0.26354 q 0.16812,0 0.26126,0.0931 0.0932,0.0909 0.0932,0.25899 v 0.75655 q 0,0.16585 -0.0932,0.25899 -0.0931,0.0932 -0.26126,0.0932 z m 0.90648,-0.19311 h 0.32034 q 0.16358,0 0.16358,-0.16812 v -0.73837 q 0,-0.16812 -0.16358,-0.16812 h -0.32034 q -0.025,0 -0.025,0.0227 v 1.0269 q 0,0.025 0.025,0.025 z m -0.24536,0.15449 v -1.38359 q 0,-0.0386 0.0386,-0.0386 h 0.55889 q 0.16585,0 0.259,0.0931 0.0954,0.0909 0.0954,0.25899 v 0.75655 q 0,0.16585 -0.0954,0.25899 -0.0931,0.0932 -0.259,0.0932 h -0.55889 q -0.0386,0 -0.0386,-0.0386 z m 2.02653,0.0386 h -0.727 q -0.0386,0 -0.0386,-0.0386 v -1.38359 q 0,-0.0386 0.0386,-0.0386 h 0.727 q 0.0363,0 0.0363,0.0386 v 0.11587 q 0,0.0386 -0.0363,0.0386 h -0.51799 q -0.0273,0 -0.0273,0.0227 v 0.38395 q 0,0.0227 0.0273,0.0227 H 112.54 q 0.0409,0 0.0409,0.0386 v 0.11587 q 0,0.0386 -0.0409,0.0386 h -0.43848 q -0.0273,0 -0.0273,0.0227 v 0.4044 q 0,0.025 0.0273,0.025 h 0.51799 q 0.0363,0 0.0363,0.0386 v 0.11587 q 0,0.0386 -0.0363,0.0386 z"
       id="text39"
       style="font-weight:600;font-size:2.2719px;line-height:1.7;font-family:Rajdhani;-inkscape-font-specification:'Rajdhani, Semi-Bold';text-align:center;text-anchor:middle;fill:#333333;stroke-width:0.0600951"
       aria-label="MODE" />
    <path
       d="m 107.19259,112.87744 h -0.14312 q -0.0386,0 -0.0386,-0.0386 v -1.38359 q 0,-0.0386 0.0386,-0.0386 h 0.53162 q 0.16585,0 0.259,0.0954 0.0954,0.0932 0.0954,0.259 v 0.19084 q 0,0.26126 -0.21583,0.32942 v 0.009 l 0.25218,0.53162 q 0.025,0.0454 -0.0295,0.0454 h -0.14086 q -0.0545,0 -0.0704,-0.0386 l -0.2431,-0.52254 h -0.22946 q -0.0273,0 -0.0273,0.0227 v 0.49982 q 0,0.0386 -0.0386,0.0386 z m 0.0636,-0.74291 h 0.28853 q 0.16812,0 0.16812,-0.16585 v -0.19084 q 0,-0.16812 -0.16812,-0.16812 h -0.28853 q -0.025,0 -0.025,0.0227 v 0.47937 q 0,0.0227 0.025,0.0227 z m 1.06552,0.74291 h -0.16358 q -0.0318,0 -0.0227,-0.0386 l 0.39531,-1.38359 q 0.0114,-0.0386 0.0545,-0.0386 h 0.22719 q 0.0454,0 0.0545,0.0386 l 0.39532,1.38359 q 0.009,0.0386 -0.025,0.0386 h -0.1613 q -0.0204,0 -0.0295,-0.007 -0.007,-0.009 -0.0113,-0.0318 l -0.0863,-0.29535 h -0.49981 l -0.0863,0.29535 q -0.009,0.0386 -0.0409,0.0386 z m 0.37259,-1.24273 -0.19993,0.72701 h 0.41122 l -0.2022,-0.72701 z m 0.97237,1.24273 h -0.14085 q -0.0386,0 -0.0386,-0.0386 v -1.38359 q 0,-0.0386 0.0386,-0.0386 h 0.12722 q 0.0363,0 0.05,0.025 l 0.5498,0.98828 h 0.009 v -0.97465 q 0,-0.0386 0.0386,-0.0386 h 0.14086 q 0.0386,0 0.0386,0.0386 v 1.38359 q 0,0.0386 -0.0386,0.0386 h -0.12268 q -0.0363,0 -0.0591,-0.0364 l -0.54526,-0.97692 h -0.009 v 0.97465 q 0,0.0386 -0.0386,0.0386 z m 1.71756,0 h -0.24309 q -0.16812,0 -0.26127,-0.0932 -0.0909,-0.0931 -0.0909,-0.25899 v -0.75655 q 0,-0.16812 0.0909,-0.25899 0.0931,-0.0931 0.26127,-0.0931 h 0.24309 q 0.16812,0 0.259,0.0931 0.0932,0.0909 0.0932,0.25899 v 0.0818 q 0,0.0409 -0.0386,0.0409 h -0.14313 q -0.0386,0 -0.0386,-0.0409 v -0.0727 q 0,-0.16812 -0.16358,-0.16812 h -0.17948 q -0.16357,0 -0.16357,0.16812 v 0.73837 q 0,0.16812 0.16357,0.16812 h 0.17948 q 0.16358,0 0.16358,-0.16812 v -0.20447 q 0,-0.0227 -0.025,-0.0227 h -0.18402 q -0.0386,0 -0.0386,-0.0386 v -0.11587 q 0,-0.0386 0.0386,-0.0386 h 0.38168 q 0.0477,0 0.0477,0.0477 v 0.38168 q 0,0.16585 -0.0932,0.25899 -0.0931,0.0932 -0.259,0.0932 z"
       id="text40"
       style="font-weight:600;font-size:2.2719px;line-height:1.7;font-family:Rajdhani;-inkscape-font-specification:'Rajdhani, Semi-Bold';text-align:center;text-anchor:middle;fill:#333333;stroke-width:0.0600951"
       aria-label="RANG" />
    <path
       d="m 115.90187,120.81787 h -0.16357 q -0.0318,0 -0.0227,-0.0386 l 0.39531,-1.38359 q 0.0114,-0.0386 0.0545,-0.0386 h 0.22719 q 0.0454,0 0.0545,0.0386 l 0.39531,1.38359 q 0.009,0.0386 -0.025,0.0386 h -0.16131 q -0.0204,0 -0.0295,-0.007 -0.007,-0.009 -0.0114,-0.0318 l -0.0863,-0.29535 h -0.49982 l -0.0863,0.29535 q -0.009,0.0386 -0.0409,0.0386 z m 0.37259,-1.24273 -0.19992,0.72701 h 0.41121 l -0.2022,-0.72701 z m 0.97465,1.24273 h -0.14313 q -0.0386,0 -0.0386,-0.0386 v -1.38359 q 0,-0.0386 0.0386,-0.0386 h 0.53163 q 0.16584,0 0.25899,0.0954 0.0954,0.0931 0.0954,0.259 v 0.19084 q 0,0.26126 -0.21583,0.32942 v 0.009 l 0.25218,0.53162 q 0.025,0.0454 -0.0295,0.0454 h -0.14086 q -0.0545,0 -0.0704,-0.0386 l -0.24309,-0.52254 H 117.315 q -0.0273,0 -0.0273,0.0227 v 0.49982 q 0,0.0386 -0.0386,0.0386 z m 0.0636,-0.74291 h 0.28854 q 0.16812,0 0.16812,-0.16585 v -0.19084 q 0,-0.16812 -0.16812,-0.16812 h -0.28854 q -0.025,0 -0.025,0.0227 v 0.47937 q 0,0.0227 0.025,0.0227 z m 1.16776,0.74291 h -0.14313 q -0.0386,0 -0.0386,-0.0386 v -1.38359 q 0,-0.0386 0.0386,-0.0386 h 0.54071 q 0.16585,0 0.259,0.0932 0.0931,0.0909 0.0931,0.25899 v 0.23628 q 0,0.16585 -0.0931,0.259 -0.0932,0.0932 -0.259,0.0932 h -0.33169 q -0.0273,0 -0.0273,0.0227 v 0.45892 q 0,0.0386 -0.0386,0.0386 z m 0.0636,-0.71565 h 0.30217 q 0.1613,0 0.1613,-0.16812 v -0.21583 q 0,-0.16812 -0.1613,-0.16812 h -0.30217 q -0.025,0 -0.025,0.0227 v 0.50663 q 0,0.0227 0.025,0.0227 z m 1.72892,0.71565 h -0.7361 q -0.0386,0 -0.0386,-0.0386 v -1.38359 q 0,-0.0386 0.0386,-0.0386 h 0.14313 q 0.0386,0 0.0386,0.0386 v 1.20184 q 0,0.0227 0.0273,0.0227 h 0.52708 q 0.0386,0 0.0386,0.0409 v 0.11814 q 0,0.0386 -0.0386,0.0386 z"
       id="text41"
       style="font-weight:600;font-size:2.2719px;line-height:1.7;font-family:Rajdhani;-inkscape-font-specification:'Rajdhani, Semi-Bold';text-align:center;text-anchor:middle;fill:#333333;stroke-width:0.0600951"
       aria-label="ARPL" />
    <path
       d="m 97.939551,168.57234 h -0.143129 q -0.03862,0 -0.03862,-0.0386 v -1.38359 q 0,-0.0386 0.03862,-0.0386 h 0.143129 q 0.03862,0 0.03862,0.0386 v 0.72019 h 0.0068 q 0.02272,-0.0613 0.05907,-0.11359 l 0.433933,-0.6066 q 0.02499,-0.0386 0.0727,-0.0386 h 0.16812 q 0.04771,0 0.0159,0.0432 l -0.44302,0.60205 0.499818,0.77017 q 0.02726,0.0454 -0.02726,0.0454 h -0.127226 q -0.06134,0 -0.08633,-0.0386 l -0.393039,-0.61569 -0.17948,0.21129 v 0.4044 q 0,0.0386 -0.03862,0.0386 z m 1.828881,0 h -0.727008 q -0.03862,0 -0.03862,-0.0386 v -1.38359 q 0,-0.0386 0.03862,-0.0386 h 0.727008 q 0.03635,0 0.03635,0.0386 v 0.11587 q 0,0.0386 -0.03635,0.0386 h -0.517994 q -0.02726,0 -0.02726,0.0227 v 0.38395 q 0,0.0227 0.02726,0.0227 h 0.438477 q 0.04089,0 0.04089,0.0386 v 0.11587 q 0,0.0386 -0.04089,0.0386 h -0.438477 q -0.02726,0 -0.02726,0.0227 v 0.4044 q 0,0.025 0.02726,0.025 h 0.517994 q 0.03635,0 0.03635,0.0386 v 0.11587 q 0,0.0386 -0.03635,0.0386 z m 0.808798,0 h -0.1454 q -0.0386,0 -0.0386,-0.0386 v -0.50209 l -0.424842,-0.87923 q -0.0091,-0.0182 0,-0.0295 0.0091,-0.0114 0.02499,-0.0114 h 0.181751 q 0.0295,0 0.0454,0.0386 l 0.27944,0.62478 h 0.0136 l 0.2749,-0.62478 q 0.0136,-0.0386 0.0454,-0.0386 h 0.18175 q 0.0182,0 0.025,0.0114 0.009,0.0114 0,0.0295 l -0.42484,0.87923 v 0.50209 q 0,0.0386 -0.0386,0.0386 z"
       id="text42"
       style="font-weight:600;font-size:2.2719px;line-height:1.7;font-family:Rajdhani;-inkscape-font-specification:'Rajdhani, Semi-Bold';text-align:center;text-anchor:middle;fill:#333333;stroke-width:0.0600951"
       aria-label="KEY" />
    <path
       d="m 89.92122,128.85127 v -0.0591 q 0,-0.0386 0.03862,-0.0386 h 0.145402 q 0.03862,0 0.03862,0.0386 v 0.0409 q 0,0.0954 0.04089,0.13858 0.04317,0.0409 0.140858,0.0409 h 0.156761 q 0.09769,0 0.140858,-0.0432 0.04317,-0.0454 0.04317,-0.1454 v -0.0522 q 0,-0.0727 -0.0568,-0.1136 -0.05453,-0.0432 -0.136314,-0.0545 -0.08179,-0.0136 -0.17948,-0.0363 -0.09769,-0.0227 -0.17948,-0.0523 -0.08179,-0.0295 -0.138586,-0.11132 -0.05453,-0.0818 -0.05453,-0.20902 v -0.0954 q 0,-0.16585 0.09315,-0.25899 0.09542,-0.0954 0.261268,-0.0954 h 0.240822 q 0.16812,0 0.261268,0.0954 0.09542,0.0931 0.09542,0.25899 v 0.05 q 0,0.0386 -0.03862,0.0386 h -0.145402 q -0.03862,0 -0.03862,-0.0386 v -0.0295 q 0,-0.0977 -0.04317,-0.13859 -0.04089,-0.0432 -0.138586,-0.0432 h -0.14313 q -0.09769,0 -0.140858,0.0454 -0.04089,0.0432 -0.04089,0.14994 v 0.0704 q 0,0.10224 0.147674,0.13859 0.06589,0.0159 0.143129,0.0273 0.07952,0.0114 0.159033,0.0341 0.07952,0.0227 0.145402,0.0613 0.06589,0.0363 0.106779,0.11359 0.0409,0.075 0.0409,0.18403 v 0.0886 q 0,0.16585 -0.09542,0.26127 -0.09315,0.0932 -0.258997,0.0932 h -0.254453 q -0.165848,0 -0.261268,-0.0932 -0.09542,-0.0954 -0.09542,-0.26127 z m 2.037895,0.35442 h -0.727008 q -0.03862,0 -0.03862,-0.0386 v -1.38359 q 0,-0.0386 0.03862,-0.0386 h 0.727008 q 0.03635,0 0.03635,0.0386 v 0.11587 q 0,0.0386 -0.03635,0.0386 h -0.517993 q -0.02726,0 -0.02726,0.0227 v 0.38395 q 0,0.0227 0.02726,0.0227 h 0.438477 q 0.04089,0 0.04089,0.0386 v 0.11587 q 0,0.0386 -0.04089,0.0386 h -0.438477 q -0.02726,0 -0.02726,0.0227 v 0.4044 q 0,0.025 0.02726,0.025 h 0.517993 q 0.03635,0 0.03635,0.0386 v 0.11587 q 0,0.0386 -0.03635,0.0386 z m 1.090511,0 h -0.727008 q -0.03862,0 -0.03862,-0.0386 v -1.38359 q 0,-0.0386 0.03862,-0.0386 h 0.727008 q 0.03635,0 0.03635,0.0386 v 0.11587 q 0,0.0386 -0.03635,0.0386 h -0.517993 q -0.02726,0 -0.02726,0.0227 v 0.38395 q 0,0.0227 0.02726,0.0227 h 0.438477 q 0.04089,0 0.04089,0.0386 v 0.11587 q 0,0.0386 -0.04089,0.0386 h -0.438477 q -0.02726,0 -0.02726,0.0227 v 0.4044 q 0,0.025 0.02726,0.025 h 0.517993 q 0.03635,0 0.03635,0.0386 v 0.11587 q 0,0.0386 -0.03635,0.0386 z m 0.570246,-0.19311 h 0.320338 q 0.163577,0 0.163577,-0.16812 v -0.73837 q 0,-0.16812 -0.163577,-0.16812 h -0.320338 q -0.02499,0 -0.02499,0.0227 v 1.0269 q 0,0.025 0.02499,0.025 z m -0.245365,0.15449 v -1.38359 q 0,-0.0386 0.03862,-0.0386 h 0.558887 q 0.165849,0 0.258997,0.0931 0.09542,0.0909 0.09542,0.259 v 0.75654 q 0,0.16585 -0.09542,0.259 -0.09315,0.0932 -0.258997,0.0932 h -0.558887 q -0.03862,0 -0.03862,-0.0386 z"
       id="text43"
       style="font-weight:600;font-size:2.2719px;line-height:1.7;font-family:Rajdhani;-inkscape-font-specification:'Rajdhani, Semi-Bold';text-align:center;text-anchor:middle;fill:#333333;stroke-width:0.0600951"
       aria-label="SEED" />
    <path
       d="m 89.846252,157.81322 h -0.26354 q -0.168121,0 -0.261269,-0.0932 -0.09088,-0.0931 -0.09088,-0.259 v -0.75654 q 0,-0.16812 0.09088,-0.259 0.09315,-0.0931 0.261269,-0.0931 h 0.26354 q 0.165849,0 0.258997,0.0931 0.09315,0.0909 0.09315,0.259 v 0.10905 q 0,0.0409 -0.0409,0.0409 h -0.143129 q -0.03862,0 -0.03862,-0.0409 v -0.1 q 0,-0.16812 -0.163576,-0.16812 h -0.197656 q -0.163576,0 -0.163576,0.16812 v 0.73837 q 0,0.16812 0.163576,0.16812 h 0.197656 q 0.163576,0 0.163576,-0.16812 v -0.1 q 0,-0.0409 0.03862,-0.0409 h 0.143129 q 0.0409,0 0.0409,0.0409 v 0.10905 q 0,0.16585 -0.09315,0.259 -0.09315,0.0932 -0.258997,0.0932 z m 1.40858,0 h -0.736095 q -0.03862,0 -0.03862,-0.0386 v -1.38358 q 0,-0.0386 0.03862,-0.0386 h 0.143129 q 0.03862,0 0.03862,0.0386 v 1.20183 q 0,0.0227 0.02726,0.0227 h 0.527081 q 0.03862,0 0.03862,0.0409 v 0.11813 q 0,0.0386 -0.03862,0.0386 z m 0.608871,-0.19311 h 0.197655 q 0.165849,0 0.165849,-0.16812 v -0.73837 q 0,-0.16812 -0.165849,-0.16812 h -0.197655 q -0.163577,0 -0.163577,0.16812 v 0.73837 q 0,0.16812 0.163577,0.16812 z m 0.231734,0.19311 h -0.26354 q -0.168121,0 -0.261269,-0.0932 -0.09088,-0.0931 -0.09088,-0.259 v -0.75654 q 0,-0.16812 0.09088,-0.259 0.09315,-0.0931 0.261269,-0.0931 h 0.26354 q 0.168121,0 0.261268,0.0931 0.09315,0.0909 0.09315,0.259 v 0.75654 q 0,0.16585 -0.09315,0.259 -0.09315,0.0932 -0.261268,0.0932 z m 1.254089,0 h -0.263541 q -0.16812,0 -0.261268,-0.0932 -0.09088,-0.0931 -0.09088,-0.259 v -0.75654 q 0,-0.16812 0.09088,-0.259 0.09315,-0.0931 0.261268,-0.0931 h 0.263541 q 0.165849,0 0.258996,0.0931 0.09315,0.0909 0.09315,0.259 v 0.10905 q 0,0.0409 -0.04089,0.0409 h -0.14313 q -0.03862,0 -0.03862,-0.0409 v -0.1 q 0,-0.16812 -0.163577,-0.16812 h -0.197655 q -0.163577,0 -0.163577,0.16812 v 0.73837 q 0,0.16812 0.163577,0.16812 h 0.197655 q 0.163577,0 0.163577,-0.16812 v -0.1 q 0,-0.0409 0.03862,-0.0409 h 0.14313 q 0.04089,0 0.04089,0.0409 v 0.10905 q 0,0.16585 -0.09315,0.259 -0.09315,0.0932 -0.258996,0.0932 z m 0.815614,0 h -0.14313 q -0.03862,0 -0.03862,-0.0386 v -1.38358 q 0,-0.0386 0.03862,-0.0386 h 0.14313 q 0.03862,0 0.03862,0.0386 v 0.72019 h 0.0068 q 0.02272,-0.0613 0.05907,-0.11359 l 0.433933,-0.6066 q 0.02499,-0.0386 0.0727,-0.0386 h 0.16812 q 0.04771,0 0.0159,0.0432 l -0.443021,0.60206 0.499818,0.77017 q 0.02726,0.0454 -0.02726,0.0454 h -0.127226 q -0.06134,0 -0.08633,-0.0386 l -0.393039,-0.61568 -0.17948,0.21129 v 0.40439 q 0,0.0386 -0.03862,0.0386 z"
       id="text44"
       style="font-weight:600;font-size:2.2719px;line-height:1.7;font-family:Rajdhani;-inkscape-font-specification:'Rajdhani, Semi-Bold';text-align:center;text-anchor:middle;fill:#333333;stroke-width:0.0600951"
       aria-label="CLOCK" />
    <path
       id="rect47"
       style="fill:#f2f2f2;fill-opacity:1;stroke:none;stroke-width:0.132292;stroke-dasharray:none"
       d="m 105.74135,190.15997 c 0.0675,0.0513 0.15159,0.0816 0.24339,0.0816 h 6.79804 c 0.0918,0 0.17631,-0.0303 0.24391,-0.0816 z" />
    <path
       id="rect48"
       style="fill:#f2f2f2;fill-opacity:1;stroke:none;stroke-width:0.132292;stroke-dasharray:none"
       d="m 114.37079,190.15997 c 0.0676,0.0513 0.15211,0.0816 0.24392,0.0816 h 6.79803 c 0.0918,0 0.17632,-0.0303 0.24391,-0.0816 z" />
    <path
       id="rect106"
       style="fill:#f2f2f2;fill-opacity:1;stroke-width:0.424469"
       d="M 97.508258 172.54657 L 97.508258 177.18298 L 97.863792 177.18298 L 117.13135 177.18298 L 117.13135 176.82693 L 97.863792 176.82693 L 97.863792 172.54657 L 97.508258 172.54657 z " />
    <path
       style="font-weight:600;font-size:2.89412px;line-height:1.7;font-family:Rajdhani;-inkscape-font-specification:'Rajdhani, Semi-Bold';text-align:center;text-anchor:middle;fill:#333333;stroke-width:0.249987"
       d="m 99.774275,148.43105 h -0.573036 q -0.0492,0 -0.0492,-0.0521 v -0.12734 q 0,-0.0521 0.0492,-0.0521 h 0.573036 q 0.0492,0 0.0492,0.0521 v 0.12734 q 0,0.0521 -0.0492,0.0521 z m 2.460005,-0.24021 h 0.41386 q 0.055,0 0.055,0.0579 v 0.12155 q 0,0.055 -0.055,0.055 h -0.41386 v 0.41965 q 0,0.0579 -0.0579,0.0579 h -0.13024 q -0.055,0 -0.055,-0.0579 v -0.41965 h -0.41675 q -0.055,0 -0.055,-0.055 v -0.12155 q 0,-0.0579 0.055,-0.0579 h 0.41675 v -0.41675 q 0,-0.0579 0.055,-0.0579 h 0.13024 q 0.0579,0 0.0579,0.0579 z"
       id="text6"
       aria-label="-  +" />
    <path
       style="font-weight:600;font-size:2.89412px;line-height:1.7;font-family:Rajdhani;-inkscape-font-specification:'Rajdhani, Semi-Bold';text-align:center;text-anchor:middle;fill:#333333;stroke-width:0.249987"
       d="m 108.44609,148.43105 h -0.57303 q -0.0492,0 -0.0492,-0.0521 v -0.12734 q 0,-0.0521 0.0492,-0.0521 h 0.57303 q 0.0492,0 0.0492,0.0521 v 0.12734 q 0,0.0521 -0.0492,0.0521 z m 2.46001,-0.24021 h 0.41386 q 0.055,0 0.055,0.0579 v 0.12155 q 0,0.055 -0.055,0.055 h -0.41386 v 0.41965 q 0,0.0579 -0.0579,0.0579 h -0.13024 q -0.055,0 -0.055,-0.0579 v -0.41965 h -0.41675 q -0.055,0 -0.055,-0.055 v -0.12155 q 0,-0.0579 0.055,-0.0579 h 0.41675 v -0.41675 q 0,-0.0579 0.055,-0.0579 h 0.13024 q 0.0579,0 0.0579,0.0579 z"
       id="text7"
       aria-label="-  +" />
  </g>
</svg>
