<?xml version="1.0" encoding="UTF-8" standalone="no"?>
<!-- Created with Inkscape (http://www.inkscape.org/) -->

<svg
   width="7.2735701mm"
   height="3.02194mm"
   viewBox="0 0 7.2735701 3.02194"
   version="1.1"
   id="svg1"
   inkscape:version="1.4.2 (f4327f4, 2025-05-13)"
   sodipodi:docname="hungarianminor.svg"
   xmlns:inkscape="http://www.inkscape.org/namespaces/inkscape"
   xmlns:sodipodi="http://sodipodi.sourceforge.net/DTD/sodipodi-0.dtd"
   xmlns="http://www.w3.org/2000/svg"
   xmlns:svg="http://www.w3.org/2000/svg">
  <sodipodi:namedview
     id="namedview1"
     pagecolor="#ffffff"
     bordercolor="#cccccc"
     borderopacity="1"
     inkscape:showpageshadow="0"
     inkscape:pageopacity="1"
     inkscape:pagecheckerboard="0"
     inkscape:deskcolor="#d1d1d1"
     inkscape:document-units="mm"
     inkscape:zoom="23.005387"
     inkscape:cx="11.214765"
     inkscape:cy="9.3239031"
     inkscape:window-width="1920"
     inkscape:window-height="1009"
     inkscape:window-x="-8"
     inkscape:window-y="-8"
     inkscape:window-maximized="1"
     inkscape:current-layer="layer1" />
  <defs
     id="defs1" />
  <g
     inkscape:label="Layer 1"
     inkscape:groupmode="layer"
     id="layer1"
     transform="translate(-100.36709,-153.19377)">
    <path
       style="fill:#333333;stroke-width:0.0367905"
       d="m 101.90266,154.71904 -0.16587,0.16476 v 0.95931 l 0.2769,0.27669 c 0.0343,-0.042 0.0559,-0.0948 0.0588,-0.15276 v -1.248 z"
       id="path10" />
    <path
       style="fill:#333333;stroke-width:0.0367905"
       d="m 100.36714,154.71904 v 1.23418 c 0,0.0632 0.0221,0.12114 0.0591,0.16641 l 0.27672,-0.27652 v -0.95931 l -0.16587,-0.16476 z"
       id="path9" />
    <path
       style="fill:#333333;stroke-width:0.0367905"
       d="m 101.37724,154.56698 -0.13415,0.13414 0.13591,0.1359 h 0.35031 l 0.12393,-0.12639 -0.14013,-0.14365 z"
       id="path8" />
    <path
       style="fill:#333333;stroke-width:0.0367905"
       d="m 100.72656,154.56698 -0.14012,0.14365 0.12392,0.12639 h 0.35032 l 0.1359,-0.1359 -0.13414,-0.13414 z"
       id="path7" />
    <path
       style="fill:#333333;stroke-width:0.0367905"
       d="m 100.42629,153.2899 c -0.037,0.0452 -0.0592,0.10319 -0.0592,0.16647 v 1.23398 h 0.16987 l 0.16587,-0.16476 v -0.95931 z"
       id="path3" />
    <path
       style="fill:#333333;stroke-width:0.0367905"
       d="m 102.0136,153.28967 -0.27681,0.27661 v 0.95931 l 0.16587,0.16476 h 0.16987 v -1.24774 c -0.003,-0.058 -0.0245,-0.11094 -0.0589,-0.15294 z"
       id="path2" />
    <path
       style="fill:#333333;stroke-width:0.0367905"
       d="m 103.31434,155.87994 -0.21133,0.21133 v 0.12442 h 0.57987 c 0.0581,-0.003 0.11084,-0.026 0.15253,-0.061 l -0.2729,-0.27475 z"
       id="path30" />
    <path
       style="fill:#333333;stroke-width:0.0367905"
       d="m 102.58926,155.87994 -0.27279,0.27457 c 0.0417,0.0351 0.0946,0.0576 0.15276,0.0612 h 0.57952 v -0.12442 l -0.21133,-0.21133 z"
       id="path29" />
    <path
       style="fill:#333333;stroke-width:0.0367905"
       d="m 103.7587,154.71904 -0.16587,0.16476 v 0.95931 l 0.27691,0.27669 c 0.0343,-0.042 0.0559,-0.0948 0.0588,-0.15276 v -1.248 z"
       id="path25" />
    <path
       style="fill:#333333;stroke-width:0.0367905"
       d="m 102.22318,154.71904 v 1.23418 c 0,0.0632 0.0221,0.12114 0.059,0.16641 l 0.27672,-0.27652 v -0.95931 l -0.16587,-0.16476 z"
       id="path24" />
    <path
       style="fill:#333333;stroke-width:0.0367905"
       d="m 102.28233,153.2899 c -0.037,0.0452 -0.0592,0.10319 -0.0592,0.16647 v 1.23398 h 0.16987 l 0.16587,-0.16476 v -0.95931 z"
       id="path18" />
    <path
       style="fill:#333333;stroke-width:0.0367905"
       d="m 103.86965,153.28967 -0.27682,0.27661 v 0.95931 l 0.16587,0.16476 h 0.16988 v -1.24774 c -0.003,-0.058 -0.0245,-0.11094 -0.0589,-0.15294 z"
       id="path17" />
    <path
       style="fill:#333333;stroke-width:0.0367905"
       d="m 105.08862,154.88973 v 0.36476 l 0.20561,0.5957 h 0.11408 v -0.36898 l -0.19014,-0.59148 z"
       id="path43" />
    <path
       style="fill:#333333;stroke-width:0.0367905"
       d="m 105.61475,154.71904 -0.16587,0.16476 v 0.95931 l 0.2769,0.27669 c 0.0343,-0.042 0.0559,-0.0948 0.0588,-0.15276 v -1.248 z"
       id="path40" />
    <path
       style="fill:#333333;stroke-width:0.0367905"
       d="m 104.07922,154.71904 v 1.23418 c 0,0.0632 0.0221,0.12114 0.059,0.16641 l 0.27673,-0.27652 v -0.95931 l -0.16587,-0.16476 z"
       id="path39" />
    <path
       style="fill:#333333;stroke-width:0.0367905"
       d="m 104.45555,153.55935 v 0.36896 l 0.19011,0.59149 h 0.12956 v -0.36474 l -0.2056,-0.59571 z"
       id="path35" />
    <path
       style="fill:#333333;stroke-width:0.0367905"
       d="m 104.13838,153.2899 c -0.037,0.0452 -0.0592,0.10319 -0.0592,0.16647 v 1.23398 h 0.16988 l 0.16586,-0.16476 v -0.95931 z"
       id="path33" />
    <path
       style="fill:#333333;stroke-width:0.0367905"
       d="m 105.72569,153.28967 -0.27681,0.27661 v 0.95931 l 0.16587,0.16476 h 0.16987 v -1.24774 c -0.003,-0.058 -0.0246,-0.11094 -0.059,-0.15294 z"
       id="path32" />
    <path
       style="fill:#333333;stroke-width:0.0367905"
       d="m 107.47079,154.71904 -0.16587,0.16476 v 0.95931 l 0.27691,0.27669 c 0.0343,-0.042 0.0559,-0.0948 0.0588,-0.15276 v -1.248 z"
       id="path56" />
    <path
       style="fill:#333333;stroke-width:0.0367905"
       d="m 105.93527,154.71904 v 1.23418 c 0,0.0632 0.0221,0.12114 0.059,0.16641 l 0.27673,-0.27652 v -0.95931 l -0.16587,-0.16477 z"
       id="path55" />
    <path
       style="fill:#333333;stroke-width:0.0367905"
       d="m 107.15027,153.55935 -0.20561,0.59571 v 0.36474 h 0.12956 l 0.19012,-0.59149 v -0.36896 z"
       id="path51" />
    <path
       style="fill:#333333;stroke-width:0.0367905"
       d="m 106.31159,153.55935 v 0.36896 l 0.19012,0.59149 h 0.12956 v -0.36474 l -0.20561,-0.59571 z"
       id="path50" />
    <path
       style="fill:#333333;stroke-width:0.0367905"
       d="m 105.99442,153.2899 c -0.037,0.0452 -0.0592,0.10319 -0.0592,0.16647 v 1.23398 h 0.16988 l 0.16586,-0.16476 v -0.95931 z"
       id="path48" />
    <path
       style="fill:#333333;stroke-width:0.0367905"
       d="m 107.58173,153.28967 -0.27681,0.27661 v 0.95931 l 0.16587,0.16476 h 0.16987 v -1.24774 c -0.003,-0.058 -0.0245,-0.11094 -0.0589,-0.15294 z"
       id="path47" />
  </g>
</svg>
