<?xml version="1.0" encoding="UTF-8" standalone="no"?>
<!-- Created with Inkscape (http://www.inkscape.org/) -->

<svg
   width="3.5614569mm"
   height="3.02194mm"
   viewBox="0 0 3.561457 3.02194"
   version="1.1"
   id="svg1"
   inkscape:version="1.4.2 (f4327f4, 2025-05-13)"
   sodipodi:docname="key_main.svg"
   xmlns:inkscape="http://www.inkscape.org/namespaces/inkscape"
   xmlns:sodipodi="http://sodipodi.sourceforge.net/DTD/sodipodi-0.dtd"
   xmlns="http://www.w3.org/2000/svg"
   xmlns:svg="http://www.w3.org/2000/svg">
  <sodipodi:namedview
     id="namedview1"
     pagecolor="#ffffff"
     bordercolor="#cccccc"
     borderopacity="1"
     inkscape:showpageshadow="0"
     inkscape:pageopacity="1"
     inkscape:pagecheckerboard="0"
     inkscape:deskcolor="#d1d1d1"
     inkscape:document-units="mm"
     inkscape:zoom="16.267265"
     inkscape:cx="-0.21515602"
     inkscape:cy="12.755678"
     inkscape:window-width="1920"
     inkscape:window-height="1009"
     inkscape:window-x="-8"
     inkscape:window-y="-8"
     inkscape:window-maximized="1"
     inkscape:current-layer="layer1" />
  <defs
     id="defs1" />
  <g
     inkscape:label="Layer 1"
     inkscape:groupmode="layer"
     id="layer1"
     transform="translate(-93.133336,-153.19377)">
    <path
       id="path105"
       style="fill:#333333;stroke-width:0.0367905"
       d="m 93.383586,153.19377 c -0.05968,0.003 -0.114103,0.0254 -0.156803,0.0613 l 0.272639,0.27444 h 0.24817 l 0.21133,-0.21133 v -0.12441 z m 0.629601,0 v 0.12443 l 0.21133,0.21133 h 0.24817 l 0.272765,-0.27463 c -0.0427,-0.0358 -0.09696,-0.0583 -0.156585,-0.0611 z m 0.766627,0.0959 -0.276808,0.27661 v 0.95931 l 0.165864,0.16476 h 0.169874 v -1.24774 c -0.0034,-0.058 -0.02454,-0.11094 -0.05892,-0.15294 z m -1.587308,2.3e-4 c -0.03698,0.0452 -0.05917,0.10319 -0.05917,0.16647 v 1.23398 h 0.169874 l 0.165865,-0.16476 v -0.95931 z m 0.793918,0.0582 -0.117634,0.12041 v 1.07735 c 0,0 0.112558,0.11425 0.116533,0.11653 0.0042,0.003 0.117945,-0.11794 0.117945,-0.11794 v -1.0795 z m -0.476748,0.21125 v 0.36896 l 0.190115,0.59149 h 0.129561 v -0.36474 l -0.205605,-0.59571 z m 0.838678,0 -0.205605,0.59571 v 0.36474 h 0.129553 l 0.190131,-0.59149 v -0.36896 z m -0.855581,1.00763 -0.140119,0.14365 0.123922,0.12639 h 0.350313 l 0.135899,-0.1359 -0.134134,-0.13414 z m 0.650682,0 -0.134151,0.13414 0.135908,0.1359 h 0.350313 l 0.12393,-0.12639 -0.140127,-0.14365 z m -1.010107,0.15206 v 1.23418 c 0,0.0632 0.02211,0.12114 0.05909,0.16641 l 0.276724,-0.27652 v -0.95931 l -0.165864,-0.1648 z m 1.535522,0 -0.165864,0.16476 v 0.95931 l 0.2769,0.27669 c 0.03429,-0.042 0.0559,-0.0948 0.05884,-0.15276 v -1.248 z m -0.683547,0.0281 c -0.0042,0.003 -0.116533,0.11654 -0.116533,0.11654 v 1.07734 l 0.117634,0.12041 0.116844,-0.11683 v -1.07951 c 0,0 -0.113969,-0.12023 -0.117945,-0.11795 z m -0.285532,0.14259 -0.190115,0.59148 v 0.36898 h 0.114071 l 0.205605,-0.5957 v -0.36476 z m 0.442958,0 v 0.36476 l 0.205605,0.5957 h 0.114079 v -0.36898 l -0.190131,-0.59148 z m -0.643327,0.99021 -0.272773,0.27457 c 0.04169,0.0351 0.09464,0.0576 0.15276,0.0612 h 0.579513 v -0.12442 l -0.21133,-0.21133 z m 0.725095,0 -0.21133,0.21133 v 0.12442 h 0.579858 c 0.05808,-0.003 0.110851,-0.026 0.152542,-0.061 l -0.2729,-0.27475 z" />
    <path
       id="path106"
       style="fill:#333333;stroke-width:0.0367905"
       d="m 95.239633,153.19377 c -0.05976,0.003 -0.114112,0.0254 -0.156812,0.0613 l 0.272648,0.27444 h 0.248162 l 0.211329,-0.21133 v -0.12441 z m 0.629593,0 v 0.12443 l 0.211329,0.21133 h 0.248171 l 0.272765,-0.27463 c -0.0427,-0.0358 -0.09696,-0.0583 -0.156585,-0.0611 z m 0.766635,0.0959 -0.276817,0.27661 v 0.95931 l 0.165873,0.16476 h 0.169874 v -1.24774 c -0.0034,-0.058 -0.02454,-0.11094 -0.05892,-0.15294 z m -1.587317,2.3e-4 c -0.03698,0.0452 -0.05917,0.10319 -0.05917,0.16647 v 1.23398 h 0.169874 l 0.165873,-0.16476 v -0.95931 z m 0.793919,0.0582 -0.117634,0.12041 v 1.07735 c 0,0 0.112565,0.11425 0.116541,0.11653 0.0042,0.003 0.117937,-0.11794 0.117937,-0.11794 v -1.0795 z m -0.476748,0.21125 v 0.36896 l 0.190122,0.59149 h 0.129562 v -0.36474 l -0.205614,-0.59571 z m 0.838678,0 -0.205606,0.59571 v 0.36474 h 0.129562 l 0.190122,-0.59149 v -0.36896 z m -0.855573,1.00763 -0.140127,0.14365 0.12393,0.12639 h 0.350313 l 0.135899,-0.1359 -0.134142,-0.13414 z m 0.650673,0 -0.134142,0.13414 0.135899,0.1359 h 0.350313 l 0.12393,-0.12639 -0.140118,-0.14365 z m -1.010098,0.15206 v 1.23418 c 0,0.0632 0.02211,0.12114 0.05901,0.16641 l 0.276724,-0.27652 v -0.95931 l -0.165877,-0.1648 z m 1.535522,0 -0.165873,0.16476 v 0.95931 l 0.276909,0.27669 c 0.03429,-0.042 0.0559,-0.0948 0.05884,-0.15276 v -1.248 z m -0.683547,0.0281 c -0.0042,0.003 -0.116541,0.11654 -0.116541,0.11654 v 1.07734 l 0.117634,0.12041 0.116844,-0.11683 v -1.07951 c 0,0 -0.113969,-0.12023 -0.117937,-0.11795 z m -0.285533,0.14259 -0.190122,0.59148 v 0.36898 h 0.11407 l 0.205614,-0.5957 v -0.36476 z m 0.44295,0 v 0.36476 l 0.205606,0.5957 h 0.114078 v -0.36898 l -0.190122,-0.59148 z m -0.643318,0.99021 -0.272782,0.27457 c 0.04169,0.0351 0.09464,0.0576 0.15276,0.0612 h 0.579513 v -0.12442 l -0.211329,-0.21133 z m 0.725086,0 -0.211329,0.21133 v 0.12442 h 0.579866 c 0.05808,-0.003 0.110842,-0.026 0.152533,-0.061 l -0.272899,-0.27475 z" />
  </g>
</svg>
