<?xml version="1.0" encoding="UTF-8" standalone="no"?>
<!-- Created with Inkscape (http://www.inkscape.org/) -->

<svg
   width="8.2595901mm"
   height="8.2606201mm"
   viewBox="0 0 8.2595901 8.2606201"
   version="1.1"
   id="svg1"
   inkscape:version="1.4.2 (f4327f4, 2025-05-13)"
   sodipodi:docname="knob_00.svg"
   xmlns:inkscape="http://www.inkscape.org/namespaces/inkscape"
   xmlns:sodipodi="http://sodipodi.sourceforge.net/DTD/sodipodi-0.dtd"
   xmlns="http://www.w3.org/2000/svg"
   xmlns:svg="http://www.w3.org/2000/svg">
  <sodipodi:namedview
     id="namedview1"
     pagecolor="#ffffff"
     bordercolor="#cccccc"
     borderopacity="1"
     inkscape:showpageshadow="0"
     inkscape:pageopacity="1"
     inkscape:pagecheckerboard="0"
     inkscape:deskcolor="#d1d1d1"
     inkscape:document-units="mm"
     inkscape:zoom="11.502693"
     inkscape:cx="6.2594036"
     inkscape:cy="12.301467"
     inkscape:window-width="1920"
     inkscape:window-height="1009"
     inkscape:window-x="-8"
     inkscape:window-y="-8"
     inkscape:window-maximized="1"
     inkscape:current-layer="layer1" />
  <defs
     id="defs1" />
  <g
     inkscape:label="Layer 1"
     inkscape:groupmode="layer"
     id="layer1"
     transform="translate(-101.07084,-144.46249)">
    <path
       id="path1"
       style="fill:#2d2d2d;stroke-width:0.432001"
       d="m 109.33043,148.59229 a 4.1297951,4.1297951 0 0 1 -4.12979,4.12979 4.1297951,4.1297951 0 0 1 -4.1298,-4.12979 4.1297951,4.1297951 0 0 1 4.1298,-4.1298 4.1297951,4.1297951 0 0 1 4.12979,4.1298 z" />
    <path
       id="path4"
       style="fill:#4c4c4c;fill-opacity:1;stroke-width:0.116441"
       d="m 108.41627,148.5928 a 3.2156241,3.2156241 0 0 1 -3.21563,3.21563 3.2156241,3.2156241 0 0 1 -3.21563,-3.21563 3.2156241,3.2156241 0 0 1 3.21563,-3.21563 3.2156241,3.2156241 0 0 1 3.21563,3.21563 z" />
    <path
       id="circle190"
       style="fill:#404040;stroke-width:0.10938"
       d="m 108.22127,148.5928 a 3.0206288,3.0206288 0 0 1 -3.02063,3.02063 3.0206288,3.0206288 0 0 1 -3.02063,-3.02063 3.0206288,3.0206288 0 0 1 3.02063,-3.02063 3.0206288,3.0206288 0 0 1 3.02063,3.02063 z" />
    <path
       id="rect1"
       style="fill:#f9f9f9;stroke-width:0.536596"
       d="M 105.20082 144.54362 A 4.0484711 4.0484711 0 0 0 104.94089 144.55241 L 104.94089 146.54247 C 104.94089 146.68184 105.05317 146.79413 105.19255 146.79413 C 105.33192 146.79413 105.44422 146.68184 105.44422 146.54247 L 105.44422 144.55137 A 4.0484711 4.0484711 0 0 0 105.20082 144.54362 z " />
  </g>
</svg>
