<?xml version="1.0" encoding="UTF-8" standalone="no"?>
<!-- Created with Inkscape (http://www.inkscape.org/) -->

<svg
   width="8.2595901mm"
   height="8.2606201mm"
   viewBox="0 0 8.2595901 8.2606201"
   version="1.1"
   id="svg1"
   inkscape:version="1.4.2 (f4327f4, 2025-05-13)"
   sodipodi:docname="knob_00.svg"
   xmlns:inkscape="http://www.inkscape.org/namespaces/inkscape"
   xmlns:sodipodi="http://sodipodi.sourceforge.net/DTD/sodipodi-0.dtd"
   xmlns="http://www.w3.org/2000/svg"
   xmlns:svg="http://www.w3.org/2000/svg">
  <sodipodi:namedview
     id="namedview1"
     pagecolor="#ffffff"
     bordercolor="#cccccc"
     borderopacity="1"
     inkscape:showpageshadow="0"
     inkscape:pageopacity="1"
     inkscape:pagecheckerboard="0"
     inkscape:deskcolor="#d1d1d1"
     inkscape:document-units="mm"
     inkscape:zoom="16.267265"
     inkscape:cx="46.781066"
     inkscape:cy="13.923668"
     inkscape:window-width="1920"
     inkscape:window-height="1009"
     inkscape:window-x="-8"
     inkscape:window-y="-8"
     inkscape:window-maximized="1"
     inkscape:current-layer="layer1" />
  <defs
     id="defs1" />
  <g
     inkscape:label="Layer 1"
     inkscape:groupmode="layer"
     id="layer1"
     transform="translate(-101.07084,-144.46249)">
    <path
       id="path189"
       style="fill:#2d2d2d;fill-opacity:1;stroke:none;stroke-width:0.0424383;stroke-dasharray:none"
       inkscape:transform-center-x="0.1945178"
       inkscape:transform-center-y="-0.16866856"
       d="m 105.15353,144.4636 a 4.1314472,4.1314472 0 0 0 -0.19268,0.007 h -4.2e-4 l -0.0608,0.0664 -0.0698,-0.0564 a 4.1314472,4.1314472 0 0 0 -0.19181,0.022 h -4.4e-4 l -0.0553,0.0706 -0.0741,-0.0509 h -4.2e-4 a 4.1314472,4.1314472 0 0 0 -0.18924,0.0366 l -0.05,0.0754 -0.078,-0.0454 h -4.4e-4 a 4.1314472,4.1314472 0 0 0 -0.18579,0.0517 l -0.0436,0.0788 -0.0815,-0.0388 a 4.1314472,4.1314472 0 0 0 -0.18147,0.066 l -0.0375,0.0818 -0.0837,-0.0319 a 4.1314472,4.1314472 0 0 0 -0.17587,0.0798 l -0.031,0.0849 -0.0862,-0.0255 h -4.2e-4 a 4.1314472,4.1314472 0 0 0 -0.16854,0.0936 l -0.0241,0.0866 -0.0884,-0.0186 a 4.1314472,4.1314472 0 0 0 -0.16121,0.1064 l -0.0173,0.0884 -0.0892,-0.0117 a 4.1314472,4.1314472 0 0 0 -0.15216,0.11898 l -0.0104,0.0897 -0.0897,-0.006 a 4.1314472,4.1314472 0 0 0 -0.14224,0.1306 h -4.4e-4 l -0.003,0.0901 -0.0905,0.002 a 4.1314472,4.1314472 0 0 0 -0.13148,0.14095 l 0.005,0.0901 -0.0897,0.009 a 4.1314472,4.1314472 0 0 0 -0.11983,0.15088 l 0.0104,0.0897 -0.0887,0.0164 a 4.1314472,4.1314472 0 0 0 -0.10779,0.16034 l 0.0181,0.0879 -0.087,0.0233 a 4.1314472,4.1314472 0 0 0 0,4.3e-4 4.1314472,4.1314472 0 0 0 -0.0952,0.16812 l 0.025,0.0866 -0.0849,0.0298 a 4.1314472,4.1314472 0 0 0 0,4.2e-4 4.1314472,4.1314472 0 0 0 -0.0818,0.17501 l 0.0314,0.084 -0.0823,0.0366 a 4.1314472,4.1314472 0 0 0 0,4.2e-4 4.1314472,4.1314472 0 0 0 -0.0672,0.18062 v 4.3e-4 l 0.038,0.0815 -0.0793,0.0432 a 4.1314472,4.1314472 0 0 0 -0.0531,0.18535 l 0.0443,0.0785 -0.0759,0.0492 a 4.1314472,4.1314472 0 0 0 -0.0384,0.18923 l 0.0504,0.075 -0.0715,0.0547 a 4.1314472,4.1314472 0 0 0 0,4.4e-4 4.1314472,4.1314472 0 0 0 -0.0238,0.19095 l 0.0564,0.0706 -0.0672,0.0604 a 4.1314472,4.1314472 0 0 0 0,4.4e-4 4.1314472,4.1314472 0 0 0 -0.008,0.19268 l 0.0612,0.066 -0.0621,0.0654 a 4.1314472,4.1314472 0 0 0 0.007,0.19268 v 4.2e-4 l 0.0664,0.0608 -0.0564,0.0698 a 4.1314472,4.1314472 0 0 0 0.0215,0.19181 l 0.0712,0.0556 -0.0509,0.0741 a 4.1314472,4.1314472 0 0 0 0,4.4e-4 4.1314472,4.1314472 0 0 0 0.0366,0.18922 l 0.0754,0.05 -0.0454,0.078 a 4.1314472,4.1314472 0 0 0 0.0517,0.18621 l 0.0788,0.0436 -0.0388,0.0815 a 4.1314472,4.1314472 0 0 0 0.066,0.18147 l 0.0818,0.0375 -0.0324,0.084 a 4.1314472,4.1314472 0 0 0 0.0802,0.17543 l 0.0849,0.0311 -0.0259,0.0866 a 4.1314472,4.1314472 0 0 0 0,4.3e-4 4.1314472,4.1314472 0 0 0 0.0939,0.16811 l 0.0867,0.0241 -0.0186,0.0879 a 4.1314472,4.1314472 0 0 0 0,4.3e-4 4.1314472,4.1314472 0 0 0 0.10652,0.16121 l 0.0884,0.0173 -0.0117,0.0892 a 4.1314472,4.1314472 0 0 0 0.11897,0.15216 l 0.0897,0.0104 -0.006,0.0897 a 4.1314472,4.1314472 0 0 0 0.13019,0.14226 l 0.0901,0.003 0.002,0.0901 a 4.1314472,4.1314472 0 0 0 0.14139,0.1319 l 0.0901,-0.005 0.009,0.0897 a 4.1314472,4.1314472 0 0 0 0.15087,0.11983 l 0.0897,-0.0104 0.0164,0.0888 a 4.1314472,4.1314472 0 0 0 0.15992,0.10779 l 0.0884,-0.0181 0.0233,0.087 a 4.1314472,4.1314472 0 0 0 0.16812,0.0952 l 0.0866,-0.025 0.0302,0.0849 a 4.1314472,4.1314472 0 0 0 0.175,0.0818 l 0.0845,-0.0314 0.0366,0.0823 a 4.1314472,4.1314472 0 0 0 0.18104,0.0672 l 0.0818,-0.038 0.0427,0.0793 h 4.4e-4 a 4.1314472,4.1314472 0 0 0 0.18535,0.0531 l 0.0785,-0.0443 0.0491,0.0759 a 4.1314472,4.1314472 0 0 0 0.18924,0.0384 l 0.0746,-0.0506 0.0552,0.0715 a 4.1314472,4.1314472 0 0 0 0.19138,0.0238 4.1314472,4.1314472 0 0 0 4.3e-4,0 l 0.0703,-0.0561 0.0605,0.0668 a 4.1314472,4.1314472 0 0 0 0.19311,0.009 l 0.066,-0.0612 0.0651,0.062 h 4.2e-4 a 4.1314472,4.1314472 0 0 0 0.19268,-0.007 l 0.0612,-0.0664 0.0698,0.0564 a 4.1314472,4.1314472 0 0 0 0.19182,-0.0215 l 0.0556,-0.0712 0.0741,0.0509 a 4.1314472,4.1314472 0 0 0 0.18967,-0.0366 l 0.05,-0.0755 0.078,0.0454 a 4.1314472,4.1314472 0 0 0 0.18621,-0.0517 l 0.0436,-0.0789 0.0815,0.0388 a 4.1314472,4.1314472 0 0 0 0.18103,-0.066 h 4.4e-4 l 0.037,-0.0819 0.0845,0.0323 a 4.1314472,4.1314472 0 0 0 0.17544,-0.0802 l 0.031,-0.0849 0.0867,0.0255 a 4.1314472,4.1314472 0 0 0 0.16854,-0.0936 l 0.0241,-0.0866 0.0879,0.0186 a 4.1314472,4.1314472 0 0 0 0.16122,-0.10641 l 0.0173,-0.0884 0.0897,0.0117 a 4.1314472,4.1314472 0 0 0 0.15172,-0.11853 l 0.0104,-0.0901 0.0901,0.006 a 4.1314472,4.1314472 0 0 0 0.14224,-0.13017 l 0.003,-0.0901 0.0901,-0.002 a 4.1314472,4.1314472 0 0 0 0.13149,-0.14139 l -0.005,-0.0901 0.0897,-0.009 a 4.1314472,4.1314472 0 0 0 0.12026,-0.15087 l -0.0104,-0.0897 0.0884,-0.0164 a 4.1314472,4.1314472 0 0 0 0.10814,-0.15949 v -4.4e-4 l -0.0181,-0.0884 0.087,-0.0233 a 4.1314472,4.1314472 0 0 0 0.0952,-0.16811 l -0.025,-0.0867 0.0849,-0.0302 a 4.1314472,4.1314472 0 0 0 0.0818,-0.17458 l -0.0319,-0.0849 0.0823,-0.0366 a 4.1314472,4.1314472 0 0 0 0.0676,-0.18103 l -0.038,-0.0818 0.0793,-0.0432 a 4.1314472,4.1314472 0 0 0 0.0531,-0.18535 l -0.0443,-0.0785 0.0759,-0.0492 a 4.1314472,4.1314472 0 0 0 0.0384,-0.1888 v -4.2e-4 l -0.0504,-0.0746 0.0716,-0.0553 a 4.1314472,4.1314472 0 0 0 0.0233,-0.19138 v -4.3e-4 l -0.0561,-0.0703 0.0672,-0.0605 a 4.1314472,4.1314472 0 0 0 0,-4.3e-4 4.1314472,4.1314472 0 0 0 0.009,-0.19269 l -0.0612,-0.066 0.0616,-0.0651 a 4.1314472,4.1314472 0 0 0 -0.007,-0.19312 l -0.0664,-0.0612 0.0564,-0.0698 a 4.1314472,4.1314472 0 0 0 -0.0219,-0.19182 4.1314472,4.1314472 0 0 0 0,-4.3e-4 l -0.0706,-0.0552 0.0509,-0.0741 a 4.1314472,4.1314472 0 0 0 -0.0366,-0.18965 l -0.0754,-0.0501 0.0454,-0.078 a 4.1314472,4.1314472 0 0 0 0,-4.3e-4 4.1314472,4.1314472 0 0 0 -0.0517,-0.18535 l -0.0788,-0.044 0.0388,-0.0815 a 4.1314472,4.1314472 0 0 0 -0.066,-0.18103 v -4.4e-4 l -0.0818,-0.037 0.0323,-0.084 a 4.1314472,4.1314472 0 0 0 -0.0802,-0.17588 l -0.0849,-0.031 0.0255,-0.0862 a 4.1314472,4.1314472 0 0 0 -0.0936,-0.16896 l -0.0867,-0.0241 0.0186,-0.0884 a 4.1314472,4.1314472 0 0 0 -0.10641,-0.16079 l -0.0884,-0.0173 0.0117,-0.0897 a 4.1314472,4.1314472 0 0 0 -0.11855,-0.15173 l -0.0901,-0.0104 0.006,-0.0901 a 4.1314472,4.1314472 0 0 0 -0.13061,-0.14225 4.1314472,4.1314472 0 0 0 -4.4e-4,-4.3e-4 l -0.0897,-0.003 -0.002,-0.0905 a 4.1314472,4.1314472 0 0 0 -0.14096,-0.13103 l -0.0901,0.005 -0.009,-0.0897 a 4.1314472,4.1314472 0 0 0 -0.15003,-0.12032 l -0.0897,0.0104 -0.0164,-0.0884 a 4.1314472,4.1314472 0 0 0 -0.15993,-0.10814 l -0.0884,0.0181 -0.0233,-0.087 h -4.3e-4 a 4.1314472,4.1314472 0 0 0 -0.16812,-0.0952 l -0.0866,0.025 -0.0302,-0.0849 a 4.1314472,4.1314472 0 0 0 -0.17458,-0.0815 l -0.0845,0.0314 -0.0366,-0.0823 h -4.4e-4 a 4.1314472,4.1314472 0 0 0 -0.1806,-0.0676 4.1314472,4.1314472 0 0 0 -4.3e-4,0 l -0.0815,0.038 -0.0432,-0.0793 a 4.1314472,4.1314472 0 0 0 -0.18536,-0.0531 l -0.0785,0.0443 -0.049,-0.0759 a 4.1314472,4.1314472 0 0 0 -0.18924,-0.0384 l -0.075,0.0505 -0.0547,-0.0715 a 4.1314472,4.1314472 0 0 0 -4.2e-4,0 4.1314472,4.1314472 0 0 0 -0.19139,-0.0233 l -0.0703,0.0561 -0.0605,-0.0672 a 4.1314472,4.1314472 0 0 0 -4.4e-4,0 4.1314472,4.1314472 0 0 0 -0.19267,-0.009 l -0.066,0.0612 -0.0651,-0.0616 z" />
    <circle
       style="fill:#404040;fill-opacity:1;stroke:none;stroke-width:0.118433"
       id="circle190"
       cx="105.20064"
       cy="148.5928"
       r="3.2706158" />
    <rect
       style="fill:#f9f9f9;fill-opacity:1;stroke-width:0.536596"
       id="rect1"
       width="0.50316566"
       height="1.5526254"
       x="104.9409"
       y="145.48318"
       rx="0.25158283"
       ry="0.25158283" />
    <circle
       style="fill:#2d2d2d;fill-opacity:1;stroke-width:0.458668"
       id="path1"
       cx="114.0176"
       cy="148.77077"
       r="4.1963105" />
    <circle
       style="fill:#2d2d2d;fill-opacity:1;stroke-width:0.458668"
       id="circle1"
       cx="114.0176"
       cy="148.77077"
       r="4.1963105" />
  </g>
</svg>
