<?xml version="1.0" encoding="UTF-8" standalone="no"?>
<!-- Created with Inkscape (http://www.inkscape.org/) -->

<svg
   width="7.2735701mm"
   height="3.02194mm"
   viewBox="0 0 7.2735701 3.02194"
   version="1.1"
   id="svg1"
   inkscape:version="1.4.2 (f4327f4, 2025-05-13)"
   sodipodi:docname="lydian.svg"
   xmlns:inkscape="http://www.inkscape.org/namespaces/inkscape"
   xmlns:sodipodi="http://sodipodi.sourceforge.net/DTD/sodipodi-0.dtd"
   xmlns="http://www.w3.org/2000/svg"
   xmlns:svg="http://www.w3.org/2000/svg">
  <sodipodi:namedview
     id="namedview1"
     pagecolor="#ffffff"
     bordercolor="#cccccc"
     borderopacity="1"
     inkscape:showpageshadow="0"
     inkscape:pageopacity="1"
     inkscape:pagecheckerboard="0"
     inkscape:deskcolor="#d1d1d1"
     inkscape:document-units="mm"
     inkscape:zoom="23.005387"
     inkscape:cx="11.193031"
     inkscape:cy="9.3239031"
     inkscape:window-width="1920"
     inkscape:window-height="1009"
     inkscape:window-x="-8"
     inkscape:window-y="-8"
     inkscape:window-maximized="1"
     inkscape:current-layer="layer1" />
  <defs
     id="defs1" />
  <g
     inkscape:label="Layer 1"
     inkscape:groupmode="layer"
     id="layer1"
     transform="translate(-100.36709,-153.19377)">
    <path
       style="fill:#333333;stroke-width:0.0367905"
       d="m 101.4583,155.87994 -0.21133,0.21133 v 0.12442 h 0.57986 c 0.0581,-0.003 0.11085,-0.026 0.15254,-0.061 l -0.2729,-0.27475 z"
       id="path15" />
    <path
       style="fill:#333333;stroke-width:0.0367905"
       d="m 100.73321,155.87994 -0.27277,0.27457 c 0.0417,0.0351 0.0946,0.0576 0.15276,0.0612 h 0.57951 v -0.12442 l -0.21133,-0.21133 z"
       id="path14" />
    <path
       style="fill:#333333;stroke-width:0.0367905"
       d="m 100.36714,154.71904 v 1.23418 c 0,0.0632 0.0221,0.12114 0.0591,0.16641 l 0.27672,-0.27652 v -0.95931 l -0.16587,-0.16476 z"
       id="path9" />
    <path
       style="fill:#333333;stroke-width:0.0367905"
       d="m 100.42629,153.2899 c -0.037,0.0452 -0.0592,0.10319 -0.0592,0.16647 v 1.23398 h 0.16987 l 0.16587,-0.16476 v -0.95931 z"
       id="path3" />
    <path
       style="fill:#333333;stroke-width:0.0367905"
       d="m 103.31434,155.87994 -0.21133,0.21133 v 0.12442 h 0.57987 c 0.0581,-0.003 0.11084,-0.026 0.15253,-0.061 l -0.2729,-0.27475 z"
       id="path30" />
    <path
       style="fill:#333333;stroke-width:0.0367905"
       d="m 102.58926,155.87994 -0.27279,0.27457 c 0.0417,0.0351 0.0946,0.0576 0.15276,0.0612 h 0.57952 v -0.12442 l -0.21133,-0.21133 z"
       id="path29" />
    <path
       style="fill:#333333;stroke-width:0.0367905"
       d="m 103.7587,154.71904 -0.16587,0.16476 v 0.95931 l 0.27691,0.27669 c 0.0343,-0.042 0.0559,-0.0948 0.0588,-0.15276 v -1.248 z"
       id="path25" />
    <path
       style="fill:#333333;stroke-width:0.0367905"
       d="m 103.23328,154.56698 -0.13414,0.13414 0.1359,0.1359 h 0.35031 l 0.12393,-0.12639 -0.14012,-0.14365 z"
       id="path23" />
    <path
       style="fill:#333333;stroke-width:0.0367905"
       d="m 102.58261,154.56698 -0.14013,0.14365 0.12393,0.12639 h 0.35031 l 0.1359,-0.1359 -0.13414,-0.13414 z"
       id="path22" />
    <path
       style="fill:#333333;stroke-width:0.0367905"
       d="m 102.28233,153.2899 c -0.037,0.0452 -0.0592,0.10319 -0.0592,0.16647 v 1.23398 h 0.16987 l 0.16587,-0.16476 v -0.95931 z"
       id="path18" />
    <path
       style="fill:#333333;stroke-width:0.0367905"
       d="m 103.86965,153.28967 -0.27682,0.27661 v 0.95931 l 0.16587,0.16476 h 0.16988 v -1.24774 c -0.003,-0.058 -0.0245,-0.11094 -0.0589,-0.15294 z"
       id="path17" />
    <path
       style="fill:#333333;stroke-width:0.0367905"
       d="m 105.17039,155.87994 -0.21133,0.21133 v 0.12442 h 0.57987 c 0.0581,-0.003 0.11084,-0.026 0.15253,-0.061 l -0.2729,-0.27475 z"
       id="path45" />
    <path
       style="fill:#333333;stroke-width:0.0367905"
       d="m 104.44529,155.87994 -0.27277,0.27457 c 0.0417,0.0351 0.0946,0.0576 0.15276,0.0612 h 0.57951 v -0.12442 l -0.21133,-0.21136 z"
       id="path44" />
    <path
       style="fill:#333333;stroke-width:0.0367905"
       d="m 104.9312,154.74714 c -0.004,0.003 -0.11654,0.11654 -0.11654,0.11654 v 1.07734 l 0.11764,0.12041 0.11684,-0.11683 v -1.07951 c 0,0 -0.11397,-0.12023 -0.11794,-0.11795 z"
       id="path41" />
    <path
       style="fill:#333333;stroke-width:0.0367905"
       d="m 105.61475,154.71904 -0.16587,0.16476 v 0.95931 l 0.2769,0.27669 c 0.0343,-0.042 0.0559,-0.0948 0.0588,-0.15276 v -1.248 z"
       id="path40" />
    <path
       style="fill:#333333;stroke-width:0.0367905"
       d="m 104.9323,153.3481 -0.11764,0.12041 v 1.07735 c 0,0 0.11256,0.11425 0.11654,0.11653 0.004,0.003 0.11794,-0.11794 0.11794,-0.11794 v -1.0795 z"
       id="path34" />
    <path
       style="fill:#333333;stroke-width:0.0367905"
       d="m 105.72569,153.28967 -0.27681,0.27661 v 0.95931 l 0.16587,0.16476 h 0.16987 v -1.24774 c -0.003,-0.058 -0.0246,-0.11094 -0.059,-0.15294 z"
       id="path32" />
    <path
       style="fill:#333333;stroke-width:0.0367905"
       d="m 104.95906,153.19377 v 0.12443 l 0.21133,0.21133 h 0.24817 l 0.27276,-0.27463 c -0.0427,-0.0358 -0.097,-0.0583 -0.15658,-0.0611 z"
       id="path31" />
    <path
       style="fill:#333333;stroke-width:0.0367905"
       d="m 104.32946,153.19377 c -0.0597,0.003 -0.11411,0.0254 -0.1568,0.0613 l 0.27263,0.27444 h 0.24817 l 0.21133,-0.21133 v -0.12441 z"
       id="path103" />
    <path
       style="fill:#333333;stroke-width:0.0367905"
       d="m 107.02643,155.87994 -0.21133,0.21133 v 0.12442 h 0.57986 c 0.0581,-0.003 0.11085,-0.026 0.15254,-0.061 l -0.2729,-0.27475 z"
       id="path61" />
    <path
       style="fill:#333333;stroke-width:0.0367905"
       d="m 106.30134,155.87994 -0.27278,0.27457 c 0.0417,0.0351 0.0946,0.0576 0.15276,0.0612 h 0.57952 v -0.12442 l -0.21134,-0.21133 z"
       id="path60" />
    <path
       style="fill:#333333;stroke-width:0.0367905"
       d="m 106.78724,154.74714 c -0.004,0.003 -0.11654,0.11654 -0.11654,0.11654 v 1.07734 l 0.11764,0.12041 0.11684,-0.11683 v -1.07951 c 0,0 -0.11397,-0.12023 -0.11794,-0.11795 z"
       id="path57" />
    <path
       style="fill:#333333;stroke-width:0.0367905"
       d="m 106.78834,153.3481 -0.11764,0.12041 v 1.07735 c 0,0 0.11257,0.11425 0.11654,0.11653 0.004,0.003 0.11794,-0.11794 0.11794,-0.11794 v -1.0795 z"
       id="path49" />
    <path
       style="fill:#333333;stroke-width:0.0367905"
       d="m 106.8151,153.19377 v 0.12443 l 0.21133,0.21133 h 0.24817 l 0.27276,-0.27463 c -0.0427,-0.0358 -0.0969,-0.0583 -0.15657,-0.0611 z"
       id="path46" />
    <path
       style="fill:#333333;stroke-width:0.0367905"
       d="m 106.18551,153.19377 c -0.0598,0.003 -0.11412,0.0254 -0.15682,0.0613 l 0.27265,0.27444 h 0.24816 l 0.21134,-0.21133 v -0.12441 z"
       id="path104" />
  </g>
</svg>
