<?xml version="1.0" encoding="UTF-8" standalone="no"?>
<!-- Created with Inkscape (http://www.inkscape.org/) -->

<svg
   width="7.2735701mm"
   height="3.02194mm"
   viewBox="0 0 7.2735701 3.02194"
   version="1.1"
   id="svg1"
   inkscape:version="1.4.2 (f4327f4, 2025-05-13)"
   sodipodi:docname="modo_majo.svg"
   xmlns:inkscape="http://www.inkscape.org/namespaces/inkscape"
   xmlns:sodipodi="http://sodipodi.sourceforge.net/DTD/sodipodi-0.dtd"
   xmlns="http://www.w3.org/2000/svg"
   xmlns:svg="http://www.w3.org/2000/svg">
  <sodipodi:namedview
     id="namedview1"
     pagecolor="#ffffff"
     bordercolor="#cccccc"
     borderopacity="1"
     inkscape:showpageshadow="0"
     inkscape:pageopacity="1"
     inkscape:pagecheckerboard="0"
     inkscape:deskcolor="#d1d1d1"
     inkscape:document-units="mm"
     inkscape:zoom="22.627417"
     inkscape:cx="8.5957668"
     inkscape:cy="6.8279998"
     inkscape:window-width="1920"
     inkscape:window-height="1009"
     inkscape:window-x="-8"
     inkscape:window-y="-8"
     inkscape:window-maximized="1"
     inkscape:current-layer="layer1" />
  <defs
     id="defs1" />
  <g
     inkscape:label="Layer 1"
     inkscape:groupmode="layer"
     id="layer1"
     transform="translate(-100.36709,-153.19377)">
    <path
       id="path53"
       style="fill:#333333;stroke-width:0.0367905"
       d="m 102.0136,153.28967 -0.27681,0.27661 v 0.95931 l 0.16587,0.16476 h 0.16987 v -1.24774 c -0.003,-0.058 -0.0245,-0.11094 -0.0589,-0.15294 z m -1.58731,2.3e-4 c -0.037,0.0452 -0.0592,0.10319 -0.0592,0.16647 v 1.23398 h 0.16987 l 0.16587,-0.16476 v -0.95931 z m 0.31717,0.26945 v 0.36896 l 0.19012,0.59149 h 0.12956 v -0.36474 l -0.20561,-0.59571 z m 0.83868,0 -0.2056,0.59571 v 0.36474 h 0.12955 l 0.19013,-0.59149 v -0.36896 z m -1.215,1.15969 v 1.23418 c 0,0.0632 0.0221,0.12114 0.0591,0.16641 l 0.27672,-0.27652 v -0.95931 l -0.16587,-0.16476 z m 1.53552,0 -0.16587,0.16476 v 0.95931 l 0.2769,0.27669 c 0.0343,-0.042 0.0559,-0.0948 0.0588,-0.15276 v -1.248 z"
       sodipodi:nodetypes="cccccccccccsccccccccccccccccccccscccccccccccc" />
    <path
       id="path102"
       style="fill:#333333;stroke-width:0.0367905"
       d="m 102.47342,153.19377 c -0.0598,0.003 -0.11411,0.0254 -0.15681,0.0613 l 0.27265,0.27444 h 0.24816 l 0.21133,-0.21133 v -0.12441 z m 0.62959,0 v 0.12443 l 0.21133,0.21133 h 0.24817 l 0.27277,-0.27463 c -0.0427,-0.0358 -0.097,-0.0583 -0.15659,-0.0611 z m 0.76664,0.0959 -0.27682,0.27661 v 0.95931 l 0.16587,0.16476 h 0.16988 v -1.24774 c -0.003,-0.058 -0.0245,-0.11094 -0.0589,-0.15294 z m -1.58732,2.3e-4 c -0.037,0.0452 -0.0592,0.10319 -0.0592,0.16647 v 1.23398 h 0.16987 l 0.16587,-0.16476 v -0.95931 z m 0.30028,1.27708 -0.14013,0.14365 0.12393,0.12639 h 0.35031 l 0.1359,-0.1359 -0.13414,-0.13414 z m 0.65067,0 -0.13414,0.13414 0.1359,0.1359 h 0.35031 l 0.12393,-0.12639 -0.14012,-0.14365 z m -1.0101,0.15206 v 1.23418 c 0,0.0632 0.0221,0.12114 0.059,0.16641 l 0.27672,-0.27652 v -0.95931 l -0.16587,-0.16476 z m 1.53552,0 -0.16587,0.16476 v 0.95931 l 0.27691,0.27669 c 0.0343,-0.042 0.0559,-0.0948 0.0588,-0.15276 v -1.248 z"
       sodipodi:nodetypes="cccccccccccccccccccccccsccccccccccccccccccccscccccccccccc" />
    <path
       id="path103"
       style="fill:#333333;stroke-width:0.0367905"
       d="m 105.72569,153.28967 -0.27681,0.27661 v 0.95931 l 0.16587,0.16476 h 0.16987 v -1.24774 c -0.003,-0.058 -0.0246,-0.11094 -0.059,-0.15294 z m -1.64651,1.40068 h 0.16988 z m 4e-5,0.0287 v 1.23418 c 0,0.0632 0.0221,0.12114 0.059,0.16641 l 0.27673,-0.27652 v -0.95931 l -0.16587,-0.16476 z m 1.53553,0 -0.16587,0.16476 v 0.95931 l 0.2769,0.27669 c 0.0343,-0.042 0.0559,-0.0948 0.0588,-0.15276 v -1.248 z m -1.16946,1.1609 -0.27277,0.27457 c 0.0417,0.0351 0.0946,0.0576 0.15276,0.0612 h 0.57951 v -0.12442 l -0.21133,-0.21136 z m 0.7251,0 -0.21133,0.21133 v 0.12442 h 0.57987 c 0.0581,-0.003 0.11084,-0.026 0.15253,-0.061 l -0.2729,-0.27475 z"
       sodipodi:nodetypes="ccccccccccccccscccccccccccccccccccccccccc" />
    <path
       id="path104"
       style="fill:#333333;stroke-width:0.0367905"
       d="m 106.18551,153.19377 c -0.0598,0.003 -0.11412,0.0254 -0.15682,0.0613 l 0.27265,0.27444 h 0.24816 l 0.21134,-0.21133 v -0.12441 z m 0.62959,0 v 0.12443 l 0.21133,0.21133 h 0.24817 l 0.27276,-0.27463 c -0.0427,-0.0358 -0.0969,-0.0583 -0.15657,-0.0611 z m 0.76663,0.0959 -0.27681,0.27661 v 0.95931 l 0.16587,0.16476 h 0.16987 v -1.24774 c -0.003,-0.058 -0.0245,-0.11094 -0.0589,-0.15294 z m -1.58731,2.3e-4 c -0.037,0.0452 -0.0592,0.10319 -0.0592,0.16647 v 1.23398 h 0.16988 l 0.16586,-0.16476 v -0.95931 z m 0.16015,1.42073 0.12392,0.12639 z m -0.2193,0.008 v 1.23418 c 0,0.0632 0.0221,0.12114 0.059,0.16641 l 0.27673,-0.27652 v -0.95931 l -0.16587,-0.16477 z m 1.53552,0 -0.16587,0.16476 v 0.95931 l 0.27691,0.27669 c 0.0343,-0.042 0.0559,-0.0948 0.0588,-0.15276 v -1.248 z m -1.16945,1.16088 -0.27278,0.27457 c 0.0417,0.0351 0.0946,0.0576 0.15276,0.0612 h 0.57952 v -0.12442 l -0.21134,-0.21133 z m 0.72509,0 -0.21133,0.21133 v 0.12442 h 0.57986 c 0.0581,-0.003 0.11085,-0.026 0.15254,-0.061 l -0.2729,-0.27475 z"
       sodipodi:nodetypes="cccccccccccccccccccccccscccccccccscccccccccccccccccccccccccc" />
  </g>
</svg>
