<?xml version="1.0" encoding="UTF-8" standalone="no"?>
<svg
   width="25.4mm"
   height="128.5mm"
   viewBox="0 0 25.4 128.5"
   version="1.1"
   id="svg1"
   sodipodi:docname="protoseq_blank.svg"
   xml:space="preserve"
   inkscape:version="1.4.2 (f4327f4, 2025-05-13)"
   xmlns:inkscape="http://www.inkscape.org/namespaces/inkscape"
   xmlns:sodipodi="http://sodipodi.sourceforge.net/DTD/sodipodi-0.dtd"
   xmlns:xlink="http://www.w3.org/1999/xlink"
   xmlns="http://www.w3.org/2000/svg"
   xmlns:svg="http://www.w3.org/2000/svg"><defs
     id="defs1"><linearGradient
       id="linearGradient17"
       inkscape:collect="always"><stop
         style="stop-color:#dbdbdb;stop-opacity:1;"
         offset="0"
         id="stop16" /><stop
         style="stop-color:#9d9d9d;stop-opacity:1"
         offset="1"
         id="stop17" /></linearGradient><linearGradient
       inkscape:collect="always"
       xlink:href="#linearGradient17"
       id="linearGradient1"
       gradientUnits="userSpaceOnUse"
       gradientTransform="matrix(0.63148615,0,0,0.63148615,24.335014,7.9478529)"
       x1="106.22933"
       y1="143.0407"
       x2="106.22933"
       y2="148.32962" /><linearGradient
       inkscape:collect="always"
       xlink:href="#linearGradient204"
       id="linearGradient2"
       gradientUnits="userSpaceOnUse"
       gradientTransform="matrix(0,0.80291774,-0.80291774,0,208.23923,-19.124986)"
       x1="147.06197"
       y1="145.68738"
       x2="149.54707"
       y2="145.68738" /><linearGradient
       id="linearGradient204"
       inkscape:collect="always"><stop
         style="stop-color:#505050;stop-opacity:1"
         offset="0"
         id="stop203" /><stop
         style="stop-color:#999999;stop-opacity:1"
         offset="1"
         id="stop204" /></linearGradient><linearGradient
       inkscape:collect="always"
       xlink:href="#linearGradient17"
       id="linearGradient25"
       gradientUnits="userSpaceOnUse"
       gradientTransform="matrix(0.68509812,0,0,0.68509812,-69.298122,26.40838)"
       x1="106.22933"
       y1="143.0407"
       x2="106.22933"
       y2="148.32962" /><linearGradient
       inkscape:collect="always"
       xlink:href="#linearGradient204"
       id="linearGradient26"
       gradientUnits="userSpaceOnUse"
       gradientTransform="matrix(0,0.87108393,-0.87108393,0,130.21921,-2.9628892)"
       x1="147.06197"
       y1="145.68738"
       x2="149.54707"
       y2="145.68738" /><linearGradient
       inkscape:collect="always"
       xlink:href="#linearGradient17"
       id="linearGradient27"
       gradientUnits="userSpaceOnUse"
       gradientTransform="matrix(0.68509812,0,0,0.68509812,-50.301768,26.40838)"
       x1="106.22933"
       y1="143.0407"
       x2="106.22933"
       y2="148.32962" /><linearGradient
       inkscape:collect="always"
       xlink:href="#linearGradient204"
       id="linearGradient28"
       gradientUnits="userSpaceOnUse"
       gradientTransform="matrix(0,0.87108393,-0.87108393,0,149.21555,-2.9628892)"
       x1="147.06197"
       y1="145.68738"
       x2="149.54707"
       y2="145.68738" /><linearGradient
       inkscape:collect="always"
       xlink:href="#linearGradient17"
       id="linearGradient5"
       gradientUnits="userSpaceOnUse"
       gradientTransform="matrix(0.63148615,0,0,0.63148615,24.335014,7.9478529)"
       x1="106.22933"
       y1="143.0407"
       x2="106.22933"
       y2="148.32962" /><linearGradient
       inkscape:collect="always"
       xlink:href="#linearGradient204"
       id="linearGradient6"
       gradientUnits="userSpaceOnUse"
       gradientTransform="matrix(0,0.80291774,-0.80291774,0,208.23923,-19.124986)"
       x1="147.06197"
       y1="145.68738"
       x2="149.54707"
       y2="145.68738" /></defs><sodipodi:namedview
     id="namedview1"
     pagecolor="#ffffff"
     bordercolor="#cccccc"
     borderopacity="1"
     inkscape:showpageshadow="0"
     inkscape:pageopacity="1"
     inkscape:pagecheckerboard="0"
     inkscape:deskcolor="#d1d1d1"
     inkscape:document-units="mm"
     showguides="true"
     inkscape:zoom="1.2069767"
     inkscape:cx="-79.537575"
     inkscape:cy="225.77072"
     inkscape:window-width="1920"
     inkscape:window-height="1009"
     inkscape:window-x="-8"
     inkscape:window-y="-8"
     inkscape:window-maximized="1"
     inkscape:current-layer="svg1"><sodipodi:guide
       position="4.8222699,124.06807"
       orientation="1,0"
       id="guide7"
       inkscape:locked="false" /><sodipodi:guide
       position="20.57773,124.06807"
       orientation="1,0"
       id="guide8"
       inkscape:locked="false" /></sodipodi:namedview><rect
     style="fill:#e4e6e6;fill-opacity:1;stroke:none;stroke-width:0.51966"
     id="rect6-5"
     width="25.4"
     height="128.5"
     x="0"
     y="-1.4361572e-08" /><path
     id="rect7-1"
     style="fill:#f2f2f2;stroke-width:0.726259"
     d="M 17.653703 1.2464355 C 17.331668 2.1744315 16.858269 3.5442449 16.351457 5.0105469 L 14.772742 9.5761597 L 13.694771 9.9921549 C 13.101864 10.221045 11.936974 10.670704 11.106299 10.990544 L 9.5957967 11.571387 L 8.351945 10.421069 C 5.8088173 8.0676316 3.2064316 5.6786227 1.2035441 3.8566121 L 1.2035441 4.7144409 C 1.661049 5.1306729 2.0808511 5.5142477 2.4169067 5.8234172 C 4.5829985 7.8162032 8.564765 11.509802 8.832019 11.774992 C 8.975859 11.917742 8.8960193 12.06944 8.3467773 12.70155 C 7.9855557 13.11727 7.6781263 13.472186 7.6605143 13.489616 C 7.6446643 13.507016 6.7500385 13.588566 5.6735555 13.671 C 4.8199193 13.736342 2.9898969 13.878101 1.2035441 14.017232 L 1.2035441 14.565002 C 3.451673 14.393999 5.2982254 14.250572 5.9572591 14.193966 C 7.0112471 14.103466 7.5044026 14.095878 7.5370076 14.169678 C 7.5630776 14.228578 7.7719412 15.705441 8.0005452 17.451131 L 8.4160238 20.625098 L 7.0460815 22.01106 C 6.2928865 22.77327 5.1471457 23.950114 4.4999837 24.626404 C 3.8528339 25.302694 3.2820611 25.889694 3.2318441 25.931234 C 3.1970573 25.959975 2.3754243 26.118166 1.2035441 26.325008 L 1.2035441 26.88053 C 2.0621969 26.735301 2.8017533 26.624731 2.9223022 26.624731 C 3.1207562 26.624731 3.320282 26.985945 3.9243083 28.443225 C 4.3389433 29.443555 5.1470703 31.368957 5.7200643 32.721517 L 6.7613444 35.180798 L 2.6256795 38.121704 C 2.1282218 38.475457 1.6490472 38.815169 1.2035441 39.129911 L 1.2035441 39.905575 C 3.5707505 38.195102 7.1306679 35.678552 7.2517537 35.659322 C 7.4691737 35.624822 15.211497 37.547929 15.413529 37.686589 C 15.476669 37.729889 14.756406 39.396872 13.813627 41.391272 C 12.87081 43.385662 11.484768 46.330302 10.733195 47.934542 L 9.3663534 50.85116 L 8.3064697 51.069751 C 6.3195711 51.478831 6.6696792 51.618775 5.4110392 49.908065 C 4.8004942 49.078225 3.1365585 46.844897 1.7135905 44.945577 C 1.5391327 44.71272 1.3685608 44.4847 1.2035441 44.263965 L 1.2035441 45.360022 C 2.4552399 47.042609 3.8400641 48.912986 4.6891195 50.072913 C 5.2805435 50.880903 5.7650228 51.584358 5.7650228 51.635608 C 5.7650228 51.686908 3.7120441 53.399947 1.2035441 55.443127 L 1.2035441 56.2684 C 1.3563967 56.143616 1.5114431 56.016899 1.6681152 55.889095 C 3.8044142 54.146435 5.7501003 52.556091 5.9918823 52.355461 C 6.3778233 52.035221 6.6279193 51.952669 8.0398193 51.675399 L 9.6485067 51.359139 L 11.69696 51.740511 C 12.823359 51.950201 14.633957 52.291918 15.721521 52.499638 C 16.809086 52.707358 18.390651 53.008654 19.235002 53.169364 C 20.079327 53.330104 20.798811 53.481898 20.83387 53.507328 C 20.86889 53.532728 21.176591 55.576003 21.518066 58.047103 C 21.859529 60.518203 22.231113 63.1624 22.343856 63.92323 C 22.456458 64.68405 22.505652 65.333056 22.453927 65.366036 C 22.402167 65.399036 21.819747 65.506751 21.159432 65.604781 C 20.628553 65.683681 18.609681 66.001539 16.299264 66.370109 A 4.2576711 4.2575775 0 0 1 16.824813 66.83158 C 17.201526 66.77148 17.597261 66.708784 18.012854 66.642444 L 22.846667 65.870915 L 22.996529 65.932926 A 4.2576711 4.2575775 0 0 1 23.835754 65.643538 C 23.52613 65.511718 23.33315 65.42871 23.327258 65.42443 C 23.296838 65.40193 22.501473 59.857161 22.08289 56.750541 C 21.889242 55.313431 21.701961 53.987448 21.666378 53.804468 L 21.601265 53.471672 L 24.196456 52.205082 L 24.196456 51.559644 C 22.553266 52.348988 21.194678 52.952922 21.065898 52.947156 C 20.92326 52.941156 19.440674 52.670389 17.770492 52.346159 C 16.100298 52.021939 13.720756 51.5654 12.483476 51.33175 C 11.24618 51.09812 10.21287 50.892041 10.186975 50.873381 C 10.143775 50.842081 11.857216 47.156266 15.052828 40.406836 L 16.314766 37.742916 L 18.54047 37.39255 C 19.776027 37.19829 20.350841 37.116714 20.676774 37.114014 L 20.677291 37.114014 C 20.872332 37.113014 20.978577 37.139611 21.083984 37.187911 C 21.214656 37.247684 22.494772 37.829563 24.196456 38.602812 L 24.196456 37.954272 C 22.594313 37.201826 21.344585 36.595654 21.330481 36.544023 C 21.307731 36.460923 21.730808 34.644256 22.270992 32.507576 C 22.811189 30.370906 23.389186 28.04647 23.556185 27.342 C 23.754779 26.50387 23.936896 26.018078 24.082768 25.936918 C 24.100801 25.926875 24.139547 25.909642 24.196456 25.885758 L 24.196456 25.261507 C 23.793139 25.407973 23.552304 25.492888 23.541715 25.491467 C 23.513345 25.487467 21.075398 24.64582 18.123442 23.61923 C 15.171499 22.59267 11.951726 21.479943 10.96884 21.146513 C 9.2291927 20.556353 9.1789784 20.530653 9.1074544 20.175513 C 9.0669344 19.974863 8.8590426 18.46929 8.6444336 16.82998 L 8.2537598 13.849284 L 8.9684448 12.988871 L 9.6841634 12.128975 L 12.405444 11.089246 L 15.126725 10.050549 L 16.200562 10.284644 C 16.791603 10.413504 18.641731 10.804318 20.311938 11.152808 C 21.60424 11.422459 22.940711 11.702623 24.196456 11.967228 L 24.196456 11.410156 C 22.553524 11.062742 20.69464 10.672601 19.338871 10.391097 C 17.287427 9.9651568 15.593784 9.6052191 15.575277 9.5906291 C 15.556867 9.5760291 16.295443 7.3968226 17.217554 4.7480306 C 17.689449 3.3925266 18.119007 2.1480025 18.425232 1.2464355 L 17.653703 1.2464355 z M 16.824813 66.83158 L 16.299264 66.370109 L 10.097575 67.358162 C 9.4894171 67.453482 9.1245034 67.509574 9.1074544 67.509574 C 9.0625944 67.509574 7.2575138 66.276216 5.0963298 64.768656 C 3.8171218 63.876318 2.3790338 62.873285 1.2035441 62.054093 L 1.2035441 62.780664 C 2.5058567 63.692618 4.0205222 64.755597 5.1970988 65.583594 L 8.5126587 67.916785 L 7.836731 70.300618 C 7.465054 71.611448 6.8310426 73.811269 6.4275146 75.189209 L 5.6937093 77.694482 L 2.2334554 79.204985 C 1.8786727 79.359867 1.5325929 79.509342 1.2035441 79.650435 L 1.2035441 80.259184 C 1.6427241 80.068135 2.1214414 79.860609 2.6163778 79.647335 L 6.0368408 78.173523 L 8.6196289 78.994145 C 10.040002 79.445575 11.837893 80.018138 12.614734 80.266418 C 13.391539 80.514708 14.535742 80.874553 15.157214 81.065853 L 16.286861 81.413635 L 16.407267 86.564225 C 16.507217 90.842335 16.494444 91.736906 16.335954 91.844006 C 16.231021 91.914906 14.645663 92.594832 12.812138 93.355542 L 9.4779744 94.73892 L 6.8088867 92.996908 C 5.4403487 92.103681 3.0061703 90.517598 1.2035441 89.344934 L 1.2035441 90.075122 C 1.4327432 90.22388 1.6599451 90.371252 1.8799886 90.513855 C 8.5621972 94.844395 9.035676 95.175745 8.948291 95.468075 C 8.903811 95.617325 8.6188452 96.722742 8.3162882 97.924772 C 8.0136946 99.126812 7.7446449 100.12182 7.7183919 100.13601 C 7.6920619 100.15021 7.0992831 100.38404 6.4001261 100.65535 C 5.7009831 100.92666 3.3806545 101.82655 1.2443685 102.65523 C 1.2307522 102.66051 1.217144 102.66598 1.2035441 102.67125 L 1.2035441 103.27845 C 2.0084998 102.96673 2.8886695 102.62544 3.7486084 102.29143 L 8.0175985 100.63262 L 10.115662 102.28471 C 14.350169 105.61881 14.800497 105.98902 14.802197 106.13977 C 14.803397 106.22427 14.929308 106.98527 15.08125 107.83063 C 15.232938 108.676 15.5185 110.38176 15.716353 111.62161 C 15.91418 112.86147 16.103856 113.99547 16.138033 114.14135 C 16.193883 114.38012 16.038334 114.48739 14.581539 115.21726 C 13.691547 115.66313 11.804083 116.61389 10.38748 117.33031 C 8.9708769 118.04673 7.7800736 118.63464 7.7411296 118.6372 C 7.7022696 118.6402 6.6847654 118.06183 5.4808024 117.35459 C 4.526992 116.79431 2.7839687 115.77382 1.2035441 114.84984 L 1.2035441 115.5299 C 3.0530051 116.61598 4.9993425 117.76665 6.1308919 118.44755 L 7.2713908 119.13433 L 7.0905233 120.34769 C 6.9904463 121.01512 6.8311467 122.10209 6.7365397 122.76305 C 6.6419597 123.42402 6.5271974 124.00198 6.4828084 124.04773 C 6.4384584 124.09353 5.5755048 124.5666 4.5656128 125.09882 C 3.6841348 125.56338 2.2684942 126.31488 1.2035441 126.88321 L 1.2035441 127.25373 L 1.7735352 127.25373 C 4.7698676 125.64542 6.1532916 124.91201 6.5086466 124.74381 L 6.8977702 124.55984 L 8.6268636 125.61714 C 9.4581006 126.12525 10.581265 126.81174 11.30422 127.25373 L 12.444202 127.25373 L 10.591602 126.12098 C 7.9388152 124.49888 7.3233565 124.07482 7.3225505 123.86686 C 7.3218865 123.68896 7.9450893 119.52097 8.0222493 119.18652 C 8.0235493 119.17632 8.7414818 118.81192 9.6154338 118.37572 C 10.489347 117.93954 12.421647 116.9666 13.909229 116.2141 L 16.613973 114.84622 L 21.591964 115.66064 C 22.538053 115.81537 23.430791 115.96699 24.196456 116.10247 L 24.196456 115.53197 C 23.525664 115.42234 22.679974 115.28341 21.612634 115.10874 C 19.104006 114.69819 17.017445 114.33765 16.976225 114.30775 C 16.839927 114.20865 15.507754 106.10036 15.616101 106.02815 C 15.736431 105.94791 20.574932 104.11406 24.196456 102.76014 L 24.196456 102.16482 L 21.594031 103.14254 L 21.593514 103.14254 C 18.106078 104.45284 15.231176 105.52245 15.204757 105.51862 C 15.178297 105.51462 14.749105 105.1814 14.250293 104.77603 C 13.751456 104.37063 12.249092 103.17814 10.912512 102.12607 C 8.9452964 100.57761 8.4945028 100.16769 8.5431478 99.974259 C 8.5762478 99.842849 8.8456994 98.751484 9.1425944 97.549084 C 9.4507104 96.301164 9.766792 95.304722 9.87795 95.227262 C 9.985056 95.152662 11.59731 94.460889 13.461711 93.689889 L 16.851685 92.288424 L 17.627865 92.407796 C 18.248908 92.50351 21.441523 93.033161 24.196456 93.496102 L 24.196456 92.950399 C 21.826215 92.576546 19.061445 92.124384 17.757572 91.887415 L 17.251143 91.794914 L 17.156059 86.655176 C 17.103399 83.827976 17.087135 81.49673 17.116785 81.47513 C 17.163301 81.441395 21.286059 80.26011 24.196456 79.441146 L 24.196456 78.877356 C 23.473869 79.079716 22.66039 79.308908 21.813656 79.54915 C 19.132444 80.30988 16.822926 80.928606 16.682703 80.924776 C 16.542417 80.920776 14.362725 80.25437 11.838037 79.44373 C 9.3133563 78.63307 7.0721211 77.923845 6.8584961 77.868115 C 6.6448331 77.812415 6.4704061 77.724152 6.4704061 77.672262 C 6.4704061 77.620262 6.8553103 76.269291 7.3251343 74.669861 C 7.7949323 73.070441 8.4038778 70.954589 8.6790568 69.968339 C 8.9542358 68.982089 9.2233991 68.141773 9.2769531 68.100753 C 9.3143231 68.071953 9.4053901 68.042443 9.9260091 67.949858 L 16.824813 66.83158 z M 8.8842122 21.1677 C 9.0209582 21.1072 11.278905 21.839728 16.074988 23.501408 C 19.920144 24.833608 23.086047 25.938802 23.111251 25.957072 C 23.179371 26.006572 20.57138 36.398558 20.469552 36.482528 C 20.421622 36.522128 19.495366 36.69525 18.412313 36.867 C 17.329223 37.03874 16.281748 37.176002 16.083256 37.173442 C 15.688867 37.168442 7.7469998 35.173807 7.5499268 35.030937 C 7.4220638 34.938237 7.0921454 34.179722 5.0575724 29.306222 L 3.8023519 26.301237 L 4.7061727 25.361243 C 7.4158227 22.542123 8.7062342 21.24643 8.8842122 21.1677 z " /><path
     id="path9-7"
     style="fill:#dbdbdb;fill-opacity:1;stroke-width:0.726259"
     d="M 17.19895 1.2474691 C 16.882654 2.1596861 16.453221 3.4032725 15.995923 4.7263265 L 14.417208 9.2924561 L 13.339237 9.7084513 C 12.746316 9.9373413 11.581453 10.386483 10.750765 10.706323 L 9.2402629 11.287683 L 7.9964111 10.137366 C 5.6011821 7.9207919 3.1534664 5.6731265 1.2035441 3.8969198 L 1.2035441 4.7526815 C 1.5229376 5.0438363 1.8153326 5.311373 2.0624064 5.53868 C 4.2284985 7.531453 8.2097604 11.225045 8.477002 11.490255 C 8.620982 11.632985 8.5404811 11.784713 7.9912435 12.416813 C 7.6300215 12.832553 7.3225935 13.187449 7.3049805 13.204879 C 7.2891305 13.222279 6.3950084 13.303829 5.3185384 13.386263 C 4.5213996 13.447279 2.8728684 13.574674 1.2035441 13.70459 L 1.2035441 14.25391 C 3.2893825 14.094944 4.9777563 13.963338 5.6017253 13.909745 C 6.6557123 13.819245 7.1499153 13.811141 7.1825073 13.884941 C 7.2085773 13.943841 7.4169242 15.420714 7.6455282 17.166394 L 8.0604899 20.340361 L 6.6915812 21.726322 C 5.9383602 22.488542 4.7921166 23.665377 4.1449666 24.341667 C 3.4978047 25.017957 2.927018 25.605473 2.876827 25.647013 C 2.8456749 25.672751 2.1833171 25.80243 1.2035441 25.977743 L 1.2035441 26.536882 C 1.9035983 26.421895 2.463758 26.340511 2.5672852 26.340511 C 2.7657252 26.340511 2.9647354 26.701208 3.5687744 28.158488 C 3.9834215 29.158818 4.7915494 31.084737 5.3645304 32.437297 L 6.4063273 34.896061 L 2.2701457 37.836967 C 1.9025593 38.098366 1.5449559 38.351877 1.2035441 38.59351 L 1.2035441 39.364522 C 3.5552583 37.67038 6.7810458 35.393385 6.8962199 35.375102 C 7.1136279 35.340602 14.855977 37.263191 15.057996 37.401851 C 15.121136 37.445151 14.400884 39.112135 13.458093 41.106535 C 12.515269 43.100925 11.129246 46.045555 10.377661 47.649805 L 9.0113363 50.566423 L 7.9509359 50.785014 C 5.9640239 51.194084 6.3141454 51.334048 5.0555054 49.623328 C 4.4449604 48.793488 2.7810116 46.56016 1.3580566 44.66084 C 1.3061938 44.591615 1.254675 44.522944 1.2035441 44.454651 L 1.2035441 45.553292 C 2.355024 47.102688 3.5642442 48.737156 4.3335856 49.788175 C 4.9250096 50.596165 5.4094889 51.299621 5.4094889 51.350871 C 5.4094889 51.399725 3.5476023 52.95606 1.2035441 54.869002 L 1.2035441 55.693241 C 1.2397956 55.663664 1.2761463 55.634079 1.3125814 55.604358 C 3.4488544 53.861698 5.395613 52.271353 5.637382 52.070723 C 6.023323 51.750483 6.2723865 51.667932 7.6842855 51.390662 L 9.2929728 51.074402 L 11.341427 51.455774 C 12.467845 51.665464 14.27894 52.007181 15.366504 52.214901 C 16.454068 52.422621 18.03513 52.723917 18.879468 52.884627 C 19.723818 53.045367 20.443291 53.197151 20.478337 53.222591 C 20.513357 53.247991 20.821071 55.291266 21.162533 57.762366 C 21.503995 60.233456 21.875567 62.877673 21.988322 63.638493 C 22.100797 64.399313 22.150635 65.048319 22.09891 65.081299 C 22.04715 65.114299 21.464212 65.222014 20.803898 65.320044 C 20.268059 65.399544 18.216443 65.723294 15.879134 66.096224 A 4.2576711 4.2575775 0 0 1 16.513204 66.540641 C 16.87683 66.482641 17.257703 66.421407 17.65732 66.357707 L 22.491134 65.586178 L 23.156726 65.861613 A 4.2576711 4.2575775 0 0 1 24.048661 65.60013 C 23.422613 65.33493 22.980696 65.146213 22.971724 65.139693 C 22.941304 65.117193 22.14594 59.572414 21.727356 56.465804 C 21.533708 55.028694 21.346427 53.702721 21.310844 53.519731 L 21.245732 53.186934 L 24.196456 51.747229 L 24.196456 51.103857 C 22.397907 51.975459 20.848301 52.669112 20.710364 52.662935 C 20.567713 52.656935 19.085152 52.386158 17.414958 52.061938 C 15.744776 51.737708 13.365223 51.280663 12.127942 51.047013 C 10.89066 50.813383 9.8573482 50.607303 9.8314412 50.588643 C 9.7882412 50.557343 11.501645 46.872046 14.697294 40.122616 L 15.959233 37.458179 L 18.185453 37.107812 C 19.421381 36.913492 19.995863 36.831917 20.321757 36.829277 C 20.517271 36.828277 20.623433 36.854874 20.728967 36.903174 C 20.868571 36.967118 22.320304 37.626805 24.196456 38.479305 L 24.196456 37.835933 C 22.427708 37.008181 20.990599 36.314674 20.975464 36.259285 C 20.952714 36.176185 21.375765 34.359519 21.915975 32.222839 C 22.456146 30.086169 23.034157 27.76225 23.201168 27.05778 C 23.399737 26.21965 23.581363 25.733341 23.727234 25.652181 C 23.771404 25.627581 23.939344 25.559113 24.196456 25.458911 L 24.196456 24.847062 C 23.582448 25.071688 23.200109 25.208534 23.186698 25.20673 C 23.158328 25.20273 20.719838 24.361083 17.767908 23.334493 C 14.815952 22.307933 11.596205 21.195206 10.613306 20.861776 C 8.8736589 20.271616 8.8239733 20.245916 8.7524373 19.890776 C 8.7119173 19.690126 8.5040255 18.184553 8.2894165 16.545243 L 7.8982259 13.564547 L 8.612911 12.704134 L 9.3286296 11.844238 L 12.04991 10.804508 L 14.771191 9.7658122 L 15.845028 10.000423 C 16.436068 10.129283 18.286714 10.51957 19.956921 10.86807 C 21.371832 11.163296 22.839619 11.471179 24.196456 11.757422 L 24.196456 11.201383 C 22.471801 10.836375 20.438414 10.40941 18.983854 10.107393 C 16.932422 9.681454 15.238225 9.3215155 15.219743 9.3069255 C 15.201213 9.2923255 15.939908 7.113119 16.86202 4.464327 C 17.286112 3.246141 17.675703 2.1180231 17.972546 1.2474691 L 17.19895 1.2474691 z M 16.513204 66.540641 L 15.879134 66.096224 L 10.427787 66.965422 C 9.4163625 67.125154 8.7751663 67.224837 8.7524373 67.224837 C 8.7074473 67.224837 6.9024837 65.991479 4.7413127 64.483919 C 3.5883474 63.679649 2.3061735 62.785329 1.2035441 62.016886 L 1.2035441 62.745524 C 2.4195943 63.597435 3.7706341 64.545723 4.8415649 65.299373 L 8.1571248 67.633081 L 7.4817139 70.016398 C 7.1100499 71.327238 6.4754958 73.527565 6.0719808 74.905505 L 5.3381755 77.410779 L 1.8779215 78.921281 C 1.648742 79.02133 1.423202 79.118978 1.2035441 79.21377 L 1.2035441 79.820451 C 1.5411605 79.674008 1.8968732 79.520178 2.2613607 79.363114 L 5.6818237 77.888786 L 8.2640951 78.709924 C 9.6844691 79.161354 11.482372 79.733401 12.2592 79.981681 C 13.036042 80.229971 14.180738 80.589806 14.802197 80.781116 L 15.931844 81.128898 L 16.051733 86.279488 C 16.151683 90.557598 16.139943 91.452169 15.981453 91.559269 C 15.876519 91.630069 14.290115 92.310095 12.456604 93.070805 L 9.1229574 94.454183 L 6.4538696 92.71217 C 5.1734038 91.876442 2.9597292 90.434377 1.2035441 89.291707 L 1.2035441 90.021379 C 1.3117783 90.091573 1.418938 90.161253 1.5244548 90.229635 C 8.2066506 94.560185 8.6806459 94.891514 8.5932739 95.183854 C 8.5487939 95.333094 8.26331 96.438522 7.9607544 97.640552 C 7.6581594 98.842582 7.3896148 99.837596 7.3633748 99.851786 C 7.3370448 99.865986 6.744278 100.09981 6.045109 100.37113 C 5.3801451 100.62919 3.2484858 101.45582 1.2035441 102.24906 L 1.2035441 102.85625 C 1.9084103 102.58315 2.6581066 102.29216 3.3930745 102.00669 L 7.6625814 100.34788 L 9.7601278 101.99998 C 13.994622 105.33408 14.445493 105.70429 14.44718 105.85504 C 14.44848 105.93954 14.573773 106.70053 14.725716 107.54589 C 14.877403 108.39126 15.163496 110.09702 15.361336 111.33687 C 15.559176 112.57673 15.748322 113.71074 15.782499 113.85662 C 15.838349 114.0954 15.68332 114.20266 14.226522 114.93252 C 13.336517 115.3784 11.449065 116.32915 10.032463 117.04557 C 8.6158718 117.76199 7.4245277 118.34991 7.3855957 118.35247 C 7.3467457 118.35547 6.3297353 117.7771 5.1257853 117.06986 C 4.2429233 116.55125 2.6839056 115.63802 1.2035441 114.77232 L 1.2035441 115.45497 C 2.9428705 116.47746 4.7160816 117.52644 5.7753581 118.16385 L 6.9163737 118.85063 L 6.7349894 120.06399 C 6.6349124 120.73143 6.4755989 121.81839 6.3810059 122.47935 C 6.2864259 123.14032 6.1721803 123.71776 6.1277913 123.76351 C 6.0834413 123.80931 5.2204887 124.28238 4.2105957 124.8146 C 3.4241295 125.22909 2.2121214 125.87193 1.2035441 126.40934 L 1.2035441 127.08475 C 4.3486576 125.39615 5.7893782 124.63175 6.1531128 124.45959 L 6.5422363 124.27562 L 8.2718465 125.33292 C 9.2231375 125.91443 10.556394 126.72985 11.234973 127.14469 C 11.297733 127.18319 11.357727 127.21959 11.414807 127.25425 L 12.554789 127.25425 L 10.236584 125.83676 C 7.5837981 124.21466 6.9678086 123.7906 6.9670166 123.58264 C 6.9663516 123.40475 7.5900593 119.23727 7.6672323 118.90282 C 7.6685323 118.89262 8.3859609 118.5277 9.2598999 118.0915 C 10.133814 117.65533 12.066631 116.68237 13.554211 115.92987 L 16.258439 114.562 L 21.236947 115.37642 C 22.33342 115.55574 23.358114 115.73124 24.196456 115.88182 L 24.196456 115.30511 C 23.47635 115.18771 22.52289 115.0315 21.258134 114.82452 C 18.749506 114.41397 16.662428 114.05291 16.621208 114.02301 C 16.484923 113.92391 15.152233 105.81563 15.260567 105.74342 C 15.384882 105.66052 20.544992 103.70599 24.196456 102.34259 L 24.196456 101.74676 L 21.239014 102.8578 L 21.23798 102.8578 C 17.750531 104.1681 14.875641 105.23823 14.849223 105.2344 C 14.822763 105.2304 14.393583 104.89667 13.894759 104.4913 C 13.395935 104.0859 11.894087 102.8934 10.557495 101.84133 C 8.5903043 100.29287 8.1389939 99.882952 8.1876139 99.689522 C 8.2207139 99.558112 8.4901925 98.466747 8.7870605 97.264347 C 9.0952025 96.016427 9.4112462 95.019975 9.5224162 94.942525 C 9.6295232 94.867925 11.241776 94.176141 13.106177 93.405151 L 16.496667 92.003687 L 17.272331 92.123059 C 17.920268 92.222916 21.367573 92.795208 24.196456 93.271309 L 24.196456 92.721472 C 21.753396 92.337846 18.771706 91.851604 17.402039 91.602677 L 16.896126 91.510177 L 16.801558 86.370439 C 16.748898 83.543239 16.731471 81.211993 16.761251 81.190393 C 16.809697 81.155259 21.279552 79.875617 24.196456 79.056673 L 24.196456 78.492883 C 23.390097 78.718099 22.446763 78.983909 21.458122 79.264412 C 18.776923 80.025142 16.468438 80.643879 16.328202 80.640039 C 16.187929 80.636039 14.007204 79.969633 11.482503 79.158993 C 8.9578105 78.348333 6.7176338 77.639108 6.5039958 77.583378 C 6.2903578 77.527678 6.1148722 77.439414 6.1148722 77.387524 C 6.1148722 77.335624 6.4997764 75.984554 6.9696004 74.385124 C 7.4393984 72.785704 8.0483313 70.669852 8.3235229 69.683602 C 8.5986889 68.697352 8.868382 67.857036 8.921936 67.816016 C 8.970016 67.779116 9.1069078 67.740436 10.133232 67.567969 L 16.513204 66.540641 z M 8.5297119 20.882963 C 8.6664459 20.822463 10.923878 21.554991 15.719971 23.216671 C 19.565127 24.548881 22.730525 25.654055 22.755717 25.672335 C 22.823837 25.721835 20.215858 36.113821 20.114018 36.197791 C 20.066088 36.237391 19.140864 36.410513 18.057812 36.582263 C 16.974734 36.754003 15.926214 36.891264 15.727722 36.888704 C 15.333346 36.883704 7.3919567 34.88906 7.1949097 34.7462 C 7.0670337 34.6535 6.7365996 33.895501 4.7020386 29.022001 L 3.4478516 26.0165 L 4.3506388 25.077022 C 7.0602758 22.257902 8.3517339 20.961693 8.5297119 20.882963 z " /><g
     id="g7"
     transform="translate(-7.8777296)"><g
       id="g19-1-1"
       transform="matrix(1.0848981,0,0,1.0848981,-70.55678,-105.89222)"><circle
         style="fill:#808080;fill-opacity:1;stroke:none;stroke-width:0.0876751"
         id="circle17-6-3"
         cx="91.264091"
         cy="99.951469"
         r="1.7393277" /><circle
         style="fill:url(#linearGradient5);fill-opacity:1;stroke:none;stroke-width:0.0852808"
         id="circle18-8-8"
         cx="91.264091"
         cy="99.951469"
         r="1.6918283" /><circle
         style="fill:#e6e6e6;fill-opacity:1;stroke:none;stroke-width:0.0661399"
         id="circle19-5-7"
         cx="91.264107"
         cy="99.951447"
         r="1.3120998" /><path
         id="path19-7-4"
         style="fill:url(#linearGradient6);stroke:none;stroke-width:0.150779"
         d="m 92.261916,99.95112 a 0.99763928,0.99763928 0 0 0 -0.01615,-0.177584 h -0.833194 v -0.808681 a 0.99763928,0.99763928 0 0 0 -0.148545,-0.01102 0.99763928,0.99763928 0 0 0 -0.207451,0.02156 v 0.798311 h -0.774238 a 0.99763928,0.99763928 0 0 0 -0.01579,0.177596 0.99763928,0.99763928 0 0 0 0.01579,0.177998 h 0.774238 v 0.79788 a 0.99763928,0.99763928 0 0 0 0.207451,0.0221 0.99763928,0.99763928 0 0 0 0.148545,-0.011 v -0.80859 h 0.833157 a 0.99763928,0.99763928 0 0 0 0.01615,-0.177989 z" /></g><g
       id="g13"
       transform="matrix(1.0848981,0,0,1.0848981,-86.31224,-105.89222)"><circle
         style="fill:#808080;fill-opacity:1;stroke:none;stroke-width:0.0876751"
         id="circle11"
         cx="91.264091"
         cy="99.951469"
         r="1.7393277" /><circle
         style="fill:url(#linearGradient1);fill-opacity:1;stroke:none;stroke-width:0.0852808"
         id="circle12"
         cx="91.264091"
         cy="99.951469"
         r="1.6918283" /><circle
         style="fill:#e6e6e6;fill-opacity:1;stroke:none;stroke-width:0.0661399"
         id="circle13"
         cx="91.264107"
         cy="99.951447"
         r="1.3120998" /><path
         id="path13"
         style="fill:url(#linearGradient2);stroke:none;stroke-width:0.150779"
         d="m 92.261916,99.95112 a 0.99763928,0.99763928 0 0 0 -0.01615,-0.177584 h -0.833194 v -0.808681 a 0.99763928,0.99763928 0 0 0 -0.148545,-0.01102 0.99763928,0.99763928 0 0 0 -0.207451,0.02156 v 0.798311 h -0.774238 a 0.99763928,0.99763928 0 0 0 -0.01579,0.177596 0.99763928,0.99763928 0 0 0 0.01579,0.177998 h 0.774238 v 0.79788 a 0.99763928,0.99763928 0 0 0 0.207451,0.0221 0.99763928,0.99763928 0 0 0 0.148545,-0.011 v -0.80859 h 0.833157 a 0.99763928,0.99763928 0 0 0 0.01615,-0.177989 z" /></g></g><g
     id="g9"
     transform="translate(-1.7317337)"><circle
       style="fill:#808080;fill-opacity:1;stroke:none;stroke-width:0.0951186"
       id="circle20"
       cx="22.309464"
       cy="126.22294"
       r="1.8869933" /><circle
       style="fill:url(#linearGradient27);fill-opacity:1;stroke:none;stroke-width:0.092521"
       id="circle21"
       cx="22.309464"
       cy="126.22294"
       r="1.8354613" /><circle
       style="fill:#e6e6e6;fill-opacity:1;stroke:none;stroke-width:0.0717551"
       id="circle22"
       cx="22.309479"
       cy="126.22291"
       r="1.4234946" /><path
       id="path22"
       style="fill:url(#linearGradient28);stroke:none;stroke-width:0.16358"
       d="m 23.391999,126.22255 a 1.082337,1.082337 0 0 0 -0.01752,-0.19266 h -0.90393 v -0.87734 a 1.082337,1.082337 0 0 0 -0.161156,-0.0119 1.082337,1.082337 0 0 0 -0.225064,0.0234 v 0.86608 H 21.24436 a 1.082337,1.082337 0 0 0 -0.01713,0.19268 1.082337,1.082337 0 0 0 0.01713,0.19311 h 0.839969 v 0.86562 a 1.082337,1.082337 0 0 0 0.225064,0.024 1.082337,1.082337 0 0 0 0.161156,-0.0119 v -0.87724 h 0.90389 a 1.082337,1.082337 0 0 0 0.01752,-0.1931 z" /></g><g
     id="g8"
     transform="translate(1.5268824)"><circle
       style="fill:#808080;fill-opacity:1;stroke:none;stroke-width:0.0951186"
       id="circle23"
       cx="3.3131044"
       cy="126.22294"
       r="1.8869933" /><circle
       style="fill:url(#linearGradient25);fill-opacity:1;stroke:none;stroke-width:0.092521"
       id="circle24"
       cx="3.3131044"
       cy="126.22294"
       r="1.8354613" /><circle
       style="fill:#e6e6e6;fill-opacity:1;stroke:none;stroke-width:0.0717551"
       id="circle25"
       cx="3.3131196"
       cy="126.22291"
       r="1.4234946" /><path
       id="path25"
       style="fill:url(#linearGradient26);stroke:none;stroke-width:0.16358"
       d="m 4.3956442,126.22255 a 1.082337,1.082337 0 0 0 -0.01752,-0.19266 h -0.90393 v -0.87734 a 1.082337,1.082337 0 0 0 -0.161157,-0.0119 1.082337,1.082337 0 0 0 -0.225063,0.0234 v 0.86608 h -0.839969 a 1.082337,1.082337 0 0 0 -0.01713,0.19268 1.082337,1.082337 0 0 0 0.01713,0.19311 h 0.839969 v 0.86562 a 1.082337,1.082337 0 0 0 0.225063,0.024 1.082337,1.082337 0 0 0 0.161157,-0.0119 v -0.87724 h 0.90389 a 1.082337,1.082337 0 0 0 0.01752,-0.1931 z" /></g><g
     id="g10"
     transform="translate(0.14868663,-4.4814764)"><path
       id="path1"
       style="fill:#f2f2f2;fill-opacity:1;stroke-width:0.0788465"
       d="M 13.048338,105.92792 A 0.34806021,0.34805257 0 0 0 12.7,106.27626 v 0.16852 a 0.34806021,0.34805257 0 0 1 0.348338,-0.34696 h 2.994315 v -0.16987 z M 12.7,107.25162 a 0.34806021,0.34805257 0 0 1 -0.348338,0.34833 H 9.7056847 a 0.34806021,0.34805257 0 0 0 -0.3483378,0.34694 v 0.17014 a 0.34806021,0.34805257 0 0 1 0.3483378,-0.34834 H 12.351662 A 0.34806021,0.34805257 0 0 0 12.7,107.42033 Z m -0.836013,4.30823 v 0.17014 c 0,0.12025 0.09709,0.21732 0.217377,0.21732 h 1.237295 c 0.120281,0 0.217375,-0.0971 0.217375,-0.21732 v -0.17014 c 0,0.12025 -0.09709,0.21732 -0.217375,0.21732 h -1.237295 c -0.120283,0 -0.217377,-0.0971 -0.217377,-0.21732 z" /><path
       id="path2-86-5"
       style="fill:#4d4d4d;fill-opacity:1;stroke-width:0.0788465"
       d="m 13.048117,106.09736 a 0.34806021,0.34805257 0 0 0 -0.348548,0.34766 v 0.97534 a 0.34806021,0.34805257 0 0 1 -0.347686,0.34846 H 9.7051023 a 0.34806021,0.34805257 0 0 0 -0.3477203,0.34769 v 4.66595 1.67074 1.67141 h 2.841421 a 0.5013855,0.50137447 0 0 0 0.500766,-0.50157 v -0.82143 a 0.34806021,0.34805257 0 0 1 0.348548,-0.34841 h 2.64602 a 0.34806021,0.34805257 0 0 0 0.348481,-0.34772 v -4.66597 -1.67069 -1.67146 z m -0.966554,4.17864 h 1.236874 c 0.120282,0 0.217106,0.0963 0.217106,0.21598 v 1.2376 c 0,0.12026 -0.09682,0.21706 -0.217106,0.21706 h -1.236874 c -0.120282,0 -0.217106,-0.0968 -0.217106,-0.21706 v -1.2376 c 0,-0.12025 0.09685,-0.21598 0.217106,-0.21598 z" /><g
       inkscape:label="Layer 1"
       id="g121"
       transform="matrix(0,-0.15959005,0.15959005,0,-0.80500552,95.129279)"><path
         id="path119"
         style="fill:#f2f2f2;fill-opacity:1;stroke:none;stroke-width:0.516488"
         d="m 27.459919,55.5896 v 2.722202 h 3.107998 v 24.35084 3.544719 h 3.160196 V 79.940441 55.5896 Z M 3.1103539,59.823144 v 2.722203 H 6.2170729 24.300997 V 59.823144 H 9.3772721 Z m 61.2355181,0 v 2.722203 h 27.457564 v 20.117295 3.544719 h 3.160195 v -6.26692 -20.117297 z m 61.235528,0 v 2.722203 h 27.45755 v 3.544716 h 3.16021 v -6.266919 z m 61.23552,0 v 2.722203 h 27.45757 v 3.544716 h 3.16018 v -6.266919 z m 61.23552,0 v 2.722203 h 27.45883 v 3.544716 h 3.15896 v -6.266919 z m 61.23552,0 v 2.722203 h 27.45884 v 3.544716 h 3.15894 v -6.266919 z m 61.23552,0 v 2.722203 h 27.45884 v 3.544716 h 3.15891 v -6.266919 z m 61.23555,0 v 2.722203 h 27.45882 v 43.023003 h 3.1602 V 59.823144 Z M 6.2170729,68.812267 V 82.662642 H 24.300997 V 79.940441 H 9.3772721 V 68.812267 Z m 61.2368021,0 V 82.662642 H 85.536511 V 79.940441 H 70.612797 V 68.812267 Z m 61.235515,0 v 29.01856 h 18.08265 v -2.7222 h -14.92372 v -26.29636 z m 67.50245,0 v 32.563283 h 3.16021 V 68.812267 Z m 54.96861,0 v 29.01856 h 18.08263 v -2.7222 h -14.92243 v -26.29636 z m 61.23551,0 v 13.850375 h 24.35084 v 2.712016 12.456169 3.544723 h 3.15894 V 95.108627 82.652457 79.940441 H 315.55615 V 68.812267 Z m 61.23551,0 v 13.850375 h 24.35085 v 3.544719 h 3.15891 v -6.26692 H 376.79166 V 68.812267 Z m 61.23552,0 v 29.01856 h 18.08394 v -2.7222 H 438.0272 v -26.29636 z m -284.93602,1.470598 v 2.722202 h 3.10798 v 24.82576 3.544723 h 3.16021 V 95.108627 70.282865 Z m 122.47229,0 v 2.722202 h 3.10801 v 24.82576 3.544723 h 3.15896 V 95.108627 70.282865 Z M 6.2170729,88.92956 v 12.44599 H 9.3772721 V 88.92956 Z m 61.2368021,0 v 12.44599 h 3.158922 V 88.92956 Z m 18.082636,0 5.14265,12.44599 h 4.28447 L 89.820994,88.92956 Z m 288.094959,0 v 8.899994 h -3.10799 v 0.0013 h 27.45884 v 3.544726 h 3.15891 V 95.108627 H 376.79166 V 88.92956 Z m -64.34351,6.179067 v 2.7222 h 21.19065 v -2.7222 z"
         sodipodi:nodetypes="cccccccccccccccccccccccccccccccccccccccccccccccccccccccccccccccccccccccccccccccccccccccccccccccccccccccccccccccccccccccccccccccccccccccccccccccccccccccccccccccccccccccccccccccccc" /><path
         id="path120"
         style="fill:#dbdbdb;fill-opacity:1;stroke:none;stroke-width:0.516488"
         d="m -3.1667551,66.046772 v 6.268194 13.850378 6.266919 15.168187 h 6.2669196 v -3.5027 H -0.04984679 V 88.92956 82.662642 68.812267 66.046772 Z m 61.2355171,0 v 6.268194 13.850378 6.266919 15.168187 h 6.266926 v -3.5027 H 61.185676 V 88.92956 82.662642 68.812267 66.046772 Z m 61.235518,0 v 6.268194 29.017294 6.26819 h 30.61778 v -3.5027 H 122.4212 v -6.266923 -29.01856 -2.765495 z m 61.23553,0 v 6.268194 h 6.2682 v 35.285484 h 6.26691 v -3.5027 h -3.15001 V 68.812267 h -6.2682 v -2.765495 z m 61.23554,0 v 6.268194 35.285484 h 30.61774 v -3.5027 H 244.89225 V 68.812267 66.046772 Z m 61.23552,0 v 6.268194 16.56112 3.556177 h 24.35082 v 5.398564 h 3.11692 V 88.92956 H 306.12907 V 85.373383 68.812267 66.046772 Z m 61.23552,0 v 35.285488 h 10e-4 v 6.26819 h 30.61774 v -3.5027 H 367.3643 v -6.266923 h 3.15 v -0.0013 h -3.15 V 88.92956 82.662642 68.812267 66.046772 Z m 61.23677,0 v 6.268194 29.017294 6.26819 h 24.34959 v 4.1928 h 6.26822 v -3.5027 h -3.15004 v -4.1928 H 428.60006 V 97.830827 68.812267 66.046772 Z M 6.2170729,68.812267 v 3.502699 H 21.182816 v 10.347676 h 3.118181 V 68.812267 Z m 61.2368021,0 v 3.502699 h 14.964463 v 10.347676 h 3.118173 V 68.812267 Z m 61.235515,0 v 3.502699 h 21.23267 v -3.502699 z m 67.50245,0 v 3.502699 h 14.96573 v -3.502699 z m 54.96861,0 v 3.502699 h 21.23264 v -3.502699 z m 61.23551,0 v 3.502699 h 21.23265 v -3.502699 z m 61.23551,0 v 3.502699 h 21.23393 v -3.502699 z m 61.23552,0 v 3.502699 h 14.96576 v 25.515861 h 3.11818 v -29.01856 z m -291.21186,7.695501 v 21.323059 h 3.11691 V 76.507768 Z m 122.47105,0 v 21.323059 h 3.1169 V 76.507768 Z M 6.2170729,88.92956 v 3.502703 H 27.451009 V 88.92956 Z m 61.2368021,0 v 3.502703 h 8.697538 l 6.268198,15.168187 h 6.266925 l -1.44768,-3.5027 H 85.536511 L 79.268326,88.92956 Z m 18.082636,0 1.447694,3.502703 h 1.702331 V 88.92956 Z m 288.094959,0 v 3.502703 H 394.8654 V 88.92956 Z m -70.6206,12.4027 v 6.26819 h 30.61774 v -3.5027 h -27.49954 v -2.76549 z"
         sodipodi:nodetypes="cccccccccccccccccccccccccccccccccccccccccccccccccccccccccccccccccccccccccccccccccccccccccccccccccccccccccccccccccccccccccccccccccccccccccccccccccccccccccccccccccccccccccccccccccccccccccccc" /><path
         id="path121"
         style="fill:#333333;fill-opacity:1;stroke:none;stroke-width:0.516488"
         d="m 24.300997,58.311802 v 4.233545 H 6.2170729 -0.04984679 v 6.26692 13.850375 6.266918 15.16819 H 6.2170729 V 88.92956 H 30.567917 v -6.266918 -24.35084 z m 36.884679,4.233545 v 6.26692 13.850375 6.266918 15.16819 h 6.268199 V 88.92956 h 11.814451 l 6.268185,15.16819 h 6.266925 L 85.536511,88.92956 h 6.266925 V 82.662642 62.545347 Z m 61.235524,0 v 6.26692 29.01856 6.266923 h 30.61775 v -6.266923 -24.82576 h -6.26691 v 24.82576 h -18.08265 v -29.01856 h 24.34956 v -6.26692 z m 61.23551,0 v 6.26692 h 6.2682 v 35.285483 h 6.26693 V 68.812267 h 18.08265 v -6.26692 z m 61.23554,0 v 6.26692 35.285483 h 30.61902 v -6.266923 -24.82576 h -6.26819 v 24.82576 h -18.08263 v -29.01856 h 24.35082 v -6.26692 z m 61.23682,0 v 6.26692 16.561116 3.556177 h 24.34954 v 8.901267 h -24.34954 v 6.266923 H 336.7468 V 97.830827 85.374658 82.662642 H 312.39596 V 68.812267 h 24.35084 v -6.26692 z m 61.2355,0 v 6.26692 13.850375 6.266918 8.899994 h 6.2669 V 88.92956 h 24.35085 V 82.662642 H 373.63147 V 68.812267 h 24.35085 v -6.26692 z m 61.23549,0 v 6.26692 29.01856 6.266923 h 24.35087 v 4.1928 h 6.26692 V 62.545347 Z M 6.2170729,68.812267 H 24.300997 V 82.662642 H 6.2170729 Z m 61.2368021,0 H 85.536511 V 82.662642 H 67.453875 Z m 367.413115,0 h 18.08394 v 29.01856 h -18.08394 z m -67.50242,29.01856 v 6.266923 h 30.61775 v -6.266923 z"
         sodipodi:nodetypes="ccccccccccccccccccccccccccccccccccccccccccccccccccccccccccccccccccccccccccccccccccccccccccccccccccccccccccccccccccccccccccccc" /></g></g></svg>
